<svg width="250" height="251" viewBox="0 0 250 251" fill="none" xmlns="http://www.w3.org/2000/svg">
<path d="M221.96 165.889H131.587C129.971 165.889 128.656 164.574 128.656 162.958V31.3214C128.656 29.7054 129.971 28.3904 131.587 28.3904H221.96C223.576 28.3904 224.891 29.7049 224.891 31.3214V162.958C224.891 164.574 223.576 165.889 221.96 165.889V165.889ZM131.587 28.5154C130.04 28.5154 128.781 29.7744 128.781 31.3214V162.958C128.781 164.505 130.04 165.764 131.587 165.764H221.96C223.508 165.764 224.766 164.505 224.766 162.958V31.3214C224.766 29.7744 223.507 28.5154 221.96 28.5154H131.587Z" fill="#E0E0E0"/>
<path d="M117.746 165.889H27.3724C25.7564 165.889 24.4414 164.574 24.4414 162.958V31.3214C24.4414 29.7054 25.7559 28.3904 27.3724 28.3904H117.746C119.362 28.3904 120.677 29.7049 120.677 31.3214V162.958C120.677 164.574 119.362 165.889 117.746 165.889V165.889ZM27.3724 28.5154C25.8254 28.5154 24.5664 29.7744 24.5664 31.3214V162.958C24.5664 164.505 25.8254 165.764 27.3724 165.764H117.746C119.293 165.764 120.552 164.505 120.552 162.958V31.3214C120.552 29.7744 119.293 28.5154 117.746 28.5154H27.3724Z" fill="#E0E0E0"/>
<path d="M250 196.424H0V196.549H250V196.424Z" fill="#E0E0E0"/>
<path d="M33.8659 203.556H25.8359V203.681H33.8659V203.556Z" fill="#E0E0E0"/>
<path d="M111.941 202.201H85.1758V202.326H111.941V202.201Z" fill="#E0E0E0"/>
<path d="M52.4902 208.201H34.3652V208.326H52.4902V208.201Z" fill="#E0E0E0"/>
<path d="M210.771 202.136H189.176V202.261H210.771V202.136Z" fill="#E0E0E0"/>
<path d="M218.392 202.136H215.227V202.261H218.392V202.136Z" fill="#E0E0E0"/>
<path d="M185.05 205.251H158.105V205.376H185.05V205.251Z" fill="#E0E0E0"/>
<path d="M69.3923 112.437C68.8413 109.779 67.7878 107.308 66.3473 105.113L68.9698 101.946L63.3633 96.3385L60.1953 98.9605C58.0008 97.5205 55.5293 96.467 52.8718 95.916L52.4873 91.833H44.5583L44.1738 95.916C41.5163 96.467 39.0448 97.5205 36.8503 98.9605L33.6828 96.3385L28.0758 101.946L30.6983 105.114C29.2578 107.308 28.2048 109.779 27.6533 112.437L23.5703 112.822V120.751L27.6533 121.136C28.2048 123.793 29.2578 126.264 30.6983 128.459L28.0758 131.627L33.6828 137.234L36.8503 134.611C39.0448 136.052 41.5163 137.105 44.1738 137.656L44.5583 141.739H52.4873L52.8718 137.656C55.5293 137.105 58.0008 136.052 60.1953 134.611L63.3633 137.234L68.9698 131.627L66.3473 128.459C67.7878 126.264 68.8413 123.793 69.3923 121.136L73.4748 120.751V112.822L69.3923 112.437ZM59.2568 116.786C59.2568 122.714 54.4513 127.52 48.5228 127.52C42.5943 127.52 37.7888 122.714 37.7888 116.786C37.7888 110.858 42.5943 106.052 48.5228 106.052C54.4513 106.052 59.2568 110.858 59.2568 116.786Z" fill="#F0F0F0"/>
<path d="M160.167 148.319C159.753 146.321 158.962 144.464 157.879 142.815L159.85 140.434L155.637 136.22L153.256 138.191C151.606 137.109 149.749 136.317 147.752 135.903L147.463 132.834H141.504L141.215 135.903C139.217 136.317 137.36 137.109 135.711 138.191L133.33 136.22L129.117 140.434L131.087 142.815C130.005 144.464 129.213 146.321 128.799 148.319L125.73 148.608V154.567L128.799 154.856C129.213 156.854 130.005 158.711 131.087 160.36L129.117 162.741L133.33 166.955L135.711 164.984C137.36 166.067 139.217 166.858 141.215 167.272L141.504 170.341H147.463L147.752 167.273C149.749 166.859 151.606 166.067 153.256 164.984L155.637 166.955L159.85 162.741L157.879 160.361C158.962 158.711 159.753 156.854 160.167 154.857L163.236 154.567V148.609L160.167 148.319V148.319ZM152.55 151.587C152.55 156.042 148.938 159.654 144.483 159.654C140.027 159.654 136.416 156.042 136.416 151.587C136.416 147.132 140.027 143.52 144.483 143.52C148.938 143.52 152.55 147.132 152.55 151.587Z" fill="#F0F0F0"/>
<path d="M104.523 175.674C104.225 174.239 103.657 172.905 102.879 171.72L104.295 170.01L101.268 166.984L99.5581 168.399C98.3731 167.622 97.0391 167.053 95.6046 166.756L95.3971 164.552H91.1166L90.9091 166.756C89.4746 167.053 88.1401 167.622 86.9556 168.399L85.2456 166.984L82.2191 170.01L83.6346 171.72C82.8571 172.905 82.2886 174.239 81.9911 175.674L79.7871 175.882V180.162L81.9911 180.37C82.2886 181.804 82.8571 183.139 83.6346 184.324L82.2191 186.033L85.2456 189.06L86.9556 187.644C88.1401 188.422 89.4741 188.99 90.9091 189.288L91.1166 191.492H95.3971L95.6046 189.288C97.0391 188.99 98.3731 188.422 99.5581 187.644L101.268 189.06L104.295 186.033L102.879 184.324C103.657 183.139 104.225 181.804 104.523 180.37L106.727 180.162V175.882L104.523 175.674ZM99.0511 178.022C99.0511 181.222 96.4566 183.816 93.2566 183.816C90.0566 183.816 87.4621 181.222 87.4621 178.022C87.4621 174.822 90.0561 172.227 93.2566 172.227C96.4571 172.227 99.0511 174.822 99.0511 178.022Z" fill="#F0F0F0"/>
<path d="M214.885 51.6173C214.555 50.0238 213.923 48.5428 213.06 47.2273L214.632 45.3288L211.271 41.9678L209.372 43.5398C208.057 42.6768 206.575 42.0453 204.982 41.7148L204.752 39.2673H199.999L199.768 41.7148C198.175 42.0453 196.694 42.6768 195.378 43.5398L193.479 41.9678L190.118 45.3288L191.69 47.2278C190.827 48.5433 190.196 50.0243 189.865 51.6178L187.418 51.8488V56.6013L189.865 56.8318C190.196 58.4248 190.827 59.9058 191.69 61.2218L190.118 63.1208L193.479 66.4818L195.378 64.9098C196.694 65.7733 198.175 66.4048 199.768 66.7348L199.999 69.1823H204.752L204.982 66.7353C206.575 66.4053 208.057 65.7738 209.372 64.9098L211.271 66.4818L214.632 63.1208L213.06 61.2223C213.923 59.9063 214.555 58.4253 214.885 56.8323L217.332 56.6018V51.8493L214.885 51.6183V51.6173ZM208.809 54.2243C208.809 57.7778 205.929 60.6583 202.375 60.6583C198.822 60.6583 195.941 57.7773 195.941 54.2243C195.941 50.6713 198.822 47.7903 202.375 47.7903C205.929 47.7903 208.809 50.6708 208.809 54.2243Z" fill="#F0F0F0"/>
<path d="M37.1788 155.529C36.9793 154.567 36.5982 153.673 36.0767 152.878L37.0258 151.732L34.9968 149.702L33.8503 150.651C33.0558 150.13 32.1618 149.749 31.1998 149.549L31.0608 148.071H28.1908L28.0513 149.549C27.0893 149.749 26.1948 150.13 25.4008 150.651L24.2542 149.702L22.2248 151.732L23.1737 152.878C22.6522 153.672 22.2713 154.567 22.0718 155.529L20.5938 155.668V158.538L22.0718 158.677C22.2713 159.639 22.6522 160.533 23.1737 161.328L22.2248 162.474L24.2542 164.504L25.4008 163.554C26.1948 164.076 27.0893 164.457 28.0513 164.656L28.1908 166.134H31.0608L31.1998 164.657C32.1618 164.457 33.0563 164.076 33.8503 163.555L34.9968 164.504L37.0258 162.475L36.0767 161.328C36.5982 160.534 36.9793 159.639 37.1788 158.678L38.6563 158.538V155.669L37.1788 155.529ZM33.5103 157.103C33.5103 159.249 31.7708 160.988 29.6252 160.988C27.4797 160.988 25.7402 159.249 25.7402 157.103C25.7402 154.958 27.4797 153.218 29.6252 153.218C31.7708 153.218 33.5103 154.958 33.5103 157.103Z" fill="#F0F0F0"/>
<path d="M117.774 79.9824H96.2285V95.1204H117.774V79.9824Z" fill="#F0F0F0"/>
<path d="M106.891 90.1224L96.3457 80.3504C96.2442 80.2564 96.2387 80.0984 96.3322 79.9969C96.4257 79.8949 96.5842 79.8894 96.6857 79.9834L106.895 89.4449L117.247 80.1099C117.349 80.0169 117.507 80.0254 117.6 80.1279C117.692 80.2304 117.684 80.3884 117.582 80.4809L106.891 90.1224Z" fill="#E6E6E6"/>
<path d="M96.5003 95.0995C96.4408 95.0995 96.3818 95.0785 96.3338 95.0365C96.2308 94.9445 96.2213 94.7865 96.3133 94.6835L103.443 86.6755C103.536 86.572 103.693 86.563 103.796 86.655C103.899 86.747 103.909 86.905 103.817 87.008L96.6868 95.016C96.6373 95.0715 96.5688 95.0995 96.4998 95.0995H96.5003Z" fill="#E6E6E6"/>
<path d="M117.556 95.0995C117.487 95.0995 117.419 95.071 117.369 95.016L110.239 87.008C110.147 86.905 110.157 86.747 110.26 86.655C110.363 86.563 110.52 86.572 110.613 86.6755L117.743 94.6835C117.835 94.7865 117.825 94.9445 117.722 95.0365C117.675 95.079 117.615 95.0995 117.556 95.0995H117.556Z" fill="#E6E6E6"/>
<path d="M212.963 160.692L176.775 165.656L180.263 191.081L216.451 186.117L212.963 160.692Z" fill="#F0F0F0"/>
<path d="M196.988 179.998L177.155 166.105C177.042 166.026 177.015 165.87 177.094 165.757C177.173 165.644 177.329 165.617 177.442 165.696L196.9 179.327L212.238 161.142C212.327 161.036 212.485 161.024 212.59 161.112C212.695 161.201 212.709 161.358 212.62 161.464L196.988 179.998Z" fill="#E6E6E6"/>
<path d="M180.656 190.815C180.608 190.815 180.56 190.801 180.517 190.772C180.403 190.696 180.372 190.54 180.449 190.426L190.579 175.333C190.657 175.217 190.813 175.188 190.926 175.264C191.04 175.341 191.071 175.497 190.994 175.611L180.864 190.704C180.815 190.776 180.736 190.815 180.656 190.815Z" fill="#E6E6E6"/>
<path d="M216.022 185.963C215.964 185.963 215.907 185.944 215.859 185.903L202.039 174.096C201.934 174.007 201.922 173.849 202.011 173.744C202.101 173.639 202.259 173.627 202.364 173.716L216.184 185.523C216.289 185.613 216.301 185.771 216.212 185.876C216.162 185.933 216.092 185.963 216.022 185.963Z" fill="#E6E6E6"/>
<path d="M105.922 66.6899C118.815 66.6899 129.266 56.2385 129.266 43.346C129.266 30.4534 118.815 20.002 105.922 20.002C93.0296 20.002 82.5781 30.4534 82.5781 43.346C82.5781 56.2385 93.0296 66.6899 105.922 66.6899Z" fill="#E0E0E0"/>
<path d="M105.922 62.1643C116.315 62.1643 124.741 53.739 124.741 43.3458C124.741 32.9527 116.315 24.5273 105.922 24.5273C95.5288 24.5273 87.1035 32.9527 87.1035 43.3458C87.1035 53.739 95.5288 62.1643 105.922 62.1643Z" fill="white"/>
<path d="M105.922 56.5119C113.193 56.5119 119.088 50.6173 119.088 43.3459C119.088 36.0746 113.193 30.1799 105.922 30.1799C98.6505 30.1799 92.7559 36.0746 92.7559 43.3459C92.7559 50.6173 98.6505 56.5119 105.922 56.5119Z" fill="#F0F0F0"/>
<path d="M111.814 49.2385C115.068 45.9843 115.068 40.7081 111.814 37.4539C108.559 34.1996 103.283 34.1996 100.029 37.4539C96.7748 40.7081 96.7748 45.9843 100.029 49.2385C103.283 52.4928 108.559 52.4928 111.814 49.2385Z" fill="#E0E0E0"/>
<path d="M105.921 46.5635C107.736 46.5635 109.208 45.0921 109.208 43.277C109.208 41.4619 107.736 39.9905 105.921 39.9905C104.106 39.9905 102.635 41.4619 102.635 43.277C102.635 45.0921 104.106 46.5635 105.921 46.5635Z" fill="#F0F0F0"/>
<path d="M129.77 30.4765L129.949 29.5585C130.082 28.881 130.506 28.296 131.11 27.9605L134.263 26.207L133.273 28.6245L129.77 30.476V30.4765Z" fill="#EBEBEB"/>
<path d="M129.768 30.3424L130.599 30.7714C131.213 31.0879 131.935 31.1179 132.572 30.8529L135.904 29.4679L133.394 28.7444L129.768 30.3429L129.768 30.3424Z" fill="#EBEBEB"/>
<path d="M134.001 27.961L105.803 42.8545L106.036 43.2962L134.234 28.4027L134.001 27.961Z" fill="#E0E0E0"/>
<path d="M229.438 224.988C229.438 226.681 182.679 228.054 125 228.054C67.321 228.054 20.5625 226.681 20.5625 224.988C20.5625 223.294 67.3205 221.922 125 221.922C182.68 221.922 229.438 223.295 229.438 224.988Z" fill="#F5F5F5"/>
<path d="M172.062 214.719C172.055 214.496 171.305 192.367 167.705 188.867C164.204 185.463 160.186 188.74 160.017 188.881L159.656 188.449C159.702 188.41 164.236 184.709 168.098 188.463C171.859 192.121 172.595 213.782 172.625 214.702L172.062 214.72V214.719Z" fill="#263238"/>
<path d="M172.37 219.068C172.344 218.804 169.91 192.502 179.515 181.478L179.94 181.847C170.493 192.688 172.905 218.751 172.93 219.013L172.37 219.068V219.068Z" fill="#263238"/>
<path d="M172.014 216.286L171.451 216.249C171.471 215.951 173.331 186.347 166.285 179.867L166.666 179.452C173.91 186.114 172.094 215.057 172.013 216.286H172.014Z" fill="#263238"/>
<path d="M172.933 216.27L172.369 216.265C172.376 215.45 172.602 196.269 178.05 193.147C179.261 192.452 180.447 192.337 181.576 192.803C184.87 194.166 186.503 200.029 186.571 200.278L186.027 200.427C186.011 200.368 184.399 194.581 181.36 193.324C180.402 192.928 179.383 193.033 178.331 193.636C173.161 196.598 172.935 216.073 172.933 216.27H172.933Z" fill="#263238"/>
<path d="M170.81 216.284L170.248 216.252C170.257 216.1 171.07 201.094 167.02 195.807C166.039 194.526 164.974 193.916 163.848 193.995C161.195 194.18 158.97 198.063 158.948 198.102L158.457 197.825C158.554 197.654 160.853 193.64 163.809 193.433C165.131 193.339 166.364 194.024 167.468 195.465C171.645 200.918 170.847 215.659 170.81 216.284Z" fill="#263238"/>
<path d="M171.698 218.325C171.588 216.869 169.051 182.605 173.515 176.568L173.967 176.902C169.627 182.773 172.233 217.927 172.26 218.282L171.698 218.325Z" fill="#263238"/>
<path d="M183.596 194.695C183.596 194.695 180.747 195.748 181.714 198.013C184.439 204.396 190.934 205.076 190.934 205.076C190.934 205.076 193.982 200.251 191.484 196.504C188.039 191.337 183.668 193.027 183.595 194.695H183.596Z" fill="#407BFF"/>
<path d="M171.146 191.839C171.146 191.839 173.998 191.719 174.16 194.177C174.322 196.635 167.982 203.434 167.982 203.434C167.982 203.434 163.458 201.799 164.43 195.665C165.402 189.532 170.437 190.327 171.146 191.839Z" fill="#407BFF"/>
<path d="M172.53 177.516C172.53 177.516 171.333 177.369 170.882 176.291C169.539 173.076 174.156 169.609 180.329 171.441C180.329 171.441 180.493 176.873 177.171 179.016C173.849 181.158 172.53 177.516 172.53 177.516Z" fill="#407BFF"/>
<path d="M161.95 194.363C161.95 194.363 162.943 193.001 161.442 192.867C159.94 192.734 153.44 195.647 155.149 202.314C155.149 202.314 163.51 199.587 163.8 196.795C164.09 194.004 161.95 194.363 161.95 194.363H161.95Z" fill="#407BFF"/>
<path d="M179.775 179.902C179.775 179.902 180.15 178.664 181.566 178.147C182.982 177.63 188.243 177.955 188.315 184.838C188.315 184.838 180.223 186.183 179.221 183.561C178.219 180.939 179.774 179.902 179.774 179.902H179.775Z" fill="#407BFF"/>
<path d="M175.407 185.621C175.407 185.621 175.951 184.678 176.991 185.183C178.031 185.687 181.096 188.842 178.173 192.649C178.173 192.649 172.742 189.383 173.186 187.091C173.595 184.979 175.407 185.621 175.407 185.621Z" fill="#407BFF"/>
<path d="M162.101 187.281C162.101 187.281 162.886 186.253 161.737 186.126C160.588 185.998 155.44 187.373 156.639 192.512C156.639 192.512 162.911 192.04 163.179 189.905C163.448 187.77 162.101 187.281 162.101 187.281L162.101 187.281Z" fill="#407BFF"/>
<path opacity="0.3" d="M167.423 201.294C167.361 201.294 167.308 201.249 167.299 201.187C166.85 197.986 168.362 194.192 171.063 191.746C171.115 191.7 171.193 191.703 171.24 191.755C171.287 191.807 171.283 191.886 171.231 191.932C168.589 194.325 167.108 198.03 167.547 201.152C167.556 201.22 167.509 201.284 167.44 201.293C167.434 201.293 167.429 201.294 167.423 201.294Z" fill="black"/>
<path opacity="0.3" d="M177.964 190.696C177.906 190.696 177.853 190.655 177.842 190.595C177.49 188.833 176.595 187.165 175.32 185.898C175.271 185.849 175.271 185.77 175.319 185.721C175.368 185.672 175.447 185.672 175.496 185.72C176.806 187.022 177.726 188.735 178.087 190.546C178.101 190.614 178.057 190.679 177.989 190.693C177.981 190.694 177.973 190.695 177.965 190.695L177.964 190.696Z" fill="black"/>
<path opacity="0.3" d="M189.855 200.943C189.809 200.943 189.764 200.917 189.743 200.873C188.493 198.306 186.06 195.926 183.545 194.809C183.482 194.781 183.453 194.707 183.481 194.644C183.509 194.581 183.583 194.552 183.646 194.581C186.212 195.72 188.693 198.147 189.967 200.763C189.998 200.825 189.972 200.9 189.91 200.93C189.892 200.939 189.874 200.943 189.855 200.943V200.943Z" fill="black"/>
<path opacity="0.3" d="M186.806 183.153C186.764 183.153 186.724 183.133 186.7 183.095C185.969 181.937 184.862 181.03 183.582 180.542C182.224 180.024 181.082 179.657 179.81 180.022C179.741 180.041 179.674 180.003 179.655 179.937C179.636 179.87 179.675 179.801 179.741 179.782C181.09 179.395 182.269 179.773 183.671 180.308C185.001 180.815 186.152 181.757 186.911 182.962C186.948 183.02 186.93 183.097 186.872 183.135C186.851 183.147 186.828 183.154 186.805 183.154L186.806 183.153Z" fill="black"/>
<path d="M168.425 181.061C168.425 181.061 170.324 181.288 170.434 180.125C170.544 178.962 164.157 174.437 158.916 178.178C158.916 178.178 160.53 183.368 164.368 184.313C168.207 185.258 168.425 181.061 168.425 181.061Z" fill="#407BFF"/>
<path opacity="0.3" d="M168.366 181.281C168.328 181.281 168.291 181.263 168.266 181.23C166.356 178.661 161.509 177.719 159.841 178.322C159.776 178.344 159.705 178.312 159.681 178.247C159.658 178.182 159.692 178.111 159.756 178.087C161.46 177.472 166.421 178.332 168.466 181.081C168.508 181.137 168.496 181.215 168.441 181.256C168.418 181.273 168.392 181.281 168.366 181.281Z" fill="black"/>
<path opacity="0.3" d="M157.885 190.634C157.862 190.634 157.84 190.628 157.82 190.616C157.761 190.58 157.742 190.503 157.778 190.444C158.857 188.672 160.958 187.687 162.115 187.257C162.178 187.233 162.252 187.266 162.276 187.331C162.3 187.395 162.267 187.467 162.202 187.491C161.076 187.91 159.032 188.867 157.992 190.574C157.968 190.612 157.927 190.634 157.885 190.634V190.634Z" fill="black"/>
<path opacity="0.3" d="M156.043 199.908C156.023 199.908 156.003 199.904 155.985 199.894C155.924 199.863 155.9 199.787 155.932 199.726C157.229 197.239 159.364 195.266 161.944 194.169C162.007 194.144 162.081 194.171 162.108 194.235C162.135 194.299 162.105 194.372 162.042 194.399C159.552 195.458 157.405 197.441 156.154 199.841C156.131 199.884 156.088 199.909 156.043 199.909V199.908Z" fill="black"/>
<path opacity="0.3" d="M172.781 177.511C172.763 177.511 172.746 177.507 172.728 177.5C172.666 177.47 172.639 177.396 172.668 177.333C173.696 175.139 175.688 173.392 177.998 172.66C178.062 172.64 178.133 172.676 178.154 172.741C178.175 172.807 178.139 172.877 178.073 172.898C175.829 173.61 173.893 175.307 172.895 177.439C172.873 177.485 172.828 177.511 172.781 177.511Z" fill="black"/>
<path d="M179.538 224.188H164.208L162.555 210.098H181.192L179.538 224.188Z" fill="#263238"/>
<path d="M183.77 207.925H159.977V212.272H183.77V207.925Z" fill="#263238"/>
<path opacity="0.3" d="M162.781 212.271L163.078 215.119H180.668L180.966 212.268L162.781 212.271Z" fill="black"/>
<path d="M96.2603 50.5996H39.0168C38.4488 50.5996 37.9883 51.0601 37.9883 51.6281V74.0036C37.9883 74.5716 38.4488 75.0321 39.0168 75.0321H56.4748C57.8558 76.5006 62.6018 81.2691 62.6018 81.2691V75.0321H96.2598C96.8278 75.0321 97.2883 74.5716 97.2883 74.0036V51.6281C97.2883 51.0601 96.8283 50.5996 96.2603 50.5996Z" fill="#407BFF"/>
<path opacity="0.6" d="M96.2603 50.5996H39.0168C38.4488 50.5996 37.9883 51.0601 37.9883 51.6281V74.0036C37.9883 74.5716 38.4488 75.0321 39.0168 75.0321H56.4748C57.8558 76.5006 62.6018 81.2691 62.6018 81.2691V75.0321H96.2598C96.8278 75.0321 97.2883 74.5716 97.2883 74.0036V51.6281C97.2883 51.0601 96.8283 50.5996 96.2603 50.5996Z" fill="white"/>
<path d="M51.5636 64.9602C51.5636 66.5192 50.2471 67.4267 47.7811 67.4267H42.7461V58.4812H47.5256C49.9921 58.4812 51.1421 59.4652 51.1421 60.8197C51.1421 61.6507 50.7206 62.3402 49.9026 62.7492C50.9506 63.1327 51.5636 63.8992 51.5636 64.9602ZM45.7106 60.5897V61.9187H47.1166C47.7936 61.9187 48.1006 61.6887 48.1006 61.2542C48.1006 60.8197 47.7936 60.5897 47.1166 60.5897H45.7106ZM48.5221 64.6152C48.5221 64.1552 48.1896 63.9122 47.5251 63.9122H45.7106V65.3177H47.5251C48.1896 65.3177 48.5221 65.0757 48.5221 64.6152Z" fill="#407BFF"/>
<path d="M56.459 65.177H55.641V67.426H52.625V58.4805H56.9315C59.4235 58.4805 61.008 59.784 61.008 61.8545C61.008 63.1455 60.395 64.1165 59.3215 64.666L61.2 67.4265H57.98L56.4595 65.1775L56.459 65.177ZM56.74 60.8065H55.641V62.902H56.74C57.571 62.902 57.967 62.506 57.967 61.854C57.967 61.202 57.571 60.8065 56.74 60.8065Z" fill="#407BFF"/>
<path d="M68.2408 65.867H64.8413L64.2408 67.426H61.1738L65.0843 58.4805H68.0488L71.9593 67.426H68.8413L68.2408 65.867ZM67.4098 63.6945L66.5408 61.4455L65.6718 63.6945H67.4098Z" fill="#407BFF"/>
<path d="M81.2643 58.4805V67.426H78.7853L75.3863 63.3625V67.426H72.4473V58.4805H74.9263L78.3258 62.5445V58.4805H81.2643Z" fill="#407BFF"/>
<path d="M82.7207 58.4805H87.1292C90.1197 58.4805 92.1772 60.18 92.1772 62.9535C92.1772 65.727 90.1197 67.426 87.1292 67.426H82.7207V58.4805ZM87.0017 65.0745C88.2667 65.0745 89.1357 64.3205 89.1357 62.953C89.1357 61.5855 88.2667 60.8315 87.0017 60.8315H85.7367V65.074L87.0017 65.0745Z" fill="#407BFF"/>
<path d="M85.6946 49.093H68.1426C68.0391 49.093 67.9551 49.009 67.9551 48.9055C67.9551 48.802 68.0391 48.718 68.1426 48.718H85.6946C85.7981 48.718 85.8821 48.802 85.8821 48.9055C85.8821 49.009 85.7981 49.093 85.6946 49.093Z" fill="#407BFF"/>
<path d="M90.0046 49.093H88.1426C88.0391 49.093 87.9551 49.009 87.9551 48.9055C87.9551 48.802 88.0391 48.718 88.1426 48.718H90.0046C90.1081 48.718 90.1921 48.802 90.1921 48.9055C90.1921 49.009 90.1081 49.093 90.0046 49.093Z" fill="#407BFF"/>
<path d="M95.4242 122.829C91.6337 125.728 89.4227 130.27 89.5997 135.039C89.7172 138.204 90.7142 142.038 93.4077 146.451C101.706 160.046 111.927 152.876 119.538 150.199C127.584 147.368 136.184 143.455 142.316 140.148C145.009 138.696 144.378 137.558 144.378 137.558C144.378 137.558 126.032 104.933 123.569 103.903C121.558 103.061 102.385 117.506 95.4237 122.829H95.4242Z" fill="#407BFF"/>
<path d="M108.484 150.772C108.445 151.312 119.41 187.182 123.083 188.894C126.756 190.607 137.949 186.535 138.389 183.855C138.829 181.174 129.434 143.61 129.434 143.61L108.484 150.772Z" fill="#407BFF"/>
<path d="M142.221 139.467C153.625 135.042 165.431 138.939 165.431 138.939C158.159 132.985 153.569 124.149 147.4 113.735C138.681 99.0152 136.855 81.9737 136.632 81.9797C136.608 93.2407 123.568 103.902 123.568 103.902C123.568 103.902 114.481 112.579 124.012 127.999C133.543 143.419 142.221 139.467 142.221 139.467V139.467Z" fill="#407BFF"/>
<path opacity="0.8" d="M142.221 139.467C153.625 135.042 165.431 138.939 165.431 138.939C158.159 132.985 153.569 124.149 147.4 113.735C138.681 99.0152 136.855 81.9737 136.632 81.9797C136.608 93.2407 123.568 103.902 123.568 103.902C123.568 103.902 114.481 112.579 124.012 127.999C133.543 143.419 142.221 139.467 142.221 139.467V139.467Z" fill="white"/>
<path opacity="0.3" d="M130.042 146.056L115.881 151.651L130.869 149.426L130.042 146.056Z" fill="black"/>
<path d="M126.512 154.972L129.852 165.296C129.852 165.296 132.204 165.146 135.276 164.104L137.63 162.934L136.901 160.765C136.901 160.765 132.723 159.509 131.115 154.125L126.512 154.972L126.512 154.972Z" fill="#263238"/>
<path opacity="0.3" d="M135.276 164.103L134.311 161.457C134.311 161.457 130.006 160.933 128.455 154.614L126.512 154.972L129.852 165.296C129.852 165.296 132.89 164.965 135.276 164.104L135.276 164.103Z" fill="black"/>
<path d="M207.94 149.553C226.724 139.791 229.555 108.022 214.263 78.5959C198.97 49.1695 171.346 33.2283 152.561 42.9902C133.777 52.7522 130.946 84.5206 146.238 113.947C161.53 143.373 189.155 159.315 207.94 149.553Z" fill="#407BFF"/>
<path opacity="0.5" d="M207.94 149.553C226.724 139.791 229.555 108.022 214.263 78.5959C198.97 49.1695 171.346 33.2283 152.561 42.9902C133.777 52.7522 130.946 84.5206 146.238 113.947C161.53 143.373 189.155 159.315 207.94 149.553Z" fill="white"/>
<path opacity="0.1" d="M218.341 87.5591C220.285 92.8721 226.816 115.637 201.143 127.089C171.958 140.107 137.035 74.7056 137.035 74.7056L136.4 75.5491C136.244 87.3946 139.458 100.901 146.238 113.948C161.531 143.374 189.155 159.315 207.94 149.553C224.827 140.777 228.817 114.215 218.341 87.5591Z" fill="black"/>
<path d="M141.717 102.065L166.948 93.5566L175.313 110.958L154.016 126.213C154.016 126.213 146.411 118.603 141.717 102.065Z" fill="#407BFF"/>
<path d="M176.387 99.7467C178.77 104.662 177.905 110.003 174.455 111.675C171.006 113.347 166.278 110.718 163.895 105.802C161.512 100.887 162.377 95.5462 165.827 93.8742C169.276 92.2022 174.005 94.8312 176.387 99.7467Z" fill="#407BFF"/>
<path opacity="0.2" d="M176.387 99.7467C178.77 104.662 177.905 110.003 174.455 111.675C171.006 113.347 166.278 110.718 163.895 105.802C161.512 100.887 162.377 95.5462 165.827 93.8742C169.276 92.2022 174.005 94.8312 176.387 99.7467Z" fill="white"/>
<path d="M196.679 152.83C179.347 152.83 158.923 137.669 146.52 113.801C139.06 99.4457 135.566 84.1077 136.682 70.6132C137.809 56.9917 143.494 46.8582 152.69 42.0792C171.552 32.2782 199.471 48.5042 214.93 78.2502C230.388 107.997 227.62 140.171 208.76 149.972C205.032 151.909 200.948 152.83 196.679 152.83ZM164.841 40.7012C160.786 40.7012 156.915 41.5737 153.381 43.4102C144.66 47.9427 139.26 57.6472 138.177 70.7367C137.083 83.9532 140.519 99.0012 147.851 113.109C162.928 142.121 189.941 158.062 208.069 148.641C226.194 139.222 228.673 107.953 213.599 78.9422C201.461 55.5857 181.586 40.7012 164.841 40.7012Z" fill="#263238"/>
<path d="M198.377 50.0831C205.233 55.7091 210.983 62.6351 215.242 70.4156C216.451 72.6246 217.538 74.8991 218.498 77.2271C218.679 77.6671 219.405 77.4746 219.221 77.0276C215.805 68.7381 210.812 61.1336 204.546 54.7176C202.764 52.8926 200.879 51.1706 198.907 49.5526C198.537 49.2486 198.003 49.7766 198.377 50.0831H198.377Z" fill="#407BFF"/>
<path d="M220.511 81.689C220.899 82.6715 221.286 83.654 221.673 84.6365C221.747 84.825 221.924 84.956 222.135 84.8985C222.314 84.849 222.471 84.6265 222.397 84.437C222.009 83.4545 221.622 82.472 221.235 81.4895C221.161 81.301 220.984 81.17 220.773 81.2275C220.594 81.277 220.437 81.4995 220.511 81.689Z" fill="#407BFF"/>
<path d="M72.0137 214.453L72.6372 220.988L77.5522 221.526L78.0507 214.498L72.0137 214.453Z" fill="#B97964"/>
<path d="M71.5722 219.945C71.5622 219.687 71.7867 219.482 72.0397 219.492L73.5337 219.55C73.9112 219.555 74.2962 220.257 74.5152 220.571C75.4597 221.925 76.1892 221.428 77.2527 220.183C77.9192 220.113 78.0877 220.894 78.1392 221.104L79.3247 225.749C79.4277 226.137 79.2032 226.536 78.8227 226.642C78.7552 226.66 78.6852 226.669 78.6152 226.667C76.5892 226.639 75.6302 226.625 73.1082 226.59L65.3952 226.483C63.2927 226.454 62.8857 224.287 63.7547 224.099C67.6612 223.276 70.4347 222.145 71.6537 221.007C71.8237 220.857 71.5902 220.419 71.5717 219.946L71.5722 219.945Z" fill="#263238"/>
<path d="M72.2555 222.455C72.213 222.455 72.172 222.433 72.1485 222.394C71.864 221.919 71.372 221.585 70.8325 221.503C70.7645 221.492 70.7175 221.429 70.728 221.36C70.7385 221.292 70.8015 221.246 70.8705 221.256C71.4825 221.35 72.0405 221.727 72.363 222.266C72.3985 222.325 72.3795 222.402 72.32 222.438C72.3 222.449 72.278 222.455 72.256 222.455L72.2555 222.455Z" fill="white"/>
<path d="M71.1486 223.098C71.1061 223.098 71.0651 223.077 71.0416 223.037C70.7571 222.562 70.2651 222.229 69.7251 222.147C69.6571 222.136 69.6101 222.073 69.6206 222.004C69.6311 221.936 69.6931 221.889 69.7631 221.9C70.3756 221.994 70.9336 222.371 71.2556 222.91C71.2911 222.969 71.2721 223.045 71.2126 223.081C71.1926 223.093 71.1706 223.099 71.1486 223.099V223.098Z" fill="white"/>
<path d="M69.7853 223.747C69.7428 223.747 69.7018 223.725 69.6783 223.686C69.3938 223.211 68.9013 222.878 68.3618 222.796C68.2938 222.785 68.2468 222.722 68.2573 222.653C68.2678 222.585 68.3318 222.539 68.3998 222.548C69.0118 222.642 69.5698 223.02 69.8923 223.558C69.9278 223.618 69.9088 223.694 69.8493 223.73C69.8293 223.741 69.8073 223.748 69.7853 223.748V223.747Z" fill="white"/>
<path d="M83.6797 211.793L89.2572 215.256L92.6627 211.671L87.3732 207.017L83.6797 211.793Z" fill="#B97964"/>
<path d="M87.7828 215.471C87.5713 215.323 87.5443 215.02 87.7053 214.825L88.6563 213.671C88.8893 213.373 89.6813 213.493 90.0638 213.509C91.7128 213.577 91.7598 212.696 91.4133 211.095C91.7613 210.523 92.4853 210.862 92.6833 210.948L97.0968 212.818C97.4678 212.971 97.6498 213.392 97.5028 213.759C97.4768 213.824 97.4413 213.885 97.3968 213.939C96.1468 215.534 95.5558 216.289 93.9998 218.274L89.2423 224.346C87.9453 226.001 85.9748 225.012 86.3518 224.207C88.0628 220.6 88.8438 217.709 88.6763 216.049C88.6603 215.823 88.1703 215.743 87.7828 215.471Z" fill="#263238"/>
<path d="M88.4864 217.038C88.4539 217.038 88.4209 217.025 88.3964 217C88.3484 216.95 88.3499 216.871 88.3994 216.823C88.8449 216.392 89.4834 216.176 90.1074 216.247C90.1759 216.255 90.2254 216.317 90.2179 216.385C90.2104 216.453 90.1454 216.5 90.0799 216.495C89.5284 216.436 88.9659 216.624 88.5739 217.003C88.5494 217.026 88.5184 217.038 88.4869 217.038H88.4864Z" fill="white"/>
<path d="M88.3282 218.31C88.2957 218.31 88.2627 218.297 88.2382 218.272C88.1902 218.222 88.1917 218.143 88.2412 218.095C88.6867 217.664 89.3252 217.446 89.9492 217.519C90.0177 217.526 90.0672 217.588 90.0597 217.656C90.0517 217.725 89.9862 217.774 89.9217 217.767C89.3712 217.709 88.8082 217.896 88.4152 218.275C88.3907 218.298 88.3597 218.31 88.3282 218.31Z" fill="white"/>
<path d="M88.0196 219.787C87.9871 219.787 87.9541 219.774 87.9296 219.749C87.8816 219.699 87.8831 219.62 87.9326 219.572C88.3786 219.141 89.0181 218.924 89.6406 218.996C89.7091 219.004 89.7586 219.066 89.7511 219.134C89.7431 219.203 89.6781 219.249 89.6131 219.244C89.0641 219.184 88.4991 219.372 88.1066 219.752C88.0821 219.775 88.0511 219.787 88.0196 219.787Z" fill="white"/>
<path d="M91.3582 208.185C91.3582 208.185 87.9102 203.969 83.5332 198.597C93.1357 147.387 83.8157 133.422 83.8157 133.422L83.7792 133.421C83.7802 133.395 83.7807 133.364 83.7497 133.342C81.6102 128.21 66.5542 131.525 66.5542 131.525C65.9447 133.653 65.4122 136.913 65.0362 139.596C64.3272 141.156 53.8212 164.37 51.9392 174.843C50.8482 180.915 61.7132 192.616 71.4807 201.733L71.0302 217.768L79.3492 218.106C79.9902 215.428 80.5822 212.837 81.1377 210.314C84.1522 212.873 86.1372 214.453 86.1372 214.453L91.3572 208.186L91.3582 208.185ZM65.5197 176.228C64.9932 175.377 70.3342 162.276 73.2762 155.219L72.0337 182.053L71.9692 184.357C68.4607 180.013 65.8047 176.688 65.5202 176.228L65.5197 176.228Z" fill="#407BFF"/>
<path opacity="0.6" d="M91.3582 208.185C91.3582 208.185 87.9102 203.969 83.5332 198.597C93.1357 147.387 83.8157 133.422 83.8157 133.422L83.7792 133.421C83.7802 133.395 83.7807 133.364 83.7497 133.342C81.6102 128.21 66.5542 131.525 66.5542 131.525C65.9447 133.653 65.4122 136.913 65.0362 139.596C64.3272 141.156 53.8212 164.37 51.9392 174.843C50.8482 180.915 61.7132 192.616 71.4807 201.733L71.0302 217.768L79.3492 218.106C79.9902 215.428 80.5822 212.837 81.1377 210.314C84.1522 212.873 86.1372 214.453 86.1372 214.453L91.3572 208.186L91.3582 208.185ZM65.5197 176.228C64.9932 175.377 70.3342 162.276 73.2762 155.219L72.0337 182.053L71.9692 184.357C68.4607 180.013 65.8047 176.688 65.5202 176.228L65.5197 176.228Z" fill="white"/>
<path d="M66.711 128.537L66.627 131.538L83.9009 133.351L83.9725 130.812L66.711 128.537Z" fill="#263238"/>
<path d="M74.3481 132.84L70.0781 132.337L70.4741 128.979L74.7441 129.483L74.3481 132.84ZM70.6331 131.899L73.9101 132.285L74.1891 129.921L70.9121 129.534L70.6331 131.899Z" fill="white"/>
<path d="M67.1807 106.611C67.6272 103.048 70.0732 102.828 70.0732 102.828C70.0732 102.828 72.0632 102.69 75.4312 102.784C78.0362 102.946 80.6267 103.293 83.1827 103.821C85.6057 104.295 87.9912 104.942 90.3207 105.759C89.8957 106.871 89.5092 107.926 89.1507 108.918C85.0157 120.258 84.4897 124.396 83.8997 130.821L66.6302 128.839C66.2802 116.623 66.7782 109.928 67.1812 106.61L67.1807 106.611Z" fill="#407BFF"/>
<path d="M72.6999 102.61C70.6999 102.502 68.4924 102.29 67.5344 102.704C65.4629 102.848 56.1989 110.738 56.1989 110.738L60.4394 101.618L55.0439 99.603C55.0439 99.603 46.3284 112.773 48.0259 117.716C49.3244 121.496 60.2384 116.372 65.3029 113.751C65.1729 116.987 65.2374 121.576 65.3449 129.36L63.5849 142.872L65.0744 139.554C65.0744 139.554 68.2694 119.039 68.1424 114.593C68.0154 110.148 72.6999 102.61 72.6999 102.61Z" fill="#263238"/>
<path d="M60.7195 88.0051C60.9965 87.6286 61.628 87.6516 61.6425 88.0126C61.657 88.3731 61.738 89.5166 61.7075 90.4236C61.6945 90.8151 61.704 91.3606 61.713 91.8856C61.7215 91.9471 61.7305 92.0081 61.73 92.0716L61.723 92.5981C61.725 92.8576 61.723 93.0866 61.7145 93.2506L61.7065 93.8551C61.699 94.2161 61.6245 94.5721 61.486 94.9056L59.813 97.7631L57.8675 97.7301C56.2605 96.8836 57.333 93.6871 57.333 93.6871L57.6205 91.8561C57.717 91.2401 58.2415 90.7821 58.865 90.7686L60.4135 90.7676L60.416 90.7431C60.4745 90.1031 60.443 88.3821 60.72 88.0056L60.7195 88.0051Z" fill="#B97964"/>
<path d="M85.2777 88.4076C87.2237 89.6861 90.1137 98.4151 85.9637 101.024C81.8137 103.633 71.2232 101.067 70.4212 97.1231C69.9422 94.8301 70.7867 92.4621 72.6082 90.9896C72.6082 90.9896 72.0417 82.3261 76.7352 81.6621C81.4282 80.9986 84.1837 84.6391 84.1837 84.6391C84.1837 84.6391 83.3322 87.1291 85.2782 88.4076H85.2777Z" fill="#263238"/>
<path d="M82.1728 96.8662L79.5828 96.8827L79.5808 96.8842L76.9668 97.5132C76.9578 97.5482 76.9483 97.5837 76.9383 97.6232L76.7203 101.261C76.5933 102.332 75.2358 102.981 74.4783 103.324C74.0173 103.562 72.6808 106.306 74.9788 108.943C75.6558 109.725 77.0733 108.914 77.9973 108.369C81.8588 105.816 82.1718 103.713 82.1718 103.713C81.1613 102.379 81.6333 99.1957 82.1728 96.8662Z" fill="#B97964"/>
<path d="M85.2588 92.0992C83.5273 96.0027 82.8833 97.6852 80.1228 99.0827C75.9688 101.178 71.6133 98.4522 72.1413 94.1577C72.6448 90.3022 75.3668 84.5707 79.8293 84.2342C84.2918 83.8977 86.9893 88.1902 85.2593 92.0992H85.2588Z" fill="#B97964"/>
<path d="M80.7715 90.5135C80.7175 90.5035 80.6695 90.4725 80.641 90.423C80.199 89.6505 79.424 89.6415 79.415 89.6415C79.3 89.6405 79.213 89.549 79.2235 89.4345C79.234 89.32 79.337 89.228 79.454 89.228C79.4945 89.228 80.4675 89.2385 81.016 90.1975C81.0705 90.293 81.031 90.421 80.928 90.4835C80.878 90.5135 80.822 90.5225 80.7715 90.5135Z" fill="#263238"/>
<path d="M74.71 88.0771C74.6735 88.0511 74.649 88.0101 74.645 87.9596C74.6375 87.8556 74.721 87.7521 74.831 87.7276C75.9345 87.4841 76.4985 88.0916 76.522 88.1186C76.5885 88.1921 76.571 88.3141 76.4825 88.3911C76.3945 88.4681 76.2695 88.4706 76.203 88.3976C76.1815 88.3736 75.736 87.9096 74.8585 88.1036C74.8015 88.1161 74.749 88.1051 74.71 88.0771Z" fill="#263238"/>
<path d="M76.5672 90.6665C76.5672 90.6665 75.4357 92.003 74.4072 92.739C74.2277 92.8675 74.2272 93.1345 74.4002 93.2655C74.8452 93.603 75.4902 93.613 75.4902 93.613L76.5677 90.6665H76.5672Z" fill="#A24E3F"/>
<path d="M79.356 90.9261C79.3635 90.9221 79.3695 90.9226 79.377 90.9181L78.51 90.4141C78.51 90.4141 78.635 90.7731 78.8805 90.9286C78.709 91.0361 78.5475 91.2366 78.4535 91.4891C78.2945 91.9151 78.3845 92.3216 78.655 92.3971C78.9255 92.4726 79.274 92.1881 79.4335 91.7621C79.5645 91.4111 79.5245 91.0766 79.356 90.9266V90.9261Z" fill="#263238"/>
<path d="M75.2865 89.6925L75.2915 89.6905L74.4245 89.1865C74.4245 89.1865 74.566 89.59 74.844 89.7255C74.676 89.8295 74.5195 90.021 74.4285 90.263C74.2735 90.676 74.3665 91.0715 74.636 91.1465C74.9055 91.2215 75.2505 90.948 75.4055 90.5355C75.542 90.172 75.486 89.822 75.2865 89.6925Z" fill="#263238"/>
<path d="M75.2949 94.7966C75.4684 95.2921 75.5979 96.2056 75.5979 96.2056C75.6834 96.2071 75.7689 96.2091 75.8549 96.2061C77.0174 96.2006 77.5619 95.8161 77.8129 95.3921C77.9494 95.1596 77.9954 94.9121 78.0064 94.7101C78.0214 94.4771 77.9784 94.3081 77.9784 94.3081C77.3574 94.6771 76.2724 94.7651 75.6914 94.7881C75.4484 94.8001 75.2949 94.7966 75.2949 94.7966Z" fill="#263238"/>
<path d="M75.6914 94.7881L75.7919 95.2011C76.8864 95.1931 77.6589 95.0416 78.0064 94.7101C78.0214 94.4771 77.9784 94.3081 77.9784 94.3081C77.3574 94.6771 76.2724 94.7651 75.6914 94.7881Z" fill="white"/>
<path d="M75.8555 96.2061C77.018 96.2006 77.5625 95.8161 77.8135 95.3921C77.4175 95.4091 76.9405 95.4736 76.5195 95.6526C76.197 95.7881 75.9925 95.9961 75.856 96.2061H75.8555Z" fill="#FD504E"/>
<path d="M81.8501 98.3767C86.0626 96.3907 88.5821 85.7567 81.8776 84.1322C75.1731 82.5077 74.0781 89.6327 74.0781 89.6327C76.5396 81.9392 83.3801 87.1257 83.3801 87.1257C82.4516 89.5097 82.6106 93.1947 82.6106 93.1947C83.2006 95.4942 81.8501 98.3857 81.8506 98.3762L81.8501 98.3767Z" fill="#263238"/>
<path d="M85.2028 84.2206C89.4333 86.6226 87.7623 89.4706 87.7623 89.4706C87.7623 89.4706 90.5118 94.8156 89.3998 98.2066C88.2878 101.598 83.0378 101.978 83.0378 101.978C88.2418 101.385 88.9133 95.5851 83.6738 92.7451C79.3383 90.3966 80.9203 85.5216 80.9203 85.5216C80.9203 85.5216 82.8303 82.8826 85.2028 84.2201V84.2206Z" fill="#263238"/>
<path d="M80.7771 90.275C80.7261 90.275 80.6781 90.2435 80.6596 90.1925C79.2621 86.3365 81.2791 84.9085 81.3656 84.8495C81.4221 84.8105 81.5001 84.825 81.5391 84.882C81.5781 84.939 81.5636 85.0165 81.5066 85.0555C81.4266 85.1105 79.5671 86.444 80.8946 90.1075C80.9181 90.172 80.8846 90.244 80.8196 90.2675C80.8056 90.2725 80.7911 90.275 80.7771 90.275Z" fill="#263238"/>
<path d="M70.6451 98.9136C70.6066 98.9136 70.5686 98.8961 70.5441 98.8626C69.5796 97.5471 69.2246 96.2036 69.4891 94.8696C70.0021 92.2826 72.6306 90.6571 72.7421 90.5891C72.8016 90.5531 72.8781 90.5721 72.9136 90.6306C72.9496 90.6896 72.9311 90.7661 72.8721 90.8021C72.8456 90.8181 70.2246 92.4406 69.7341 94.9191C69.4841 96.1811 69.8251 97.4581 70.7461 98.7141C70.7871 98.7696 70.7751 98.8481 70.7191 98.8891C70.6971 98.9056 70.6711 98.9131 70.6451 98.9131V98.9136Z" fill="#263238"/>
<path d="M85.3879 94.924C84.6354 95.6165 83.6814 95.906 82.9039 95.8695C81.7349 95.8145 81.7354 93.908 82.4539 92.9355C83.1004 92.0605 84.3714 91.735 85.3559 92.265C86.3259 92.787 86.2484 94.1325 85.3879 94.924Z" fill="#B97964"/>
<path opacity="0.2" d="M83.1717 94.1426C83.1562 94.1426 83.1407 94.1396 83.1257 94.1336C83.0617 94.1081 83.0302 94.0356 83.0557 93.9711C83.2192 93.5601 83.5452 93.2201 83.9502 93.0381C84.3562 92.8561 84.8247 92.8401 85.2367 92.9931C85.3012 93.0171 85.3342 93.0891 85.3102 93.1541C85.2857 93.2191 85.2132 93.2516 85.1492 93.2276C84.7982 93.0971 84.3987 93.1111 84.0527 93.2666C83.7062 93.4221 83.4277 93.7131 83.2882 94.0641C83.2687 94.1131 83.2217 94.1431 83.1722 94.1431L83.1717 94.1426Z" fill="black"/>
<path opacity="0.2" d="M56.1997 110.738C56.1997 110.738 55.9327 112.92 54.2617 114.125C54.2617 114.125 58.3667 112.767 57.1887 109.909L56.1997 110.738Z" fill="black"/>
<path d="M55.5723 99.8007L57.2378 97.0747L59.9698 97.4942L59.0283 101.091L55.5723 99.8007Z" fill="#B97964"/>
<path d="M106.272 110.631C103.929 109.34 93.3385 106.177 91.154 105.516C90.766 105.399 90.39 105.316 90.033 105.257C88.9355 104.898 87.726 104.612 86.37 104.422C86.37 104.422 82.813 110.612 82.49 117.066C82.167 123.519 85.637 153.432 85.637 153.432L90.8715 152.109C90.8715 152.109 87.77 133.518 90.0245 114.122L99.774 114.992C99.774 114.992 92.474 121.573 92.3725 121.758L95.8365 125.587C95.8365 125.587 103.619 118.626 105.778 117.194C107.936 115.761 108.31 111.753 106.272 110.631V110.631Z" fill="#263238"/>
<path opacity="0.2" d="M99.7748 114.991C99.7748 114.991 100.705 114.124 102.682 114.316C102.682 114.316 101.317 112.708 98.5703 114.884L99.7748 114.991Z" fill="black"/>
<path d="M91.9269 125.207C91.9269 125.207 90.5484 125.059 89.6644 125.789C88.7804 126.518 88.6284 128.044 88.3149 128.839C87.8369 130.05 89.1284 129.509 89.3804 128.839C89.7364 127.892 89.7369 127.991 89.7369 127.991C89.7779 128.465 88.0534 132.18 88.1849 132.831C88.3164 133.482 88.7834 132.969 88.7834 132.969C88.7834 132.969 88.3889 133.882 88.7079 134.137C88.7909 134.203 89.0909 134.223 89.3359 133.835C89.8869 132.962 90.9499 131.07 90.9499 131.07C90.8864 131.177 89.7419 133.606 89.6179 133.992C89.4559 134.496 89.6369 134.817 89.9324 134.901C90.3534 135.021 91.8754 132.058 92.0269 131.978C92.0269 131.978 91.0934 133.655 91.3944 134.133C91.6954 134.611 92.3404 133.587 92.7379 132.577C93.1019 131.651 93.5009 129.904 93.7799 128.926C94.1239 127.722 94.6424 126.861 93.7474 126.1C92.8524 125.34 91.9269 125.207 91.9269 125.207Z" fill="#B97964"/>
<path d="M91.0023 125.456C91.1028 125.389 93.1438 122.579 93.1438 122.579L95.7203 125.456L93.9133 126.761C93.9133 126.761 90.6008 125.389 90.8018 125.423" fill="#B97964"/>
</svg>
