<svg width="296" height="245" viewBox="0 0 296 245" fill="none" xmlns="http://www.w3.org/2000/svg">
<path d="M100.813 135.093H36.709L41.4471 78.438H106.095L100.813 135.093Z" fill="#F5F5F5"/>
<path d="M43.7543 125.585C43.6981 125.577 44.3608 117.057 45.234 106.557C46.1076 96.0532 46.8612 87.5464 46.9179 87.5537C46.9741 87.561 46.3118 96.0791 45.4378 106.583C44.5646 117.083 43.8106 125.591 43.7543 125.585Z" fill="#E0E0E0"/>
<path d="M55.4273 89.4487C55.4273 89.5189 53.9865 89.5755 52.2095 89.5755C50.432 89.5755 48.9912 89.5184 48.9912 89.4487C48.9912 89.3784 50.4316 89.3218 52.2095 89.3218C53.9865 89.3218 55.4273 89.3784 55.4273 89.4487Z" fill="#E0E0E0"/>
<path d="M82.808 89.4487C82.808 89.5189 77.0688 89.5755 69.9912 89.5755C62.9108 89.5755 57.1729 89.5184 57.1729 89.4487C57.1729 89.3784 62.9108 89.3218 69.9912 89.3218C77.0688 89.3218 82.808 89.3784 82.808 89.4487Z" fill="#E0E0E0"/>
<path d="M54.6685 109.582C54.6685 109.652 53.2278 109.709 51.4507 109.709C49.6732 109.709 48.2324 109.652 48.2324 109.582C48.2324 109.512 49.6728 109.455 51.4507 109.455C53.2278 109.455 54.6685 109.512 54.6685 109.582Z" fill="#E0E0E0"/>
<path d="M82.0492 109.582C82.0492 109.652 76.31 109.709 69.2324 109.709C62.152 109.709 56.4141 109.652 56.4141 109.582C56.4141 109.512 62.152 109.455 69.2324 109.455C76.31 109.455 82.0492 109.512 82.0492 109.582Z" fill="#E0E0E0"/>
<path d="M73.3167 118.863C73.3167 118.933 67.5776 118.99 60.5 118.99C53.4196 118.99 47.6816 118.933 47.6816 118.863C47.6816 118.793 53.4196 118.736 60.5 118.736C67.5776 118.736 73.3167 118.793 73.3167 118.863Z" fill="#E0E0E0"/>
<path d="M58.2631 95.1327C58.2631 95.203 56.2363 95.2596 53.7362 95.2596C51.2354 95.2596 49.209 95.2025 49.209 95.1327C49.209 95.0625 51.2354 95.0059 53.7362 95.0059C56.2363 95.0059 58.2631 95.0625 58.2631 95.1327Z" fill="#E0E0E0"/>
<path d="M58.0327 103.466C58.0327 103.537 56.0058 103.593 53.5058 103.593C51.005 103.593 48.9785 103.536 48.9785 103.466C48.9785 103.396 51.005 103.34 53.5058 103.34C56.0054 103.339 58.0327 103.396 58.0327 103.466Z" fill="#E0E0E0"/>
<path d="M65.687 115.376C65.687 115.446 63.6601 115.503 61.1601 115.503C58.6593 115.503 56.6328 115.446 56.6328 115.376C56.6328 115.306 58.6593 115.249 61.1601 115.249C63.6601 115.249 65.687 115.306 65.687 115.376Z" fill="#E0E0E0"/>
<path d="M91.2011 95.1327C91.2011 95.203 86.0224 95.2596 79.6363 95.2596C73.2478 95.2596 68.0703 95.2025 68.0703 95.1327C68.0703 95.0625 73.2478 95.0059 79.6363 95.0059C86.0228 95.0059 91.2011 95.0625 91.2011 95.1327Z" fill="#E0E0E0"/>
<path d="M84.0624 103.949C84.0624 104.019 78.8838 104.076 72.4976 104.076C66.1091 104.076 60.9316 104.019 60.9316 103.949C60.9316 103.879 66.1091 103.822 72.4976 103.822C78.8842 103.822 84.0624 103.879 84.0624 103.949Z" fill="#E0E0E0"/>
<path d="M92.0224 115.376C92.0224 115.446 86.8441 115.503 80.4576 115.503C74.069 115.503 68.8916 115.446 68.8916 115.376C68.8916 115.306 74.069 115.249 80.4576 115.249C86.8441 115.249 92.0224 115.306 92.0224 115.376Z" fill="#E0E0E0"/>
<path d="M70.9022 125.585C70.9022 125.655 65.724 125.712 59.3375 125.712C52.9489 125.712 47.7715 125.654 47.7715 125.585C47.7715 125.514 52.9489 125.458 59.3375 125.458C65.7236 125.457 70.9022 125.514 70.9022 125.585Z" fill="#E0E0E0"/>
<path d="M96.4823 125.585C96.4823 125.655 91.3037 125.712 84.9175 125.712C78.529 125.712 73.3516 125.654 73.3516 125.585C73.3516 125.514 78.529 125.458 84.9175 125.458C91.3037 125.457 96.4823 125.514 96.4823 125.585Z" fill="#E0E0E0"/>
<path d="M70.9003 128.905C70.9003 128.976 65.7221 129.032 59.3355 129.032C52.947 129.032 47.7695 128.975 47.7695 128.905C47.7695 128.836 52.947 128.779 59.3355 128.779C65.7221 128.779 70.9003 128.836 70.9003 128.905Z" fill="#E0E0E0"/>
<path d="M72.0263 97.5256C72.0263 97.5958 66.8476 97.6524 60.4615 97.6524C54.073 97.6524 48.8955 97.5953 48.8955 97.5256C48.8955 97.4553 54.073 97.3987 60.4615 97.3987C66.848 97.3987 72.0263 97.4553 72.0263 97.5256Z" fill="#E0E0E0"/>
<path d="M65.8576 95.164C65.8576 95.2343 64.5238 95.2909 62.8785 95.2909C61.2328 95.2909 59.8994 95.2338 59.8994 95.164C59.8994 95.0942 61.2328 95.0371 62.8785 95.0371C64.5238 95.0366 65.8576 95.0937 65.8576 95.164Z" fill="#E0E0E0"/>
<path d="M53.9113 112.318C53.9113 112.389 52.5775 112.445 50.9322 112.445C49.2865 112.445 47.9531 112.388 47.9531 112.318C47.9531 112.248 49.2869 112.191 50.9322 112.191C52.5775 112.191 53.9113 112.248 53.9113 112.318Z" fill="#E0E0E0"/>
<path d="M53.7697 115.376C53.7697 115.446 52.4359 115.503 50.7906 115.503C49.1449 115.503 47.8115 115.446 47.8115 115.376C47.8115 115.306 49.1453 115.249 50.7906 115.249C52.4359 115.249 53.7697 115.306 53.7697 115.376Z" fill="#E0E0E0"/>
<path d="M105.389 84.4291C105.389 84.4994 90.9721 84.556 73.1926 84.556C55.4065 84.556 40.9932 84.4989 40.9932 84.4291C40.9932 84.3593 55.4069 84.3022 73.1926 84.3022C90.9725 84.3022 105.389 84.3589 105.389 84.4291Z" fill="#E0E0E0"/>
<path d="M45.3363 82.6742C45.7577 82.6742 46.0994 82.2503 46.0994 81.7275C46.0994 81.2046 45.7577 80.7808 45.3363 80.7808C44.9149 80.7808 44.5732 81.2046 44.5732 81.7275C44.5732 82.2503 44.9149 82.6742 45.3363 82.6742Z" fill="white"/>
<path d="M48.6137 82.6742C49.0351 82.6742 49.3767 82.2503 49.3767 81.7275C49.3767 81.2046 49.0351 80.7808 48.6137 80.7808C48.1922 80.7808 47.8506 81.2046 47.8506 81.7275C47.8506 82.2503 48.1922 82.6742 48.6137 82.6742Z" fill="white"/>
<path d="M51.891 82.6742C52.3124 82.6742 52.6541 82.2503 52.6541 81.7275C52.6541 81.2046 52.3124 80.7808 51.891 80.7808C51.4696 80.7808 51.1279 81.2046 51.1279 81.7275C51.1279 82.2503 51.4696 82.6742 51.891 82.6742Z" fill="white"/>
<path d="M267.269 106.765H203.165L207.903 50.1111H272.551L267.269 106.765Z" fill="#F5F5F5"/>
<path d="M210.211 97.2571C210.155 97.2498 210.818 88.7298 211.691 78.2295C212.565 67.7258 213.319 59.219 213.375 59.2263C213.431 59.2336 212.769 67.7517 211.895 78.2554C211.021 88.7562 210.268 97.2645 210.211 97.2571Z" fill="#E0E0E0"/>
<path d="M221.883 61.1213C221.883 61.1915 220.443 61.2481 218.666 61.2481C216.888 61.2481 215.447 61.191 215.447 61.1213C215.447 61.051 216.888 60.9944 218.666 60.9944C220.443 60.9944 221.883 61.0515 221.883 61.1213Z" fill="#E0E0E0"/>
<path d="M249.264 61.1213C249.264 61.1915 243.525 61.2481 236.447 61.2481C229.367 61.2481 223.629 61.191 223.629 61.1213C223.629 61.051 229.367 60.9944 236.447 60.9944C243.525 60.9944 249.264 61.0515 249.264 61.1213Z" fill="#E0E0E0"/>
<path d="M221.125 81.2551C221.125 81.3253 219.684 81.3819 217.907 81.3819C216.129 81.3819 214.688 81.3248 214.688 81.2551C214.688 81.1848 216.129 81.1282 217.907 81.1282C219.684 81.1277 221.125 81.1848 221.125 81.2551Z" fill="#E0E0E0"/>
<path d="M248.505 81.2551C248.505 81.3253 242.766 81.3819 235.688 81.3819C228.608 81.3819 222.87 81.3248 222.87 81.2551C222.87 81.1848 228.608 81.1282 235.688 81.1282C242.766 81.1277 248.505 81.1848 248.505 81.2551Z" fill="#E0E0E0"/>
<path d="M239.773 90.5363C239.773 90.6066 234.034 90.6637 226.956 90.6637C219.876 90.6637 214.138 90.6066 214.138 90.5363C214.138 90.466 219.876 90.4094 226.956 90.4094C234.034 90.4089 239.773 90.466 239.773 90.5363Z" fill="#E0E0E0"/>
<path d="M224.719 66.8053C224.719 66.8756 222.692 66.9322 220.192 66.9322C217.691 66.9322 215.665 66.8751 215.665 66.8053C215.665 66.7356 217.691 66.6785 220.192 66.6785C222.692 66.6785 224.719 66.7356 224.719 66.8053Z" fill="#E0E0E0"/>
<path d="M224.489 75.1391C224.489 75.2094 222.462 75.2665 219.962 75.2665C217.461 75.2665 215.435 75.2094 215.435 75.1391C215.435 75.0688 217.461 75.0122 219.962 75.0122C222.462 75.0122 224.489 75.0693 224.489 75.1391Z" fill="#E0E0E0"/>
<path d="M232.143 87.0492C232.143 87.1195 230.116 87.1761 227.616 87.1761C225.115 87.1761 223.089 87.119 223.089 87.0492C223.089 86.979 225.115 86.9224 227.616 86.9224C230.116 86.9219 232.143 86.979 232.143 87.0492Z" fill="#E0E0E0"/>
<path d="M257.657 66.8053C257.657 66.8756 252.479 66.9322 246.092 66.9322C239.704 66.9322 234.526 66.8751 234.526 66.8053C234.526 66.7356 239.704 66.6785 246.092 66.6785C252.479 66.6785 257.657 66.7356 257.657 66.8053Z" fill="#E0E0E0"/>
<path d="M250.518 75.6222C250.518 75.6925 245.34 75.7491 238.954 75.7491C232.565 75.7491 227.388 75.692 227.388 75.6222C227.388 75.552 232.565 75.4954 238.954 75.4954C245.34 75.4949 250.518 75.552 250.518 75.6222Z" fill="#E0E0E0"/>
<path d="M258.478 87.0492C258.478 87.1195 253.3 87.1761 246.914 87.1761C240.525 87.1761 235.348 87.119 235.348 87.0492C235.348 86.979 240.525 86.9224 246.914 86.9224C253.3 86.9219 258.478 86.979 258.478 87.0492Z" fill="#E0E0E0"/>
<path d="M237.358 97.2572C237.358 97.3275 232.18 97.3846 225.793 97.3846C219.405 97.3846 214.228 97.3275 214.228 97.2572C214.228 97.187 219.405 97.1304 225.793 97.1304C232.18 97.1304 237.358 97.187 237.358 97.2572Z" fill="#E0E0E0"/>
<path d="M262.938 97.2572C262.938 97.3275 257.76 97.3846 251.374 97.3846C244.985 97.3846 239.808 97.3275 239.808 97.2572C239.808 97.187 244.985 97.1304 251.374 97.1304C257.76 97.1304 262.938 97.187 262.938 97.2572Z" fill="#E0E0E0"/>
<path d="M237.356 100.579C237.356 100.649 232.178 100.705 225.792 100.705C219.403 100.705 214.226 100.648 214.226 100.579C214.226 100.508 219.403 100.452 225.792 100.452C232.178 100.451 237.356 100.508 237.356 100.579Z" fill="#E0E0E0"/>
<path d="M238.482 69.1982C238.482 69.2684 233.304 69.3251 226.918 69.3251C220.529 69.3251 215.352 69.268 215.352 69.1982C215.352 69.1284 220.529 69.0713 226.918 69.0713C233.304 69.0713 238.482 69.1284 238.482 69.1982Z" fill="#E0E0E0"/>
<path d="M232.314 66.8366C232.314 66.9069 230.98 66.9635 229.336 66.9635C227.69 66.9635 226.356 66.9069 226.356 66.8366C226.356 66.7663 227.69 66.7097 229.336 66.7097C230.98 66.7097 232.314 66.7663 232.314 66.8366Z" fill="#E0E0E0"/>
<path d="M220.367 83.9909C220.367 84.0612 219.033 84.1178 217.388 84.1178C215.743 84.1178 214.409 84.0607 214.409 83.9909C214.409 83.9211 215.743 83.864 217.388 83.864C219.033 83.864 220.367 83.9211 220.367 83.9909Z" fill="#E0E0E0"/>
<path d="M220.226 87.0492C220.226 87.1195 218.893 87.1761 217.248 87.1761C215.602 87.1761 214.269 87.119 214.269 87.0492C214.269 86.979 215.602 86.9224 217.248 86.9224C218.893 86.9219 220.226 86.979 220.226 87.0492Z" fill="#E0E0E0"/>
<path d="M271.845 56.1022C271.845 56.1725 257.428 56.2291 239.649 56.2291C221.863 56.2291 207.449 56.172 207.449 56.1022C207.449 56.032 221.863 55.9753 239.649 55.9753C257.429 55.9749 271.845 56.032 271.845 56.1022Z" fill="#E0E0E0"/>
<path d="M211.792 54.3473C212.214 54.3473 212.555 53.9234 212.555 53.4006C212.555 52.8777 212.214 52.4539 211.792 52.4539C211.371 52.4539 211.029 52.8777 211.029 53.4006C211.029 53.9234 211.371 54.3473 211.792 54.3473Z" fill="white"/>
<path d="M215.07 54.3473C215.491 54.3473 215.833 53.9234 215.833 53.4006C215.833 52.8777 215.491 52.4539 215.07 52.4539C214.648 52.4539 214.307 52.8777 214.307 53.4006C214.307 53.9234 214.648 54.3473 215.07 54.3473Z" fill="white"/>
<path d="M218.347 54.3473C218.768 54.3473 219.11 53.9234 219.11 53.4006C219.11 52.8777 218.768 52.4539 218.347 52.4539C217.926 52.4539 217.584 52.8777 217.584 53.4006C217.584 53.9234 217.926 54.3473 218.347 54.3473Z" fill="white"/>
<path d="M132.814 69.7726H92.8887L95.8395 34.4868H136.105L132.814 69.7726Z" fill="#EBEBEB"/>
<path d="M97.2768 63.8509C97.2206 63.8435 97.6159 58.5351 98.1599 51.9954C98.7038 45.4533 99.1908 40.1575 99.247 40.1648C99.3033 40.1721 98.908 45.4796 98.3636 52.0217C97.8196 58.5614 97.3327 63.8582 97.2768 63.8509Z" fill="#E0E0E0"/>
<path d="M104.547 41.3449C104.547 41.4152 103.649 41.4718 102.543 41.4718C101.435 41.4718 100.538 41.4147 100.538 41.3449C100.538 41.2751 101.435 41.218 102.543 41.218C103.649 41.2175 104.547 41.2746 104.547 41.3449Z" fill="#E0E0E0"/>
<path d="M121.6 41.3449C121.6 41.4152 118.025 41.4718 113.617 41.4718C109.208 41.4718 105.634 41.4147 105.634 41.3449C105.634 41.2751 109.208 41.218 113.617 41.218C118.025 41.2175 121.6 41.2746 121.6 41.3449Z" fill="#E0E0E0"/>
<path d="M104.074 53.8844C104.074 53.9547 103.176 54.0113 102.07 54.0113C100.963 54.0113 100.065 53.9542 100.065 53.8844C100.065 53.8142 100.963 53.7576 102.07 53.7576C103.176 53.7576 104.074 53.8142 104.074 53.8844Z" fill="#E0E0E0"/>
<path d="M121.127 53.8844C121.127 53.9547 117.553 54.0113 113.145 54.0113C108.735 54.0113 105.161 53.9542 105.161 53.8844C105.161 53.8142 108.735 53.7576 113.145 53.7576C117.553 53.7576 121.127 53.8142 121.127 53.8844Z" fill="#E0E0E0"/>
<path d="M115.689 59.6652C115.689 59.7355 112.114 59.7921 107.706 59.7921C103.296 59.7921 99.7227 59.735 99.7227 59.6652C99.7227 59.5949 103.296 59.5383 107.706 59.5383C112.114 59.5378 115.689 59.5949 115.689 59.6652Z" fill="#E0E0E0"/>
<path d="M106.313 44.8847C106.313 44.955 105.05 45.0116 103.494 45.0116C101.936 45.0116 100.674 44.9545 100.674 44.8847C100.674 44.8144 101.936 44.7578 103.494 44.7578C105.05 44.7578 106.313 44.8149 106.313 44.8847Z" fill="#E0E0E0"/>
<path d="M106.169 50.0751C106.169 50.1454 104.907 50.202 103.35 50.202C101.792 50.202 100.53 50.1449 100.53 50.0751C100.53 50.0048 101.792 49.9482 103.35 49.9482C104.907 49.9482 106.169 50.0053 106.169 50.0751Z" fill="#E0E0E0"/>
<path d="M110.937 57.4931C110.937 57.5634 109.674 57.62 108.118 57.62C106.56 57.62 105.298 57.5629 105.298 57.4931C105.298 57.4228 106.56 57.3662 108.118 57.3662C109.675 57.3662 110.937 57.4228 110.937 57.4931Z" fill="#E0E0E0"/>
<path d="M126.828 44.8847C126.828 44.955 123.602 45.0116 119.624 45.0116C115.645 45.0116 112.421 44.9545 112.421 44.8847C112.421 44.8144 115.645 44.7578 119.624 44.7578C123.602 44.7578 126.828 44.8149 126.828 44.8847Z" fill="#E0E0E0"/>
<path d="M122.381 50.3762C122.381 50.4464 119.156 50.503 115.178 50.503C111.199 50.503 107.975 50.4459 107.975 50.3762C107.975 50.3059 111.199 50.2493 115.178 50.2493C119.156 50.2488 122.381 50.3059 122.381 50.3762Z" fill="#E0E0E0"/>
<path d="M127.339 57.4931C127.339 57.5634 124.114 57.62 120.136 57.62C116.157 57.62 112.933 57.5629 112.933 57.4931C112.933 57.4228 116.157 57.3662 120.136 57.3662C124.114 57.3662 127.339 57.4228 127.339 57.4931Z" fill="#E0E0E0"/>
<path d="M114.185 63.8508C114.185 63.921 110.96 63.9776 106.982 63.9776C103.003 63.9776 99.7783 63.9205 99.7783 63.8508C99.7783 63.781 103.003 63.7239 106.982 63.7239C110.96 63.7239 114.185 63.781 114.185 63.8508Z" fill="#E0E0E0"/>
<path d="M130.117 63.8508C130.117 63.921 126.891 63.9776 122.913 63.9776C118.935 63.9776 115.71 63.9205 115.71 63.8508C115.71 63.781 118.935 63.7239 122.913 63.7239C126.891 63.7239 130.117 63.781 130.117 63.8508Z" fill="#E0E0E0"/>
<path d="M114.184 65.9196C114.184 65.9899 110.959 66.0465 106.981 66.0465C103.002 66.0465 99.7773 65.9894 99.7773 65.9196C99.7773 65.8493 103.002 65.7927 106.981 65.7927C110.959 65.7927 114.184 65.8498 114.184 65.9196Z" fill="#E0E0E0"/>
<path d="M114.885 46.3752C114.885 46.4454 111.66 46.502 107.682 46.502C103.703 46.502 100.479 46.445 100.479 46.3752C100.479 46.3054 103.703 46.2483 107.682 46.2483C111.66 46.2483 114.885 46.3049 114.885 46.3752Z" fill="#E0E0E0"/>
<path d="M111.043 44.9042C111.043 44.9745 110.212 45.0311 109.187 45.0311C108.162 45.0311 107.332 44.974 107.332 44.9042C107.332 44.834 108.163 44.7773 109.187 44.7773C110.212 44.7773 111.043 44.834 111.043 44.9042Z" fill="#E0E0E0"/>
<path d="M103.602 55.5886C103.602 55.6588 102.772 55.7154 101.747 55.7154C100.722 55.7154 99.8916 55.6583 99.8916 55.5886C99.8916 55.5183 100.722 55.4617 101.747 55.4617C102.772 55.4617 103.602 55.5183 103.602 55.5886Z" fill="#E0E0E0"/>
<path d="M103.515 57.4931C103.515 57.5634 102.685 57.62 101.66 57.62C100.635 57.62 99.8047 57.5629 99.8047 57.4931C99.8047 57.4228 100.635 57.3662 101.66 57.3662C102.684 57.3662 103.515 57.4228 103.515 57.4931Z" fill="#E0E0E0"/>
<path d="M135.664 38.2182C135.664 38.2885 126.685 38.3451 115.612 38.3451C104.534 38.3451 95.5566 38.288 95.5566 38.2182C95.5566 38.1479 104.534 38.0913 115.612 38.0913C126.685 38.0913 135.664 38.1484 135.664 38.2182Z" fill="#E0E0E0"/>
<path d="M98.7374 36.5355C98.7374 36.861 98.5246 37.1251 98.2623 37.1251C97.9999 37.1251 97.7871 36.861 97.7871 36.5355C97.7871 36.2101 97.9999 35.946 98.2623 35.946C98.5246 35.946 98.7374 36.2101 98.7374 36.5355Z" fill="white"/>
<path d="M100.778 36.5355C100.778 36.861 100.566 37.1251 100.303 37.1251C100.041 37.1251 99.8281 36.861 99.8281 36.5355C99.8281 36.2101 100.041 35.946 100.303 35.946C100.566 35.946 100.778 36.2101 100.778 36.5355Z" fill="white"/>
<path d="M102.819 36.5355C102.819 36.861 102.607 37.1251 102.344 37.1251C102.082 37.1251 101.869 36.861 101.869 36.5355C101.869 36.2101 102.082 35.946 102.344 35.946C102.607 35.946 102.819 36.2101 102.819 36.5355Z" fill="white"/>
<path d="M241.327 131.354H221.22V212.097H241.327V131.354Z" fill="#EBEBEB"/>
<path d="M258.397 131.368H241.327V212.083H258.397V131.368Z" fill="#E0E0E0"/>
<path d="M238.923 134.624H222.791V152.018H238.923V134.624Z" fill="#E0E0E0"/>
<path d="M238.923 153.989H222.791V171.383H238.923V153.989Z" fill="#E0E0E0"/>
<path d="M238.923 173.354H222.791V190.747H238.923V173.354Z" fill="#E0E0E0"/>
<path d="M238.923 192.718H222.791V210.113H238.923V192.718Z" fill="#E0E0E0"/>
<path d="M230.857 137.836C230.857 138.22 230.606 138.531 230.296 138.531C229.987 138.531 229.736 138.219 229.736 137.836C229.736 137.452 229.987 137.141 230.296 137.141C230.606 137.14 230.857 137.452 230.857 137.836Z" fill="#FAFAFA"/>
<path d="M230.857 157.426C230.857 157.81 230.606 158.121 230.296 158.121C229.987 158.121 229.736 157.809 229.736 157.426C229.736 157.042 229.987 156.731 230.296 156.731C230.606 156.731 230.857 157.042 230.857 157.426Z" fill="#FAFAFA"/>
<path d="M230.857 177.016C230.857 177.4 230.606 177.711 230.296 177.711C229.987 177.711 229.736 177.4 229.736 177.016C229.736 176.632 229.987 176.321 230.296 176.321C230.606 176.321 230.857 176.632 230.857 177.016Z" fill="#FAFAFA"/>
<path d="M230.857 196.606C230.857 196.99 230.606 197.301 230.296 197.301C229.987 197.301 229.736 196.99 229.736 196.606C229.736 196.222 229.987 195.911 230.296 195.911C230.606 195.911 230.857 196.222 230.857 196.606Z" fill="#FAFAFA"/>
<path d="M223.544 212.097H221.22V228.292H223.544V212.097Z" fill="#E0E0E0"/>
<path d="M241.246 212.097H238.922V228.292H241.246V212.097Z" fill="#E0E0E0"/>
<path d="M258.147 212.097H255.823V228.292H258.147V212.097Z" fill="#E0E0E0"/>
<path d="M52.3081 223.725C51.7122 223.094 50.3823 221.094 51.4078 218.767C51.7838 217.914 52.5819 217.493 53.3048 217.117C54.0274 216.741 54.7869 216.415 55.3848 215.786C56.5124 214.601 56.8236 212.633 57.5721 211.052C58.4315 209.238 60.0355 207.878 61.73 207.973C63.6707 208.082 65.2893 210.04 66.0229 212.272C66.7564 214.503 66.782 216.982 66.7973 219.392C66.8056 220.725 66.7576 222.227 65.9654 223.127C65.235 223.957 64.1352 223.967 63.1452 223.929C59.6103 223.795 56.0751 223.661 52.5398 223.527" fill="#F5F5F5"/>
<path d="M72.5926 187.709H44.7021L49.7262 224.706C49.9461 226.321 50.8924 227.567 52.1074 228C52.1397 228.012 52.1727 228.021 52.205 228.033C52.288 228.059 52.3682 228.094 52.4532 228.112C52.6369 228.159 52.8272 228.183 53.0204 228.192C53.0219 228.204 53.0235 228.216 53.0251 228.228L53.1612 228.201H53.162H65.5921C65.8257 228.201 66.0542 228.172 66.2749 228.117C67.7428 227.837 68.9177 226.382 69.0967 224.501L71.5184 199.01L71.6278 197.997H71.6148L72.5741 187.901L72.5926 187.709ZM67.331 211.309H64.4687L64.7574 200.571H68.0736L67.331 211.309ZM68.3517 200.571H71.0921L70.0718 211.309H67.6087L68.3517 200.571ZM60.1747 223.211L60.0008 213.883H64.1226L63.8716 223.211H60.1747ZM55.7186 213.883H59.7235L59.8974 223.211H56.3055L55.7186 213.883ZM56.0282 223.211H52.6703C52.3513 220.693 51.9359 217.42 51.4864 213.883H55.4409L56.0282 223.211ZM55.5566 211.309L54.8808 200.571H59.4754L59.6756 211.309H55.5566ZM59.9525 211.309L59.7523 200.571H64.4805L64.1918 211.309H59.9525ZM59.7043 197.997L59.519 188.053H64.8172L64.5497 197.997H59.7043ZM59.4274 197.997H54.7188L54.093 188.053H59.2417L59.4274 197.997ZM54.4415 197.997H49.4595C49.2833 196.623 49.1157 195.323 48.9647 194.154C48.4451 190.133 48.2496 188.622 48.1411 188.053H53.8153L54.4415 197.997ZM54.6035 200.571L55.2793 211.309H51.1595C51.021 210.219 50.8806 209.117 50.7402 208.014C50.4173 205.48 50.094 202.946 49.7899 200.571H54.6035ZM50.8791 211.309H48.1875L46.7294 200.571H49.5091C49.9339 203.89 50.4051 207.583 50.8791 211.309ZM51.2063 213.883C51.6166 217.111 52.0205 220.294 52.3899 223.211H49.8037L48.5368 213.883H51.2063ZM64.1485 223.211L64.3995 213.883H67.1528L66.5074 223.211H64.1485ZM64.827 197.997L65.0945 188.053H68.9401L68.2522 197.997H64.827ZM47.8775 188.053C47.9881 188.772 48.497 192.685 49.1791 197.997H46.3797L45.0294 188.053H47.8775ZM68.9409 223.211H66.7855L67.4309 213.883H69.8275L68.9409 223.211ZM71.3363 197.997H68.5295L69.2174 188.053H72.2807L71.3363 197.997Z" fill="#E0E0E0"/>
<path d="M256.408 228.293C256.408 228.363 205.504 228.42 142.725 228.42C79.9247 228.42 29.0312 228.362 29.0312 228.293C29.0312 228.223 79.9243 228.166 142.725 228.166C205.504 228.165 256.408 228.222 256.408 228.293Z" fill="#263238"/>
<path d="M156.164 122.731H112.542L115.766 84.179H159.759L156.164 122.731Z" fill="#263238"/>
<path d="M153.943 122.731H110.321L113.545 84.179H157.538L153.943 122.731Z" fill="#455A64"/>
<path d="M152.326 120.986H111.848L114.84 85.2122H155.661L152.326 120.986Z" fill="#F5F5F5"/>
<path d="M116.235 115.02C116.179 115.013 116.58 109.631 117.132 103.001C117.683 96.3683 118.176 90.9988 118.232 91.0061C118.288 91.0134 117.887 96.3941 117.335 103.027C116.783 109.657 116.291 115.027 116.235 115.02Z" fill="#263238"/>
<path d="M123.605 92.2026C123.605 92.2728 122.695 92.3294 121.573 92.3294C120.45 92.3294 119.541 92.2724 119.541 92.2026C119.541 92.1323 120.451 92.0757 121.573 92.0757C122.695 92.0752 123.605 92.1323 123.605 92.2026Z" fill="#263238"/>
<path d="M140.893 92.2026C140.893 92.2728 137.27 92.3294 132.8 92.3294C128.329 92.3294 124.706 92.2724 124.706 92.2026C124.706 92.1323 128.329 92.0757 132.8 92.0757C137.27 92.0752 140.893 92.1323 140.893 92.2026Z" fill="#4F48EC"/>
<path d="M123.125 104.915C123.125 104.986 122.216 105.042 121.093 105.042C119.971 105.042 119.062 104.985 119.062 104.915C119.062 104.845 119.971 104.789 121.093 104.789C122.216 104.789 123.125 104.845 123.125 104.915Z" fill="#263238"/>
<path d="M140.415 104.915C140.415 104.986 136.792 105.042 132.322 105.042C127.852 105.042 124.229 104.985 124.229 104.915C124.229 104.845 127.852 104.789 132.322 104.789C136.791 104.789 140.415 104.845 140.415 104.915Z" fill="#4F48EC"/>
<path d="M134.901 110.776C134.901 110.846 131.277 110.903 126.808 110.903C122.337 110.903 118.714 110.846 118.714 110.776C118.714 110.706 122.337 110.649 126.808 110.649C131.277 110.649 134.901 110.706 134.901 110.776Z" fill="#4F48EC"/>
<path d="M125.396 95.7919C125.396 95.8622 124.116 95.9188 122.537 95.9188C120.958 95.9188 119.679 95.8617 119.679 95.7919C119.679 95.7221 120.958 95.665 122.537 95.665C124.116 95.6646 125.396 95.7217 125.396 95.7919Z" fill="#4F48EC"/>
<path d="M125.25 101.054C125.25 101.124 123.97 101.181 122.392 101.181C120.813 101.181 119.533 101.124 119.533 101.054C119.533 100.984 120.813 100.927 122.392 100.927C123.97 100.927 125.25 100.984 125.25 101.054Z" fill="#4F48EC"/>
<path d="M130.083 108.574C130.083 108.644 128.803 108.701 127.225 108.701C125.646 108.701 124.366 108.644 124.366 108.574C124.366 108.504 125.646 108.447 127.225 108.447C128.803 108.447 130.083 108.504 130.083 108.574Z" fill="#4F48EC"/>
<path d="M146.194 95.7919C146.194 95.8622 142.924 95.9188 138.891 95.9188C134.857 95.9188 131.588 95.8617 131.588 95.7919C131.588 95.7221 134.857 95.665 138.891 95.665C142.924 95.6646 146.194 95.7217 146.194 95.7919Z" fill="#263238"/>
<path d="M141.686 101.359C141.686 101.429 138.416 101.486 134.384 101.486C130.349 101.486 127.08 101.429 127.08 101.359C127.08 101.289 130.349 101.232 134.384 101.232C138.416 101.232 141.686 101.289 141.686 101.359Z" fill="#263238"/>
<path d="M146.712 108.574C146.712 108.644 143.442 108.701 139.409 108.701C135.375 108.701 132.106 108.644 132.106 108.574C132.106 108.504 135.375 108.447 139.409 108.447C143.442 108.447 146.712 108.504 146.712 108.574Z" fill="#263238"/>
<path d="M133.377 115.02C133.377 115.09 130.107 115.147 126.075 115.147C122.04 115.147 118.771 115.09 118.771 115.02C118.771 114.95 122.04 114.893 126.075 114.893C130.107 114.893 133.377 114.95 133.377 115.02Z" fill="#263238"/>
<path d="M149.529 115.02C149.529 115.09 146.259 115.147 142.226 115.147C138.192 115.147 134.923 115.09 134.923 115.02C134.923 114.95 138.192 114.893 142.226 114.893C146.259 114.893 149.529 114.95 149.529 115.02Z" fill="#263238"/>
<path d="M133.375 117.117C133.375 117.187 130.105 117.244 126.073 117.244C122.039 117.244 118.77 117.187 118.77 117.117C118.77 117.047 122.039 116.99 126.073 116.99C130.105 116.99 133.375 117.047 133.375 117.117Z" fill="#263238"/>
<path d="M134.086 97.3027C134.086 97.3729 130.816 97.4295 126.783 97.4295C122.749 97.4295 119.48 97.3724 119.48 97.3027C119.48 97.2324 122.749 97.1758 126.783 97.1758C130.816 97.1753 134.086 97.2324 134.086 97.3027Z" fill="#263238"/>
<path d="M130.191 95.8114C130.191 95.8817 129.349 95.9383 128.31 95.9383C127.271 95.9383 126.429 95.8812 126.429 95.8114C126.429 95.7412 127.271 95.6846 128.31 95.6846C129.349 95.6846 130.191 95.7412 130.191 95.8114Z" fill="#455A64"/>
<path d="M122.648 106.643C122.648 106.713 121.806 106.77 120.767 106.77C119.728 106.77 118.886 106.713 118.886 106.643C118.886 106.573 119.728 106.516 120.767 106.516C121.806 106.516 122.648 106.573 122.648 106.643Z" fill="#455A64"/>
<path d="M122.559 108.574C122.559 108.644 121.717 108.701 120.678 108.701C119.639 108.701 118.797 108.644 118.797 108.574C118.797 108.504 119.639 108.447 120.678 108.447C121.717 108.447 122.559 108.504 122.559 108.574Z" fill="#455A64"/>
<path d="M155.153 89.0331C155.153 89.1034 146.05 89.16 134.823 89.16C123.592 89.16 114.491 89.1029 114.491 89.0331C114.491 88.9629 123.593 88.9062 134.823 88.9062C146.05 88.9062 155.153 88.9629 155.153 89.0331Z" fill="#263238"/>
<path d="M117.716 87.327C117.716 87.6569 117.5 87.9248 117.234 87.9248C116.968 87.9248 116.752 87.6574 116.752 87.327C116.752 86.9972 116.968 86.7292 117.234 86.7292C117.5 86.7292 117.716 86.9972 117.716 87.327Z" fill="white"/>
<path d="M119.784 87.327C119.784 87.6569 119.568 87.9248 119.302 87.9248C119.036 87.9248 118.82 87.6574 118.82 87.327C118.82 86.9972 119.036 86.7292 119.302 86.7292C119.568 86.7292 119.784 86.9972 119.784 87.327Z" fill="white"/>
<path d="M121.853 87.327C121.853 87.6569 121.638 87.9248 121.371 87.9248C121.105 87.9248 120.89 87.6574 120.89 87.327C120.89 86.9972 121.105 86.7292 121.371 86.7292C121.638 86.7292 121.853 86.9972 121.853 87.327Z" fill="white"/>
<path d="M213.47 123.901H167.583L170.975 83.3464H217.251L213.47 123.901Z" fill="#263238"/>
<path d="M211.134 123.901H165.247L168.639 83.3464H214.915L211.134 123.901Z" fill="#455A64"/>
<path d="M209.433 122.065H166.854L170.001 84.4331H212.942L209.433 122.065Z" fill="#EBEBEB"/>
<path d="M171.491 115.222C171.435 115.214 171.86 109.553 172.44 102.579C173.02 95.602 173.536 89.9539 173.593 89.9612C173.649 89.9685 173.224 95.6283 172.644 102.605C172.064 109.579 171.548 115.229 171.491 115.222Z" fill="#263238"/>
<path d="M179.245 91.2194C179.245 91.2897 178.288 91.3463 177.107 91.3463C175.927 91.3463 174.97 91.2892 174.97 91.2194C174.97 91.1496 175.927 91.0925 177.107 91.0925C178.288 91.0925 179.245 91.1491 179.245 91.2194Z" fill="#263238"/>
<path d="M197.432 91.2194C197.432 91.2897 193.62 91.3463 188.918 91.3463C184.215 91.3463 180.404 91.2892 180.404 91.2194C180.404 91.1496 184.216 91.0925 188.918 91.0925C193.62 91.0925 197.432 91.1491 197.432 91.2194Z" fill="#4F48EC"/>
<path d="M178.741 104.592C178.741 104.663 177.784 104.719 176.604 104.719C175.423 104.719 174.466 104.662 174.466 104.592C174.466 104.523 175.423 104.466 176.604 104.466C177.784 104.466 178.741 104.523 178.741 104.592Z" fill="#263238"/>
<path d="M196.928 104.592C196.928 104.663 193.116 104.719 188.414 104.719C183.711 104.719 179.9 104.662 179.9 104.592C179.9 104.523 183.711 104.466 188.414 104.466C193.116 104.466 196.928 104.523 196.928 104.592Z" fill="#4F48EC"/>
<path d="M191.128 110.757C191.128 110.828 187.316 110.884 182.615 110.884C177.912 110.884 174.101 110.827 174.101 110.757C174.101 110.688 177.912 110.631 182.615 110.631C187.316 110.631 191.128 110.687 191.128 110.757Z" fill="#4F48EC"/>
<path d="M181.128 94.995C181.128 95.0653 179.782 95.1219 178.121 95.1219C176.46 95.1219 175.114 95.0648 175.114 94.995C175.114 94.9253 176.46 94.8682 178.121 94.8682C179.782 94.8682 181.128 94.9248 181.128 94.995Z" fill="#4F48EC"/>
<path d="M180.975 100.53C180.975 100.601 179.629 100.657 177.968 100.657C176.307 100.657 174.961 100.6 174.961 100.53C174.961 100.461 176.307 100.404 177.968 100.404C179.629 100.404 180.975 100.46 180.975 100.53Z" fill="#4F48EC"/>
<path d="M186.06 108.441C186.06 108.512 184.714 108.568 183.053 108.568C181.392 108.568 180.046 108.511 180.046 108.441C180.046 108.372 181.392 108.314 183.053 108.314C184.714 108.314 186.06 108.371 186.06 108.441Z" fill="#4F48EC"/>
<path d="M203.007 94.995C203.007 95.0653 199.567 95.1219 195.325 95.1219C191.081 95.1219 187.643 95.0648 187.643 94.995C187.643 94.9253 191.081 94.8682 195.325 94.8682C199.567 94.8682 203.007 94.9248 203.007 94.995Z" fill="#263238"/>
<path d="M198.265 100.851C198.265 100.921 194.825 100.978 190.583 100.978C186.339 100.978 182.9 100.921 182.9 100.851C182.9 100.781 186.339 100.724 190.583 100.724C194.825 100.724 198.265 100.781 198.265 100.851Z" fill="#263238"/>
<path d="M203.552 108.441C203.552 108.512 200.112 108.568 195.87 108.568C191.626 108.568 188.188 108.511 188.188 108.441C188.188 108.372 191.626 108.314 195.87 108.314C200.112 108.314 203.552 108.371 203.552 108.441Z" fill="#263238"/>
<path d="M189.524 115.222C189.524 115.292 186.084 115.348 181.842 115.348C177.599 115.348 174.16 115.291 174.16 115.222C174.16 115.152 177.599 115.095 181.842 115.095C186.085 115.095 189.524 115.151 189.524 115.222Z" fill="#263238"/>
<path d="M206.515 115.222C206.515 115.292 203.075 115.348 198.833 115.348C194.589 115.348 191.15 115.291 191.15 115.222C191.15 115.152 194.589 115.095 198.833 115.095C203.075 115.095 206.515 115.151 206.515 115.222Z" fill="#263238"/>
<path d="M189.523 117.428C189.523 117.498 186.083 117.555 181.841 117.555C177.597 117.555 174.158 117.498 174.158 117.428C174.158 117.358 177.597 117.301 181.841 117.301C186.083 117.301 189.523 117.358 189.523 117.428Z" fill="#263238"/>
<path d="M190.27 96.5844C190.27 96.6547 186.831 96.7113 182.588 96.7113C178.345 96.7113 174.906 96.6542 174.906 96.5844C174.906 96.5141 178.345 96.4575 182.588 96.4575C186.831 96.457 190.27 96.5141 190.27 96.5844Z" fill="#263238"/>
<path d="M186.173 95.0155C186.173 95.0858 185.286 95.1424 184.194 95.1424C183.101 95.1424 182.215 95.0853 182.215 95.0155C182.215 94.9458 183.101 94.8887 184.194 94.8887C185.287 94.8887 186.173 94.9458 186.173 95.0155Z" fill="#455A64"/>
<path d="M178.238 106.41C178.238 106.48 177.351 106.537 176.259 106.537C175.166 106.537 174.28 106.48 174.28 106.41C174.28 106.34 175.166 106.283 176.259 106.283C177.352 106.283 178.238 106.34 178.238 106.41Z" fill="#455A64"/>
<path d="M178.145 108.441C178.145 108.512 177.259 108.568 176.166 108.568C175.073 108.568 174.188 108.511 174.188 108.441C174.188 108.372 175.073 108.314 176.166 108.314C177.259 108.314 178.145 108.371 178.145 108.441Z" fill="#455A64"/>
<path d="M212.431 87.8854C212.431 87.9557 202.855 88.0123 191.045 88.0123C179.231 88.0123 169.657 87.9552 169.657 87.8854C169.657 87.8152 179.231 87.7585 191.045 87.7585C202.855 87.7585 212.431 87.8152 212.431 87.8854Z" fill="#263238"/>
<path d="M173.05 86.091C173.05 86.4384 172.823 86.7195 172.543 86.7195C172.263 86.7195 172.036 86.4379 172.036 86.091C172.036 85.7435 172.263 85.4624 172.543 85.4624C172.823 85.4619 173.05 85.7435 173.05 86.091Z" fill="white"/>
<path d="M175.226 86.091C175.226 86.4384 174.999 86.7195 174.72 86.7195C174.44 86.7195 174.213 86.4379 174.213 86.091C174.213 85.7435 174.44 85.4624 174.72 85.4624C174.999 85.4624 175.226 85.7435 175.226 86.091Z" fill="white"/>
<path d="M177.402 86.091C177.402 86.4384 177.175 86.7195 176.895 86.7195C176.615 86.7195 176.389 86.4379 176.389 86.091C176.389 85.7435 176.616 85.4624 176.895 85.4624C177.175 85.4624 177.402 85.7435 177.402 86.091Z" fill="white"/>
<path d="M187.288 75.8927H143.469L146.707 37.1665H190.898L187.288 75.8927Z" fill="#263238"/>
<path d="M185.056 75.8927H141.237L144.476 37.1665H188.667L185.056 75.8927Z" fill="#455A64"/>
<path d="M183.432 74.1394H142.771L145.777 38.2046H186.782L183.432 74.1394Z" fill="#FAFAFA"/>
<path d="M147.241 68.1087C147.184 68.1013 147.588 62.6953 148.142 56.0351C148.696 49.3724 149.191 43.979 149.247 43.9863C149.304 43.9937 148.9 49.3987 148.346 56.0609C147.792 62.7211 147.296 68.1155 147.241 68.1087Z" fill="#263238"/>
<path d="M154.644 45.1882C154.644 45.2584 153.73 45.315 152.603 45.315C151.475 45.315 150.562 45.2579 150.562 45.1882C150.562 45.1184 151.475 45.0613 152.603 45.0613C153.73 45.0608 154.644 45.1179 154.644 45.1882Z" fill="#263238"/>
<path d="M172.011 45.1882C172.011 45.2584 168.371 45.315 163.882 45.315C159.39 45.315 155.751 45.2579 155.751 45.1882C155.751 45.1184 159.39 45.0613 163.882 45.0613C168.371 45.0608 172.011 45.1179 172.011 45.1882Z" fill="#4F48EC"/>
<path d="M154.162 57.9587C154.162 58.0289 153.248 58.0855 152.121 58.0855C150.994 58.0855 150.08 58.0285 150.08 57.9587C150.08 57.8884 150.994 57.8318 152.121 57.8318C153.248 57.8313 154.162 57.8884 154.162 57.9587Z" fill="#263238"/>
<path d="M171.53 57.9587C171.53 58.0289 167.889 58.0855 163.4 58.0855C158.909 58.0855 155.27 58.0285 155.27 57.9587C155.27 57.8884 158.909 57.8318 163.4 57.8318C167.889 57.8313 171.53 57.8884 171.53 57.9587Z" fill="#4F48EC"/>
<path d="M165.991 63.8454C165.991 63.9157 162.351 63.9723 157.862 63.9723C153.371 63.9723 149.731 63.9152 149.731 63.8454C149.731 63.7756 153.371 63.7185 157.862 63.7185C162.351 63.7185 165.991 63.7751 165.991 63.8454Z" fill="#4F48EC"/>
<path d="M156.443 48.7936C156.443 48.8639 155.157 48.9205 153.572 48.9205C151.986 48.9205 150.7 48.8634 150.7 48.7936C150.7 48.7234 151.986 48.6668 153.572 48.6668C155.157 48.6663 156.443 48.7234 156.443 48.7936Z" fill="#4F48EC"/>
<path d="M156.297 54.079C156.297 54.1493 155.011 54.2059 153.425 54.2059C151.839 54.2059 150.554 54.1488 150.554 54.079C150.554 54.0088 151.839 53.9521 153.425 53.9521C155.011 53.9521 156.297 54.0092 156.297 54.079Z" fill="#4F48EC"/>
<path d="M161.151 61.6335C161.151 61.7037 159.865 61.7608 158.28 61.7608C156.694 61.7608 155.408 61.7037 155.408 61.6335C155.408 61.5632 156.694 61.5066 158.28 61.5066C159.865 61.5066 161.151 61.5637 161.151 61.6335Z" fill="#4F48EC"/>
<path d="M177.335 48.7936C177.335 48.8639 174.05 48.9205 169.999 48.9205C165.947 48.9205 162.663 48.8634 162.663 48.7936C162.663 48.7234 165.947 48.6668 169.999 48.6668C174.05 48.6663 177.335 48.7234 177.335 48.7936Z" fill="#263238"/>
<path d="M172.806 54.3857C172.806 54.4559 169.522 54.5125 165.471 54.5125C161.419 54.5125 158.135 54.4555 158.135 54.3857C158.135 54.3154 161.419 54.2588 165.471 54.2588C169.522 54.2588 172.806 54.3154 172.806 54.3857Z" fill="#263238"/>
<path d="M177.856 61.6335C177.856 61.7037 174.571 61.7608 170.521 61.7608C166.469 61.7608 163.185 61.7037 163.185 61.6335C163.185 61.5632 166.469 61.5066 170.521 61.5066C174.571 61.5066 177.856 61.5637 177.856 61.6335Z" fill="#263238"/>
<path d="M164.46 68.1086C164.46 68.1788 161.175 68.2355 157.124 68.2355C153.072 68.2355 149.788 68.1784 149.788 68.1086C149.788 68.0388 153.072 67.9817 157.124 67.9817C161.175 67.9812 164.46 68.0383 164.46 68.1086Z" fill="#263238"/>
<path d="M180.684 68.1086C180.684 68.1788 177.4 68.2355 173.349 68.2355C169.297 68.2355 166.013 68.1784 166.013 68.1086C166.013 68.0388 169.297 67.9817 173.349 67.9817C177.4 67.9812 180.684 68.0383 180.684 68.1086Z" fill="#263238"/>
<path d="M164.459 70.2148C164.459 70.285 161.174 70.3416 157.123 70.3416C153.071 70.3416 149.787 70.2846 149.787 70.2148C149.787 70.145 153.071 70.0879 157.123 70.0879C161.174 70.0879 164.459 70.145 164.459 70.2148Z" fill="#263238"/>
<path d="M165.172 50.3112C165.172 50.3815 161.888 50.4381 157.837 50.4381C153.785 50.4381 150.501 50.381 150.501 50.3112C150.501 50.2409 153.785 50.1843 157.837 50.1843C161.888 50.1838 165.172 50.2409 165.172 50.3112Z" fill="#263238"/>
<path d="M161.26 48.8132C161.26 48.8834 160.414 48.94 159.37 48.94C158.326 48.94 157.48 48.8829 157.48 48.8132C157.48 48.7429 158.326 48.6863 159.37 48.6863C160.414 48.6863 161.26 48.7429 161.26 48.8132Z" fill="#455A64"/>
<path d="M153.682 59.694C153.682 59.7643 152.836 59.8209 151.793 59.8209C150.749 59.8209 149.903 59.7638 149.903 59.694C149.903 59.6238 150.749 59.5671 151.793 59.5671C152.836 59.5667 153.682 59.6238 153.682 59.694Z" fill="#455A64"/>
<path d="M153.593 61.6335C153.593 61.7037 152.747 61.7608 151.703 61.7608C150.659 61.7608 149.813 61.7037 149.813 61.6335C149.813 61.5632 150.66 61.5066 151.703 61.5066C152.747 61.5066 153.593 61.5637 153.593 61.6335Z" fill="#455A64"/>
<path d="M186.334 42.0046C186.334 42.0748 177.19 42.1314 165.912 42.1314C154.631 42.1314 145.488 42.0744 145.488 42.0046C145.488 41.9348 154.631 41.8777 165.912 41.8777C177.19 41.8772 186.334 41.9343 186.334 42.0046Z" fill="#263238"/>
<path d="M148.244 40.8909C148.511 40.8909 148.727 40.6222 148.727 40.2907C148.727 39.9592 148.511 39.6904 148.244 39.6904C147.976 39.6904 147.76 39.9592 147.76 40.2907C147.76 40.6222 147.976 40.8909 148.244 40.8909Z" fill="white"/>
<path d="M150.323 40.8909C150.59 40.8909 150.806 40.6222 150.806 40.2907C150.806 39.9592 150.59 39.6904 150.323 39.6904C150.055 39.6904 149.839 39.9592 149.839 40.2907C149.839 40.6222 150.055 40.8909 150.323 40.8909Z" fill="white"/>
<path d="M152.401 40.8909C152.668 40.8909 152.885 40.6222 152.885 40.2907C152.885 39.9592 152.668 39.6904 152.401 39.6904C152.134 39.6904 151.917 39.9592 151.917 40.2907C151.917 40.6222 152.134 40.8909 152.401 40.8909Z" fill="white"/>
<path d="M113.053 222.19H109.641V227.968H113.053V222.19Z" fill="#263238"/>
<path d="M131.354 154.771H161.646V152.943H131.354V154.771Z" fill="#263238"/>
<path d="M166.339 154.771L172.021 128.354H148.369L143.224 154.771H166.339Z" fill="#263238"/>
<path d="M144.642 152.771H165.771L170.69 129.574H149.451L144.642 152.771Z" fill="#F5F5F5"/>
<path d="M149.976 134.067L148.667 140.637H162.677L164.171 134.067H149.976Z" fill="#E0E0E0"/>
<path d="M161.216 133.202C161.216 133.272 158.758 133.328 155.728 133.328C152.696 133.328 150.239 133.272 150.239 133.202C150.239 133.131 152.696 133.075 155.728 133.075C158.758 133.075 161.216 133.131 161.216 133.202Z" fill="#455A64"/>
<path d="M154.83 135.324C154.83 135.395 153.84 135.451 152.618 135.451C151.396 135.451 150.406 135.394 150.406 135.324C150.406 135.255 151.396 135.198 152.618 135.198C153.84 135.198 154.83 135.255 154.83 135.324Z" fill="#263238"/>
<path d="M158.378 135.221C158.378 135.291 157.733 135.348 156.938 135.348C156.143 135.348 155.498 135.291 155.498 135.221C155.498 135.151 156.143 135.094 156.938 135.094C157.733 135.094 158.378 135.151 158.378 135.221Z" fill="#263238"/>
<path d="M162.385 136.516C162.385 136.586 159.675 136.642 156.333 136.642C152.99 136.642 150.281 136.585 150.281 136.516C150.281 136.446 152.99 136.389 156.333 136.389C159.675 136.389 162.385 136.445 162.385 136.516Z" fill="#455A64"/>
<path d="M153.953 137.603C153.953 137.673 153.075 137.73 151.992 137.73C150.908 137.73 150.03 137.672 150.03 137.603C150.03 137.533 150.909 137.476 151.992 137.476C153.075 137.476 153.953 137.532 153.953 137.603Z" fill="#4F48EC"/>
<path d="M161.299 139.156C161.299 139.226 158.786 139.283 155.686 139.283C152.585 139.283 150.072 139.226 150.072 139.156C150.072 139.086 152.585 139.029 155.686 139.029C158.785 139.029 161.299 139.086 161.299 139.156Z" fill="#455A64"/>
<path d="M153.036 142.522C153.036 142.593 152.064 142.649 150.866 142.649C149.667 142.649 148.695 142.592 148.695 142.522C148.695 142.453 149.667 142.396 150.866 142.396C152.064 142.395 153.036 142.452 153.036 142.522Z" fill="#455A64"/>
<path d="M156.75 142.543C156.75 142.613 156.086 142.663 155.268 142.655C154.449 142.647 153.787 142.583 153.787 142.513C153.788 142.443 154.451 142.393 155.27 142.401C156.088 142.409 156.751 142.473 156.75 142.543Z" fill="#263238"/>
<path d="M158.837 142.418C158.837 142.489 158.557 142.545 158.211 142.545C157.865 142.545 157.585 142.488 157.585 142.418C157.585 142.349 157.865 142.292 158.211 142.292C158.557 142.292 158.837 142.349 158.837 142.418Z" fill="#263238"/>
<path d="M150.156 143.868C150.156 143.939 149.847 143.995 149.467 143.995C149.087 143.995 148.778 143.939 148.778 143.868C148.778 143.798 149.087 143.741 149.467 143.741C149.848 143.741 150.156 143.799 150.156 143.868Z" fill="#4F48EC"/>
<path d="M154.288 143.868C154.288 143.939 153.55 143.995 152.64 143.995C151.729 143.995 150.991 143.939 150.991 143.868C150.991 143.798 151.729 143.741 152.64 143.741C153.55 143.741 154.288 143.799 154.288 143.868Z" fill="#263238"/>
<path d="M164.137 143.713C164.137 143.783 162.166 143.84 159.734 143.84C157.302 143.84 155.331 143.783 155.331 143.713C155.331 143.643 157.302 143.586 159.734 143.586C162.166 143.586 164.137 143.643 164.137 143.713Z" fill="#455A64"/>
<path d="M149.947 145.266C149.947 145.337 149.63 145.393 149.238 145.393C148.846 145.393 148.528 145.336 148.528 145.266C148.528 145.196 148.846 145.139 149.238 145.139C149.63 145.139 149.947 145.197 149.947 145.266Z" fill="#263238"/>
<path d="M152.117 145.215C152.117 145.285 151.734 145.342 151.262 145.342C150.789 145.342 150.406 145.285 150.406 145.215C150.406 145.144 150.789 145.088 151.262 145.088C151.734 145.088 152.117 145.144 152.117 145.215Z" fill="#263238"/>
<path d="M158.587 145.111C158.587 145.182 157.345 145.238 155.812 145.238C154.279 145.238 153.036 145.181 153.036 145.111C153.036 145.041 154.279 144.984 155.812 144.984C157.344 144.984 158.587 145.041 158.587 145.111Z" fill="#455A64"/>
<path d="M155.165 147.545C155.165 147.615 153.66 147.672 151.805 147.672C149.949 147.672 148.445 147.615 148.445 147.545C148.445 147.475 149.949 147.418 151.805 147.418C153.66 147.418 155.165 147.475 155.165 147.545Z" fill="#455A64"/>
<path d="M159.088 147.441C159.088 147.512 158.406 147.568 157.564 147.568C156.723 147.568 156.041 147.511 156.041 147.441C156.041 147.372 156.723 147.314 157.564 147.314C158.406 147.314 159.088 147.371 159.088 147.441Z" fill="#4F48EC"/>
<path d="M164.909 147.441C164.909 147.512 163.779 147.568 162.385 147.568C160.99 147.568 159.859 147.511 159.859 147.441C159.859 147.372 160.99 147.314 162.385 147.314C163.779 147.314 164.909 147.371 164.909 147.441Z" fill="#263238"/>
<path d="M163.554 133.098C163.554 133.168 163.32 133.225 163.032 133.225C162.744 133.225 162.511 133.168 162.511 133.098C162.511 133.028 162.744 132.971 163.032 132.971C163.32 132.971 163.554 133.028 163.554 133.098Z" fill="#263238"/>
<path d="M152.911 132.218C152.911 132.288 152.397 132.345 151.763 132.345C151.129 132.345 150.615 132.287 150.615 132.218C150.615 132.147 151.129 132.091 151.763 132.091C152.397 132.09 152.911 132.147 152.911 132.218Z" fill="#4F48EC"/>
<path d="M170.336 131.242C163.181 131.242 156.248 131.242 149.094 131.242L149.451 129.574H170.69L170.336 131.242Z" fill="#EBEBEB"/>
<path d="M150.345 130.705C150.474 130.705 150.577 130.577 150.577 130.418C150.577 130.259 150.474 130.13 150.345 130.13C150.217 130.13 150.113 130.259 150.113 130.418C150.113 130.577 150.217 130.705 150.345 130.705Z" fill="#FAFAFA"/>
<path d="M151.144 130.705C151.272 130.705 151.376 130.577 151.376 130.418C151.376 130.259 151.272 130.13 151.144 130.13C151.016 130.13 150.912 130.259 150.912 130.418C150.912 130.577 151.016 130.705 151.144 130.705Z" fill="#FAFAFA"/>
<path d="M151.944 130.705C152.072 130.705 152.176 130.577 152.176 130.418C152.176 130.259 152.072 130.13 151.944 130.13C151.816 130.13 151.712 130.259 151.712 130.418C151.712 130.577 151.816 130.705 151.944 130.705Z" fill="#FAFAFA"/>
<path d="M196.219 157.227H145.858V193.686H196.219V157.227Z" fill="#263238"/>
<path d="M168.8 157.227H145.858V193.686H168.8V157.227Z" fill="#455A64"/>
<path d="M166.464 169.611C166.461 169.608 166.459 169.544 166.456 169.423C166.454 169.29 166.451 169.114 166.448 168.891C166.444 168.412 166.437 167.733 166.43 166.866C166.42 165.107 166.406 162.588 166.39 159.483L166.463 159.574C161.693 159.583 155.183 159.596 148.009 159.61C147.917 159.723 148.132 159.455 148.11 159.484V159.486V159.492V159.502V159.523V159.564V159.648V159.814V160.146V160.809C148.11 161.249 148.11 161.687 148.11 162.122C148.109 162.993 148.109 163.853 148.109 164.701C148.108 166.395 148.107 168.038 148.105 169.611L148.008 169.49C153.354 169.513 157.952 169.533 161.228 169.547C162.859 169.561 164.16 169.573 165.067 169.581C165.508 169.587 165.852 169.592 166.099 169.596C166.21 169.599 166.298 169.601 166.368 169.603C166.43 169.606 166.462 169.609 166.464 169.611C166.466 169.614 166.438 169.616 166.38 169.619C166.313 169.621 166.229 169.623 166.123 169.626C165.881 169.63 165.543 169.635 165.112 169.641C164.21 169.649 162.916 169.66 161.294 169.675C158.002 169.689 153.381 169.709 148.008 169.732L147.911 169.733V169.611C147.909 168.038 147.908 166.395 147.907 164.701C147.907 163.854 147.906 162.993 147.906 162.123C147.906 161.688 147.906 161.25 147.906 160.809V160.147V159.815V159.648V159.565V159.523V159.502V159.492V159.487V159.484C147.884 159.511 148.1 159.243 148.01 159.356C155.183 159.37 161.694 159.382 166.464 159.392H166.539L166.538 159.483C166.522 162.611 166.508 165.149 166.498 166.921C166.491 167.779 166.484 168.452 166.48 168.926C166.476 169.142 166.474 169.312 166.472 169.441C166.469 169.557 166.466 169.614 166.464 169.611Z" fill="#263238"/>
<path d="M158.021 164.547C157.983 164.565 158.007 164.156 157.667 163.845C157.504 163.699 157.245 163.624 157 163.743C156.757 163.852 156.55 164.174 156.553 164.547C156.55 164.92 156.757 165.242 157 165.352C157.245 165.47 157.504 165.395 157.667 165.25C158.007 164.939 157.983 164.53 158.021 164.547C158.032 164.547 158.053 164.635 158.035 164.797C158.016 164.956 157.944 165.198 157.755 165.393C157.572 165.588 157.254 165.709 156.936 165.572C156.622 165.448 156.345 165.034 156.349 164.547C156.345 164.061 156.622 163.647 156.936 163.523C157.253 163.385 157.572 163.506 157.755 163.702C157.944 163.897 158.017 164.138 158.035 164.297C158.053 164.46 158.032 164.548 158.021 164.547Z" fill="#263238"/>
<path d="M166.464 180.76C166.461 180.756 166.459 180.693 166.456 180.572C166.454 180.439 166.451 180.262 166.448 180.039C166.444 179.561 166.437 178.881 166.43 178.014C166.42 176.255 166.406 173.737 166.39 170.632L166.463 170.723C161.693 170.732 155.183 170.745 148.009 170.759C147.917 170.872 148.132 170.604 148.11 170.633V170.635V170.641V170.651V170.672V170.713V170.797V170.963V171.295V171.958C148.11 172.398 148.11 172.836 148.11 173.271C148.109 174.142 148.109 175.002 148.109 175.849C148.108 177.544 148.107 179.187 148.105 180.76L148.008 180.639C153.354 180.662 157.952 180.682 161.228 180.696C162.859 180.71 164.16 180.722 165.067 180.729C165.508 180.736 165.852 180.741 166.099 180.745C166.21 180.747 166.298 180.75 166.368 180.752C166.43 180.755 166.462 180.757 166.464 180.76C166.466 180.762 166.438 180.765 166.38 180.767C166.313 180.769 166.229 180.771 166.123 180.774C165.881 180.778 165.543 180.783 165.112 180.789C164.21 180.797 162.916 180.808 161.294 180.823C158.002 180.837 153.381 180.857 148.008 180.881L147.911 180.881V180.76C147.909 179.186 147.908 177.544 147.907 175.849C147.907 175.002 147.906 174.142 147.906 173.271C147.906 172.836 147.906 172.398 147.906 171.958V171.295V170.963V170.797V170.713V170.672V170.651V170.641V170.635V170.633C147.884 170.659 148.1 170.391 148.01 170.504C155.183 170.518 161.694 170.531 166.464 170.54H166.539L166.538 170.631C166.522 173.76 166.508 176.297 166.498 178.069C166.491 178.928 166.484 179.6 166.48 180.074C166.476 180.29 166.474 180.461 166.472 180.59C166.469 180.706 166.466 180.763 166.464 180.76Z" fill="#263238"/>
<path d="M158.021 175.696C157.983 175.713 158.007 175.304 157.667 174.993C157.504 174.848 157.245 174.773 157 174.891C156.757 175 156.55 175.322 156.553 175.695C156.55 176.069 156.757 176.391 157 176.5C157.245 176.619 157.504 176.544 157.667 176.398C158.007 176.087 157.983 175.678 158.021 175.696C158.032 175.695 158.053 175.783 158.035 175.946C158.016 176.104 157.944 176.346 157.755 176.541C157.572 176.737 157.254 176.858 156.936 176.721C156.622 176.596 156.345 176.183 156.349 175.696C156.345 175.209 156.622 174.795 156.936 174.671C157.253 174.534 157.572 174.655 157.755 174.851C157.944 175.046 158.017 175.287 158.035 175.446C158.053 175.608 158.032 175.696 158.021 175.696Z" fill="#263238"/>
<path d="M166.464 191.908C166.461 191.905 166.459 191.841 166.456 191.72C166.454 191.587 166.451 191.411 166.448 191.188C166.444 190.709 166.437 190.03 166.43 189.163C166.42 187.404 166.406 184.885 166.39 181.78L166.463 181.871C161.693 181.881 155.183 181.893 148.009 181.907C147.917 182.021 148.132 181.752 148.11 181.781V181.784V181.789V181.799V181.82V181.862V181.945V182.112V182.444V183.106C148.11 183.546 148.11 183.984 148.11 184.42C148.109 185.29 148.109 186.151 148.109 186.998C148.108 188.692 148.107 190.335 148.105 191.908L148.008 191.787C153.354 191.811 157.952 191.831 161.228 191.845C162.859 191.859 164.16 191.87 165.067 191.878C165.508 191.884 165.852 191.89 166.099 191.893C166.21 191.896 166.298 191.898 166.368 191.9C166.43 191.903 166.462 191.906 166.464 191.908C166.466 191.911 166.438 191.913 166.38 191.915C166.313 191.917 166.229 191.92 166.123 191.923C165.881 191.926 165.543 191.932 165.112 191.938C164.21 191.946 162.916 191.957 161.294 191.971C158.002 191.985 153.381 192.005 148.008 192.029L147.911 192.029V191.908C147.909 190.334 147.908 188.692 147.907 186.997C147.907 186.15 147.906 185.29 147.906 184.419C147.906 183.984 147.906 183.546 147.906 183.106V182.443V182.111V181.945V181.861V181.82V181.799V181.788V181.783V181.781C147.884 181.807 148.1 181.539 148.01 181.652C155.183 181.666 161.694 181.679 166.464 181.688H166.539L166.538 181.779C166.522 184.908 166.508 187.445 166.498 189.217C166.491 190.076 166.484 190.748 166.48 191.222C166.476 191.438 166.474 191.608 166.472 191.738C166.469 191.854 166.466 191.912 166.464 191.908Z" fill="#263238"/>
<path d="M158.021 186.844C157.983 186.862 158.007 186.453 157.667 186.142C157.504 185.996 157.245 185.921 157 186.04C156.757 186.149 156.55 186.47 156.553 186.844C156.55 187.218 156.757 187.54 157 187.649C157.245 187.768 157.504 187.692 157.667 187.547C158.007 187.236 157.983 186.827 158.021 186.844C158.032 186.844 158.053 186.932 158.035 187.094C158.016 187.253 157.944 187.495 157.755 187.69C157.572 187.885 157.254 188.006 156.936 187.869C156.622 187.745 156.345 187.331 156.349 186.844C156.345 186.358 156.622 185.944 156.936 185.82C157.253 185.683 157.572 185.804 157.755 185.999C157.944 186.194 158.017 186.436 158.035 186.595C158.053 186.757 158.032 186.845 158.021 186.844Z" fill="#263238"/>
<path d="M112.319 223.361L78.6602 223.331V157.227H112.319V223.361Z" fill="#263238"/>
<path d="M198.048 154.684H77.0361V158.149H198.048V154.684Z" fill="#263238"/>
<path d="M82.4126 158.149H78.6602V228.276H82.4126V158.149Z" fill="#263238"/>
<path d="M196.219 158.149H192.467V228.292H196.219V158.149Z" fill="#263238"/>
<path d="M172.553 158.149H168.801V228.292H172.553V158.149Z" fill="#263238"/>
<path d="M94.0541 154.684C94.0541 154.755 90.4472 154.811 85.9986 154.811C81.5489 154.811 77.9424 154.754 77.9424 154.684C77.9424 154.614 81.5485 154.557 85.9986 154.557C90.4472 154.557 94.0541 154.614 94.0541 154.684Z" fill="#455A64"/>
<path d="M129.434 224.862L129.53 219.847L121.959 219.564L121.756 226.9L122.224 226.955C124.31 227.177 132.842 227.901 134.251 227.428C135.823 226.9 129.434 224.862 129.434 224.862Z" fill="#4F48EC"/>
<g opacity="0.4">
<path d="M132.552 225.996C132.552 225.996 134.787 226.887 134.495 227.338C134.202 227.788 125.559 227.459 121.756 226.9L121.773 226.69L131.853 227.181C131.853 227.181 132.11 226.003 132.552 225.996Z" fill="white"/>
</g>
<path d="M121.654 226.68C121.654 226.684 121.699 226.692 121.784 226.702C121.896 226.715 122.019 226.729 122.157 226.745C122.531 226.779 122.99 226.821 123.532 226.871C124.692 226.967 126.298 227.073 128.072 227.143C129.847 227.212 131.455 227.231 132.618 227.225C133.162 227.218 133.622 227.212 133.996 227.207C134.135 227.202 134.258 227.198 134.371 227.194C134.457 227.189 134.501 227.185 134.501 227.182C134.501 227.178 134.457 227.174 134.371 227.171C134.258 227.168 134.135 227.165 133.996 227.163C133.622 227.158 133.162 227.152 132.619 227.145C131.456 227.13 129.849 227.098 128.075 227.029C126.302 226.959 124.697 226.866 123.536 226.791C122.993 226.755 122.534 226.725 122.16 226.701C122.021 226.693 121.898 226.686 121.786 226.68C121.7 226.676 121.655 226.675 121.654 226.68Z" fill="#263238"/>
<path d="M131.847 227.326C131.875 227.332 131.907 226.925 132.124 226.521C132.336 226.113 132.625 225.915 132.61 225.885C132.605 225.857 132.276 226.022 132.048 226.459C131.815 226.893 131.824 227.332 131.847 227.326Z" fill="#263238"/>
<path d="M129.648 225.836C129.669 225.853 129.78 225.696 129.895 225.484C130.011 225.273 130.088 225.087 130.067 225.069C130.046 225.052 129.935 225.209 129.819 225.421C129.704 225.632 129.627 225.818 129.648 225.836Z" fill="#263238"/>
<path d="M129.046 225.41C129.062 225.434 129.184 225.34 129.318 225.199C129.452 225.059 129.547 224.926 129.531 224.902C129.515 224.878 129.393 224.972 129.259 225.112C129.125 225.253 129.029 225.386 129.046 225.41Z" fill="#263238"/>
<path d="M128.68 224.509C128.679 224.541 128.855 224.575 129.073 224.586C129.291 224.598 129.469 224.582 129.47 224.55C129.471 224.519 129.295 224.484 129.077 224.472C128.859 224.461 128.681 224.477 128.68 224.509Z" fill="#263238"/>
<path d="M128.562 223.878C128.553 223.906 128.743 224.021 128.999 224.054C129.255 224.089 129.46 224.026 129.456 223.996C129.452 223.963 129.252 223.974 129.009 223.941C128.765 223.91 128.571 223.847 128.562 223.878Z" fill="#263238"/>
<path d="M129.926 225.026C129.925 225.038 130.111 225.074 130.412 225.04C130.563 225.024 130.741 224.986 130.934 224.918C131.03 224.88 131.13 224.852 131.234 224.778C131.283 224.74 131.338 224.686 131.359 224.595C131.382 224.505 131.345 224.402 131.291 224.351C130.834 224.034 130.36 224.341 130.18 224.633C130.082 224.782 130.034 224.928 130.012 225.03C129.989 225.132 129.99 225.191 129.995 225.192C130.012 225.2 130.034 224.956 130.229 224.685C130.326 224.553 130.47 224.426 130.653 224.366C130.827 224.31 131.072 224.302 131.232 224.438C131.308 224.512 131.275 224.623 131.187 224.684C131.105 224.745 131.001 224.78 130.91 224.818C130.724 224.89 130.552 224.934 130.405 224.961C130.112 225.014 129.926 225.007 129.926 225.026Z" fill="#263238"/>
<path d="M130.051 225.061C130.057 225.068 130.133 224.916 130.117 224.644C130.108 224.51 130.073 224.351 129.995 224.198C129.912 224.061 129.807 223.872 129.598 223.875C129.485 223.889 129.426 224.046 129.441 224.148C129.447 224.254 129.483 224.346 129.517 224.421C129.585 224.574 129.664 224.699 129.737 224.794C129.885 224.985 130.004 225.06 130.01 225.049C130.019 225.035 129.916 224.937 129.786 224.741C129.722 224.643 129.652 224.519 129.592 224.371C129.528 224.241 129.488 224.01 129.61 223.987C129.732 223.978 129.853 224.132 129.925 224.256C129.998 224.389 130.037 224.531 130.053 224.653C130.084 224.901 130.034 225.056 130.051 225.061Z" fill="#263238"/>
<path d="M121.873 224.116C121.874 224.137 122.091 224.098 122.432 224.161C122.769 224.221 123.236 224.412 123.636 224.832C124.036 225.253 124.263 225.794 124.366 226.198C124.472 226.605 124.476 226.876 124.493 226.874C124.499 226.874 124.503 226.806 124.498 226.684C124.493 226.562 124.474 226.386 124.428 226.175C124.339 225.754 124.113 225.184 123.696 224.745C123.279 224.307 122.789 224.122 122.44 224.081C122.264 224.059 122.121 224.065 122.023 224.079C121.925 224.093 121.872 224.109 121.873 224.116Z" fill="#263238"/>
<path d="M122.754 220.237C122.728 220.235 122.677 221.098 122.64 222.163C122.603 223.229 122.593 224.094 122.619 224.095C122.644 224.097 122.695 223.234 122.732 222.168C122.769 221.103 122.779 220.238 122.754 220.237Z" fill="#263238"/>
<path d="M125.479 226.049C125.475 226.078 125.965 226.197 126.58 226.227C127.195 226.259 127.692 226.189 127.69 226.159C127.689 226.126 127.193 226.145 126.584 226.113C125.975 226.084 125.482 226.016 125.479 226.049Z" fill="#263238"/>
<path d="M123.995 225.989C123.976 226.012 124.032 226.121 124.079 226.264C124.128 226.406 124.151 226.532 124.177 226.531C124.201 226.532 124.22 226.384 124.164 226.22C124.109 226.055 124.011 225.967 123.995 225.989Z" fill="#263238"/>
<path d="M123.456 225.105C123.438 225.126 123.484 225.226 123.56 225.327C123.636 225.429 123.713 225.494 123.731 225.472C123.75 225.451 123.703 225.351 123.627 225.25C123.551 225.149 123.475 225.083 123.456 225.105Z" fill="#263238"/>
<path d="M122.666 224.68C122.671 224.712 122.771 224.714 122.881 224.768C122.992 224.817 123.07 224.897 123.09 224.876C123.111 224.86 123.051 224.724 122.914 224.661C122.777 224.597 122.659 224.65 122.666 224.68Z" fill="#263238"/>
<path d="M122.101 224.472C122.091 224.5 122.133 224.55 122.195 224.583C122.258 224.616 122.316 224.619 122.326 224.59C122.335 224.561 122.293 224.511 122.231 224.479C122.169 224.446 122.111 224.443 122.101 224.472Z" fill="#263238"/>
<g opacity="0.3">
<path d="M121.889 223.864L129.456 223.996L129.472 222.865L121.844 223.267L121.889 223.864Z" fill="black"/>
</g>
<path d="M141.377 225.642L141.366 220.625L133.792 220.591L133.745 227.93L134.215 227.97C136.305 228.123 144.849 228.567 146.247 228.048C147.807 227.469 141.377 225.642 141.377 225.642Z" fill="#4F48EC"/>
<g opacity="0.4">
<path d="M144.519 226.673C144.519 226.673 146.772 227.491 146.489 227.95C146.206 228.41 137.558 228.364 133.745 227.93L133.758 227.72L143.845 227.88C143.845 227.88 144.077 226.694 144.519 226.673Z" fill="white"/>
</g>
<path d="M133.639 227.714C133.639 227.718 133.684 227.724 133.769 227.732C133.881 227.741 134.004 227.751 134.143 227.762C134.517 227.783 134.977 227.81 135.519 227.843C136.682 227.901 138.289 227.954 140.064 227.966C141.84 227.976 143.448 227.943 144.61 227.899C145.153 227.874 145.613 227.853 145.987 227.836C146.126 227.826 146.249 227.818 146.361 227.81C146.447 227.804 146.492 227.798 146.492 227.794C146.492 227.79 146.446 227.788 146.361 227.787C146.249 227.788 146.125 227.79 145.987 227.791C145.612 227.799 145.152 227.808 144.61 227.819C143.446 227.842 141.84 227.863 140.065 227.852C138.291 227.841 136.684 227.8 135.522 227.762C134.979 227.744 134.519 227.729 134.144 227.717C134.006 227.714 133.883 227.711 133.77 227.709C133.684 227.708 133.639 227.71 133.639 227.714Z" fill="#263238"/>
<path d="M143.842 228.026C143.87 228.03 143.893 227.623 144.102 227.212C144.305 226.797 144.589 226.59 144.574 226.561C144.568 226.532 144.243 226.707 144.024 227.152C143.801 227.593 143.819 228.033 143.842 228.026Z" fill="#263238"/>
<path d="M141.612 226.607C141.633 226.625 141.741 226.464 141.852 226.248C141.963 226.033 142.036 225.845 142.015 225.828C141.994 225.811 141.886 225.972 141.775 226.187C141.664 226.403 141.591 226.591 141.612 226.607Z" fill="#263238"/>
<path d="M141 226.202C141.017 226.225 141.137 226.127 141.268 225.982C141.399 225.837 141.491 225.701 141.475 225.678C141.458 225.654 141.338 225.752 141.207 225.897C141.076 226.042 140.983 226.178 141 226.202Z" fill="#263238"/>
<path d="M140.615 225.313C140.615 225.345 140.792 225.374 141.01 225.378C141.229 225.382 141.406 225.36 141.407 225.328C141.407 225.297 141.23 225.268 141.012 225.264C140.793 225.26 140.616 225.282 140.615 225.313Z" fill="#263238"/>
<path d="M140.485 224.687C140.476 224.714 140.668 224.824 140.925 224.848C141.182 224.875 141.386 224.805 141.381 224.775C141.377 224.743 141.176 224.76 140.932 224.734C140.689 224.712 140.493 224.655 140.485 224.687Z" fill="#263238"/>
<path d="M141.871 225.789C141.871 225.802 142.057 225.831 142.358 225.788C142.508 225.766 142.685 225.723 142.876 225.649C142.972 225.607 143.071 225.577 143.173 225.499C143.222 225.46 143.275 225.404 143.295 225.312C143.315 225.222 143.276 225.12 143.222 225.071C142.758 224.769 142.291 225.091 142.117 225.389C142.021 225.541 141.977 225.689 141.957 225.791C141.937 225.894 141.938 225.953 141.944 225.954C141.961 225.962 141.978 225.716 142.167 225.44C142.261 225.304 142.402 225.173 142.584 225.107C142.756 225.045 143.001 225.029 143.164 225.159C143.241 225.231 143.21 225.343 143.124 225.407C143.044 225.471 142.94 225.509 142.85 225.55C142.666 225.628 142.494 225.678 142.348 225.709C142.057 225.771 141.871 225.77 141.871 225.789Z" fill="#263238"/>
<path d="M141.998 225.82C142.005 225.827 142.078 225.672 142.056 225.401C142.044 225.268 142.005 225.109 141.924 224.959C141.839 224.825 141.729 224.64 141.52 224.65C141.407 224.667 141.352 224.826 141.369 224.928C141.378 225.034 141.416 225.125 141.451 225.198C141.523 225.349 141.605 225.472 141.68 225.565C141.832 225.75 141.952 225.822 141.957 225.81C141.966 225.796 141.861 225.702 141.727 225.51C141.661 225.414 141.589 225.292 141.525 225.146C141.458 225.018 141.413 224.789 141.535 224.762C141.657 224.748 141.781 224.899 141.855 225.02C141.931 225.152 141.973 225.292 141.991 225.414C142.028 225.659 141.982 225.815 141.998 225.82Z" fill="#263238"/>
<path d="M133.803 225.143C133.804 225.164 134.02 225.119 134.362 225.171C134.701 225.219 135.172 225.394 135.581 225.801C135.989 226.209 136.228 226.743 136.339 227.143C136.453 227.546 136.464 227.817 136.481 227.814C136.486 227.814 136.49 227.746 136.482 227.625C136.474 227.503 136.451 227.328 136.401 227.118C136.303 226.701 136.064 226.138 135.638 225.712C135.212 225.288 134.718 225.119 134.368 225.09C134.192 225.074 134.049 225.084 133.952 225.101C133.854 225.119 133.802 225.137 133.803 225.143Z" fill="#263238"/>
<path d="M134.601 221.237C134.575 221.237 134.543 222.101 134.529 223.167C134.514 224.233 134.523 225.098 134.548 225.099C134.573 225.099 134.606 224.235 134.621 223.169C134.635 222.103 134.626 221.238 134.601 221.237Z" fill="#263238"/>
<path d="M137.447 226.958C137.444 226.987 137.937 227.09 138.553 227.1C139.168 227.111 139.663 227.025 139.661 226.995C139.658 226.962 139.163 226.997 138.554 226.986C137.944 226.976 137.45 226.925 137.447 226.958Z" fill="#263238"/>
<path d="M135.963 226.947C135.945 226.97 136.004 227.077 136.054 227.218C136.105 227.359 136.131 227.484 136.157 227.482C136.181 227.482 136.197 227.334 136.138 227.172C136.079 227.009 135.98 226.924 135.963 226.947Z" fill="#263238"/>
<path d="M135.407 226.08C135.389 226.102 135.437 226.2 135.516 226.299C135.594 226.399 135.671 226.461 135.69 226.439C135.708 226.417 135.66 226.319 135.581 226.22C135.503 226.121 135.425 226.058 135.407 226.08Z" fill="#263238"/>
<path d="M134.608 225.681C134.613 225.713 134.714 225.712 134.825 225.762C134.937 225.808 135.016 225.885 135.036 225.864C135.056 225.847 134.993 225.712 134.855 225.654C134.717 225.595 134.6 225.652 134.608 225.681Z" fill="#263238"/>
<path d="M134.038 225.492C134.029 225.521 134.073 225.569 134.135 225.6C134.198 225.631 134.256 225.632 134.266 225.603C134.275 225.573 134.231 225.525 134.169 225.494C134.106 225.464 134.048 225.463 134.038 225.492Z" fill="#263238"/>
<g opacity="0.3">
<path d="M133.813 224.892L141.38 224.775L141.372 223.644L133.755 224.296L133.813 224.892Z" fill="black"/>
</g>
<path d="M124.653 139.769L127.686 151.1C128.505 154.161 130.66 154.684 133.259 154.684H150.131V149.988L134.717 147.258L131.044 135.616L124.653 139.769Z" fill="#FFBE9D"/>
<path d="M151.985 149.013L153.323 148.227C153.323 148.227 154.766 144.767 155.098 144.905C155.43 145.044 155.526 146.062 154.947 147.652L156.725 147.021C156.725 147.021 160.581 149.231 160.41 149.529C160.239 149.827 159.924 150.532 159.084 149.999C158.244 149.466 157.144 148.841 157.144 148.841L155.066 149.577L157.745 149.999L160.264 152.843C160.264 152.843 159.437 153.611 158.723 152.796L152.18 154.54L150.13 154.684V149.988L151.985 149.013Z" fill="#FFBE9D"/>
<path d="M158.724 152.796C158.696 152.819 158.574 152.579 158.338 152.26C158.219 152.104 158.06 151.94 157.862 151.803C157.671 151.671 157.424 151.614 157.155 151.574C156.065 151.414 155.184 151.228 155.191 151.158C155.199 151.089 156.087 151.161 157.181 151.322C157.455 151.363 157.733 151.43 157.957 151.6C158.17 151.763 158.335 151.959 158.448 152.143C158.67 152.515 158.743 152.781 158.724 152.796Z" fill="#EB996E"/>
<path d="M157.7 153.122C157.675 153.122 157.655 152.954 157.471 152.905C157.284 152.863 156.986 152.819 156.676 152.779C156.047 152.7 155.531 152.706 155.525 152.634C155.519 152.567 156.045 152.445 156.696 152.526C157.023 152.57 157.302 152.635 157.52 152.736C157.632 152.793 157.704 152.906 157.718 152.991C157.735 153.079 157.712 153.124 157.7 153.122Z" fill="#EB996E"/>
<path d="M110.41 93.1797L109.494 116.202L117.439 117.13L117.878 111.543C117.878 111.543 120.68 112.402 121.531 109.186C122.075 107.131 122.558 91.0378 122.558 91.0378L110.41 93.1797Z" fill="#FFBE9D"/>
<path d="M123.245 93.7258C123.465 95.8803 121.037 97.1276 121.037 97.1276L120.612 102.224C120.276 102.157 119.471 102.212 119.471 102.212C119.675 99.8209 117.193 100.287 116.94 101.918C116.697 103.487 118.137 104.533 118.137 104.533C117.143 106.425 116.74 107.422 115.33 109.195C113.804 111.113 112.984 111.268 111.408 111.211L109.672 111.111C109.672 111.111 109.055 109.272 108.601 104.926C108.383 102.835 107.068 100.097 107.443 96.6977C108.507 87.0397 115.965 88.0601 115.965 88.0601C119.835 88.1933 122.735 88.7262 123.245 93.7258Z" fill="#263238"/>
<path d="M117.528 88.3384C119.213 88.3925 120.959 88.557 122.439 89.5598C123.918 90.5622 125.058 92.6216 124.754 94.679C124.474 94.7414 124.194 94.8044 123.913 94.8668C123.798 94.6102 123.682 94.353 123.566 94.0963C123.569 94.5067 123.573 94.9171 123.576 95.327C123.082 95.4978 122.588 95.6691 122.095 95.8399C121.875 94.2773 121.429 92.7636 120.784 91.3942" fill="#263238"/>
<path d="M110.727 98.9328C110.715 98.9382 110.664 98.8113 110.595 98.5712C110.526 98.3311 110.445 97.9744 110.383 97.5235C110.255 96.627 110.238 95.3251 110.573 93.9792C110.907 92.6328 111.513 91.5679 112.026 90.917C112.282 90.588 112.511 90.3499 112.677 90.2001C112.842 90.0498 112.942 89.9805 112.949 89.9932C112.972 90.0278 112.607 90.3636 112.132 91.038C111.657 91.706 111.092 92.7513 110.768 94.0538C110.445 95.3553 110.437 96.6144 110.526 97.4981C110.612 98.3877 110.761 98.9197 110.727 98.9328Z" fill="#455A64"/>
<path d="M112.291 98.1265C112.27 98.1358 112.115 97.698 111.978 96.946C111.84 96.1965 111.743 95.1253 111.825 93.9492C111.909 92.7731 112.154 91.7391 112.394 91.03C112.635 90.319 112.848 89.9208 112.868 89.9349C112.934 89.9647 112.18 91.6551 112.029 93.9712C111.854 96.2843 112.36 98.1114 112.291 98.1265Z" fill="#455A64"/>
<path d="M122.434 94.557C122.397 94.5672 122.328 93.9616 122.006 93.0832C121.692 92.2112 121.071 91.0717 120.092 90.2479C119.112 89.4261 118.028 89.1343 117.259 89.0967C116.482 89.0523 116.004 89.1982 115.997 89.1514C115.994 89.1363 116.11 89.085 116.327 89.0274C116.544 88.9694 116.864 88.9172 117.262 88.9167C118.053 88.9089 119.185 89.1807 120.207 90.0371C121.226 90.895 121.851 92.0984 122.139 93.0115C122.286 93.4707 122.366 93.8591 122.403 94.1305C122.441 94.4023 122.446 94.5545 122.434 94.557Z" fill="#455A64"/>
<path d="M110.973 86.4756C110.986 86.4131 111.585 86.6449 112.114 87.3111C112.648 87.9713 112.831 88.7145 112.781 88.7311C112.725 88.7629 112.47 88.1075 111.968 87.4902C111.474 86.865 110.947 86.5444 110.973 86.4756Z" fill="#263238"/>
<path d="M112.831 86.4849C112.888 86.5103 112.768 87.0232 112.791 87.663C112.807 88.3032 112.956 88.8034 112.902 88.8342C112.857 88.8688 112.606 88.3735 112.587 87.6727C112.563 86.972 112.783 86.4542 112.831 86.4849Z" fill="#455A64"/>
<path d="M123.223 137.299L124.521 142.752L132.755 138.127C132.46 136.986 131.097 131.9 128.49 123.83C127.038 119.333 123.806 116.088 119.955 115.293C117.26 114.737 114.328 114.303 112.07 114.334C107.453 114.397 100.655 117.978 99.7413 123.594C99.0439 127.881 99.7165 135.449 99.7165 144.645L100.319 162.216L123.982 163.211L123.223 137.299Z" fill="#4F48EC"/>
<g opacity="0.3">
<path d="M99.7412 140.579C102.621 141.309 105.577 140.573 108.511 140.357C110.29 140.226 112.263 139.987 113.67 141.344C114.786 142.419 115.235 144.228 115.557 145.935C116.784 152.441 117.008 156.803 117.283 163.476L103.04 164.548L99.7412 140.579Z" fill="black"/>
</g>
<path d="M127.798 122.147C127.798 122.218 121.585 122.274 113.923 122.274C106.259 122.274 100.048 122.217 100.048 122.147C100.048 122.077 106.259 122.021 113.923 122.021C121.585 122.021 127.798 122.078 127.798 122.147Z" fill="#FAFAFA"/>
<path d="M129.525 127.08C129.525 127.15 122.771 127.207 114.442 127.207C106.109 127.207 99.3564 127.15 99.3564 127.08C99.3564 127.009 106.109 126.953 114.442 126.953C122.771 126.953 129.525 127.009 129.525 127.08Z" fill="#FAFAFA"/>
<path d="M131.696 133.269C131.696 133.339 124.489 133.396 115.6 133.396C106.709 133.396 99.5029 133.339 99.5029 133.269C99.5029 133.199 106.708 133.142 115.6 133.142C124.489 133.142 131.696 133.199 131.696 133.269Z" fill="#FAFAFA"/>
<path d="M123.043 139.942C123.043 140.012 120.792 140.069 118.016 140.069C115.239 140.069 112.988 140.012 112.988 139.942C112.988 139.872 115.239 139.815 118.016 139.815C120.792 139.815 123.043 139.872 123.043 139.942Z" fill="#FAFAFA"/>
<path d="M123.512 147.177C123.512 147.247 121.155 147.28 118.25 147.251C115.343 147.221 112.988 147.141 112.988 147.071C112.989 147 115.345 146.967 118.251 146.996C121.157 147.026 123.512 147.106 123.512 147.177Z" fill="#FAFAFA"/>
<path d="M123.742 153.073C123.741 153.091 123.593 153.097 123.327 153.095C123.015 153.087 122.639 153.078 122.199 153.068C121.247 153.041 119.933 153.009 118.482 153.008C117.029 153.008 115.715 153.038 114.763 153.063C114.323 153.073 113.948 153.081 113.636 153.088C113.369 153.091 113.221 153.084 113.221 153.066C113.22 153.049 113.366 153.022 113.632 152.989C113.897 152.955 114.282 152.919 114.757 152.884C115.709 152.812 117.026 152.753 118.482 152.754C119.936 152.755 121.253 152.816 122.205 152.889C122.681 152.925 123.065 152.962 123.331 152.995C123.596 153.029 123.742 153.055 123.742 153.073Z" fill="#FAFAFA"/>
<path d="M123.667 157.833C123.667 157.903 121.346 157.96 118.484 157.96C115.62 157.96 113.3 157.903 113.3 157.833C113.3 157.763 115.62 157.706 118.484 157.706C121.346 157.706 123.667 157.763 123.667 157.833Z" fill="#FAFAFA"/>
<path d="M124.369 117.312C124.369 117.383 119.814 117.439 114.197 117.439C108.578 117.439 104.024 117.382 104.024 117.312C104.024 117.243 108.578 117.186 114.197 117.186C119.814 117.185 124.369 117.242 124.369 117.312Z" fill="#FAFAFA"/>
<path d="M123.83 118.229C123.834 118.255 123.594 118.272 123.201 118.464C122.815 118.66 122.284 119.079 121.838 119.832C121.387 120.577 121.083 121.657 121.024 122.891C120.955 124.126 121.102 125.494 121.273 126.916C121.638 129.762 122.197 132.287 122.595 134.112C122.79 134.994 122.951 135.722 123.073 136.274C123.184 136.786 123.239 137.071 123.225 137.076C123.212 137.081 123.131 136.805 122.997 136.302C122.863 135.799 122.676 135.069 122.456 134.162C122.021 132.347 121.439 129.821 121.07 126.955C120.899 125.525 120.755 124.144 120.836 122.874C120.905 121.609 121.238 120.483 121.723 119.724C122.2 118.955 122.766 118.544 123.173 118.371C123.379 118.287 123.545 118.247 123.658 118.234C123.771 118.222 123.83 118.22 123.83 118.229Z" fill="#263238"/>
<path d="M132.498 136.735C132.511 136.766 132.069 137.086 131.338 137.561C130.607 138.036 129.584 138.662 128.435 139.305C127.286 139.947 126.23 140.485 125.459 140.85C124.688 141.215 124.202 141.413 124.193 141.382C124.182 141.348 124.648 141.091 125.404 140.683C126.16 140.276 127.205 139.714 128.351 139.073C129.497 138.432 130.527 137.833 131.274 137.399C132.021 136.966 132.485 136.703 132.498 136.735Z" fill="#263238"/>
<path d="M107.636 162.493L135.908 163.734C140.498 163.936 144.113 168.657 144.042 174.354L142.868 224.453L131.946 224.001L132.757 177.097L107.636 176.277V162.493Z" fill="#263238"/>
<path d="M95.957 162.493L124.229 163.734C128.819 163.936 132.435 168.657 132.363 174.354L131.189 224.453L120.123 223.36L121.078 177.097L95.957 176.277V162.493Z" fill="#263238"/>
<path d="M117.117 180.694H114.336V222.032H117.117V180.694Z" fill="#455A64"/>
<path d="M91.001 140.568V170.999C91.001 174.99 93.6088 178.225 96.8255 178.225H113.158V140.568C113.158 138.789 111.996 137.347 110.562 137.347H93.5966C92.1633 137.347 91.001 138.789 91.001 140.568Z" fill="#455A64"/>
<path d="M135.141 180.694H95.3662C95.3662 177.735 97.2991 175.337 99.6834 175.337H130.823C133.208 175.337 135.141 177.735 135.141 180.694Z" fill="#455A64"/>
<path d="M113.159 174.627C113.166 174.627 113.169 174.707 113.17 174.86C113.172 175.012 113.157 175.24 113.105 175.524C113.008 176.086 112.719 176.922 112.039 177.575C111.702 177.894 111.273 178.167 110.776 178.272C110.273 178.377 109.754 178.326 109.205 178.346C108.103 178.35 106.897 178.355 105.631 178.36C103.095 178.364 100.799 178.352 99.1375 178.331C98.3315 178.316 97.6672 178.303 97.1696 178.294C96.9572 178.285 96.781 178.277 96.6347 178.271C96.5124 178.263 96.4482 178.254 96.4482 178.245C96.4482 178.237 96.5124 178.228 96.6347 178.22C96.781 178.213 96.9572 178.205 97.1696 178.195C97.6668 178.184 98.3315 178.17 99.1375 178.152C100.799 178.127 103.095 178.11 105.631 178.106C106.897 178.108 108.103 178.11 109.205 178.112C109.752 178.101 110.284 178.155 110.747 178.065C111.217 177.976 111.626 177.726 111.952 177.432C112.611 176.829 112.91 176.041 113.028 175.501C113.147 174.951 113.135 174.625 113.159 174.627Z" fill="#263238"/>
<path d="M118.166 180.8C118.166 180.87 117.074 180.927 115.726 180.927C114.378 180.927 113.286 180.87 113.286 180.8C113.286 180.73 114.378 180.673 115.726 180.673C117.073 180.673 118.166 180.73 118.166 180.8Z" fill="#263238"/>
<path d="M130.268 178.491C130.24 178.496 130.153 177.98 130.021 177.042C129.889 176.104 129.711 174.745 129.499 173.064C129.272 171.383 129.141 169.351 128.394 167.333C128.02 166.33 127.527 165.339 126.917 164.406C126.301 163.479 125.547 162.643 124.7 161.928C123.851 161.215 122.939 160.666 122.011 160.321C121.088 159.974 120.161 159.75 119.27 159.734C117.469 159.682 115.827 159.692 114.458 159.66C113.087 159.637 111.977 159.61 111.211 159.579C110.444 159.549 110.02 159.515 110.02 159.48C110.02 159.445 110.444 159.412 111.211 159.381C111.978 159.351 113.087 159.323 114.458 159.3C115.832 159.286 117.457 159.239 119.282 159.266C120.206 159.271 121.169 159.491 122.131 159.845C123.096 160.198 124.046 160.765 124.928 161.507C125.81 162.249 126.591 163.122 127.227 164.09C127.856 165.062 128.361 166.098 128.739 167.142C128.83 167.406 128.905 167.673 128.987 167.933C129.027 168.063 129.066 168.192 129.105 168.321C129.135 168.453 129.165 168.585 129.194 168.715C129.252 168.976 129.31 169.234 129.367 169.487C129.405 169.745 129.442 170 129.478 170.25C129.619 171.249 129.691 172.168 129.786 173.013C129.961 174.701 130.096 176.068 130.179 177.014C130.262 177.96 130.295 178.487 130.268 178.491Z" fill="#455A64"/>
<path d="M127.89 225.778H127.497C127.497 217.682 122.188 211.096 115.664 211.096C109.139 211.096 103.831 217.682 103.831 225.778H103.438C103.438 217.413 108.922 210.608 115.664 210.608C122.406 210.608 127.89 217.413 127.89 225.778Z" fill="#455A64"/>
<path d="M105.467 226.531C105.467 227.787 104.647 228.806 103.634 228.806C102.622 228.806 101.801 227.787 101.801 226.531C101.801 225.275 102.622 224.257 103.634 224.257C104.647 224.257 105.467 225.275 105.467 226.531Z" fill="#263238"/>
<path d="M129.619 226.217C129.619 227.474 128.798 228.492 127.785 228.492C126.773 228.492 125.952 227.474 125.952 226.217C125.952 224.961 126.773 223.943 127.785 223.943C128.798 223.943 129.619 224.961 129.619 226.217Z" fill="#263238"/>
<path d="M127.773 222.033C127.773 222.103 122.452 222.16 115.891 222.16C109.327 222.16 104.008 222.102 104.008 222.033C104.008 221.963 109.327 221.906 115.891 221.906C122.452 221.905 127.773 221.962 127.773 222.033Z" fill="#455A64"/>
<path d="M87.1808 127.068C87.7739 127.495 88.1661 128.278 88.3218 129.107C88.4776 129.935 88.4166 130.807 88.2608 131.636C87.9596 133.24 87.0608 134.772 86.1372 135.954C85.1468 134.6 85.0894 132.48 85.1146 131.402C85.1543 129.699 86.0601 126.651 87.1808 127.068Z" fill="#4F48EC"/>
<path d="M87.1659 138.822C87.0758 137.878 87.4786 136.915 88.1059 136.369C88.7333 135.823 89.5522 135.673 90.3043 135.855C90.652 135.939 91.0194 136.121 91.1861 136.508C91.3423 136.87 91.2774 137.335 91.091 137.674C90.9045 138.014 90.6154 138.246 90.3161 138.423C89.2907 139.029 88.2086 139.381 87.1659 138.822Z" fill="#4F48EC"/>
<path d="M85.5069 142.391C85.4904 142.383 85.5738 141.983 85.7563 141.348C85.8476 141.029 85.9947 140.661 86.1929 140.288C86.3919 139.918 86.6043 139.506 86.8801 139.113C87.4236 138.323 88.0797 137.798 88.5938 137.564C88.8507 137.444 89.069 137.39 89.2192 137.36C89.371 137.338 89.4552 137.336 89.4564 137.348C89.4607 137.381 89.1244 137.424 88.6335 137.684C88.1446 137.942 87.522 138.464 86.9925 139.233C86.7263 139.611 86.5107 140.02 86.3074 140.381C86.106 140.744 85.9569 141.088 85.8542 141.395C85.6485 142.011 85.5286 142.401 85.5069 142.391Z" fill="#263238"/>
<path d="M86.6557 129.465C86.6659 129.466 86.6627 129.662 86.6482 130.015C86.634 130.369 86.6073 130.88 86.5703 131.512C86.496 132.774 86.3772 134.517 86.2084 136.437C86.0389 138.359 85.8462 140.092 85.6857 141.343C85.6055 141.968 85.5354 142.473 85.4816 142.821C85.4285 143.169 85.3938 143.36 85.384 143.358C85.3738 143.356 85.3887 143.161 85.4245 142.81C85.465 142.426 85.5181 141.926 85.5815 141.324C85.7152 140.07 85.8914 138.337 86.0605 136.418C86.2175 134.514 86.3591 132.792 86.4657 131.501C86.5164 130.897 86.5585 130.395 86.5908 130.01C86.6226 129.658 86.6454 129.464 86.6557 129.465Z" fill="#263238"/>
<path d="M85.4426 139.205C85.1559 137.233 84.0498 135.473 82.5783 134.646C82.2035 134.436 81.7165 134.304 81.4176 134.655C81.1183 135.006 81.1973 135.62 81.3547 136.092C82.0108 138.057 83.7052 139.411 85.4186 139.341" fill="#4F48EC"/>
<path d="M82.8657 136.097C82.8712 136.087 82.9455 136.132 83.0757 136.225C83.2071 136.315 83.3892 136.46 83.6106 136.648C84.0429 137.034 84.6471 137.608 85.1081 138.47C85.3366 138.9 85.4943 139.358 85.5856 139.789C85.6784 140.222 85.6922 140.627 85.6894 140.961C85.6772 141.296 85.6517 141.565 85.6151 141.747C85.5836 141.929 85.5612 142.028 85.551 142.026C85.5215 142.02 85.5899 141.616 85.584 140.961C85.573 140.636 85.549 140.246 85.4526 139.833C85.3578 139.421 85.2037 138.986 84.9834 138.571C84.5401 137.741 83.9599 137.161 83.5477 136.753C83.1268 136.352 82.8527 136.122 82.8657 136.097Z" fill="#263238"/>
<path d="M85.3147 154.684C82.5984 154.684 80.3965 151.952 80.3965 148.582V142.48H90.233V148.582C90.233 151.952 88.0307 154.684 85.3147 154.684Z" fill="#263238"/>
<path d="M90.233 145.482C90.2374 145.489 90.1905 145.548 90.0981 145.655C89.9868 145.778 89.8523 145.927 89.691 146.107C89.311 146.513 88.8064 147.051 88.2074 147.692L88.1712 147.73L88.1291 147.699C87.3047 147.084 86.3284 146.355 85.2782 145.572L85.2723 145.568L85.358 145.566C84.3853 146.348 83.4775 147.078 82.7058 147.698L82.6645 147.732L82.6267 147.695C81.9679 147.055 81.4125 146.515 80.9952 146.11C80.8166 145.93 80.6679 145.78 80.546 145.657C80.4437 145.55 80.3914 145.489 80.3958 145.482C80.4001 145.475 80.461 145.522 80.5712 145.615C80.6994 145.728 80.8556 145.866 81.0432 146.031C81.4692 146.422 82.0367 146.942 82.7097 147.56L82.6307 147.556C83.3989 146.928 84.3019 146.19 85.2699 145.398L85.3124 145.364L85.3561 145.396L85.362 145.401C86.4067 146.195 87.3786 146.933 88.1987 147.556L88.1208 147.563C88.7348 146.945 89.2517 146.425 89.6411 146.032C89.8118 145.867 89.9542 145.729 90.0718 145.616C90.1728 145.522 90.2283 145.475 90.233 145.482Z" fill="#E0E0E0"/>
<path d="M90.233 144.261C90.2374 144.268 90.1905 144.328 90.0981 144.434C89.9868 144.558 89.8523 144.707 89.691 144.886C89.311 145.292 88.8064 145.831 88.2074 146.471L88.1712 146.51L88.1291 146.478C87.3047 145.863 86.3284 145.135 85.2782 144.352L85.2723 144.347L85.358 144.345C84.3853 145.128 83.4775 145.857 82.7058 146.478L82.6645 146.511L82.6267 146.474C81.9679 145.834 81.4125 145.294 80.9952 144.889C80.8166 144.709 80.6679 144.559 80.546 144.436C80.4437 144.329 80.3914 144.269 80.3958 144.262C80.4001 144.255 80.461 144.301 80.5712 144.395C80.6994 144.508 80.8556 144.645 81.0432 144.811C81.4692 145.202 82.0367 145.722 82.7097 146.339L82.6307 146.336C83.3989 145.708 84.3019 144.969 85.2699 144.178L85.3124 144.143L85.3561 144.176L85.362 144.18C86.4067 144.974 87.3786 145.712 88.1987 146.335L88.1208 146.343C88.7348 145.724 89.2517 145.204 89.6411 144.812C89.8118 144.647 89.9542 144.509 90.0718 144.395C90.1728 144.301 90.2283 144.255 90.233 144.261Z" fill="#E0E0E0"/>
<path d="M90.233 146.722C90.2374 146.729 90.1905 146.789 90.0981 146.895C89.9868 147.019 89.8523 147.168 89.691 147.347C89.311 147.753 88.8064 148.292 88.2074 148.932L88.1712 148.971L88.1291 148.939C87.3047 148.324 86.3284 147.596 85.2782 146.813L85.2723 146.808L85.358 146.806C84.3853 147.589 83.4775 148.318 82.7058 148.939L82.6645 148.972L82.6267 148.935C81.9679 148.295 81.4125 147.755 80.9952 147.35C80.8166 147.17 80.6679 147.02 80.546 146.897C80.4437 146.79 80.3914 146.73 80.3958 146.723C80.4001 146.716 80.461 146.762 80.5712 146.856C80.6994 146.969 80.8556 147.107 81.0432 147.272C81.4692 147.663 82.0367 148.183 82.7097 148.801L82.6307 148.797C83.3989 148.169 84.3019 147.431 85.2699 146.639L85.3124 146.605L85.3561 146.637L85.362 146.642C86.4067 147.436 87.3786 148.174 88.1987 148.797L88.1208 148.804C88.7348 148.186 89.2517 147.666 89.6411 147.273C89.8118 147.108 89.9542 146.97 90.0718 146.857C90.1728 146.762 90.2283 146.716 90.233 146.722Z" fill="#E0E0E0"/>
<path d="M217.675 169.015C215.636 169.422 214.725 172.529 214.903 175.082C215.081 177.634 215.927 180.128 215.7 182.674C215.413 185.908 213.444 188.641 213.215 191.881C212.944 195.703 215.122 199.093 215.772 202.843C216.089 204.668 216.045 206.598 216.593 208.336C217.516 211.268 220.224 213.15 222.721 212.597C225.218 212.043 227.233 209.114 227.282 205.967C227.327 203.033 225.867 200.269 226.045 197.342C226.176 195.178 227.198 193.129 226.979 190.977C226.718 188.416 224.806 186.597 224.131 184.155C223.456 181.713 224.104 179.022 223.871 176.456C223.453 171.854 221.396 168.645 217.675 169.015Z" fill="#4F48EC"/>
<path d="M207.265 191.301C206.918 195.565 208.438 200.583 210.206 204.266C211.974 207.949 214.714 210.899 217.901 212.553C218.261 212.74 218.708 212.896 219.011 212.592C219.258 212.342 219.289 211.894 219.292 211.498C219.316 207.009 218.139 202.524 215.989 198.915C213.84 195.304 210.729 192.591 207.265 191.301Z" fill="#4F48EC"/>
<g opacity="0.2">
<path d="M207.265 191.301C206.918 195.565 208.438 200.583 210.206 204.266C211.974 207.949 214.714 210.899 217.901 212.553C218.261 212.74 218.708 212.896 219.011 212.592C219.258 212.342 219.289 211.894 219.292 211.498C219.316 207.009 218.139 202.524 215.989 198.915C213.84 195.304 210.729 192.591 207.265 191.301Z" fill="black"/>
</g>
<path d="M222.24 221.47C222.233 221.473 222.2 221.391 222.142 221.233C222.077 221.049 221.996 220.817 221.896 220.534C221.69 219.925 221.381 219.048 220.988 217.972C220.202 215.819 219.039 212.888 217.575 209.775C216.107 206.662 214.619 203.966 213.492 202.061C212.929 201.107 212.466 200.343 212.139 199.821C211.989 199.575 211.867 199.374 211.769 199.213C211.686 199.072 211.645 198.996 211.65 198.991C211.655 198.985 211.706 199.051 211.799 199.182C211.904 199.335 212.036 199.527 212.198 199.762C212.543 200.267 213.025 201.016 213.603 201.958C214.76 203.84 216.271 206.53 217.743 209.652C219.212 212.775 220.359 215.727 221.114 217.902C221.492 218.989 221.782 219.877 221.967 220.499C222.053 220.789 222.123 221.025 222.178 221.214C222.225 221.379 222.246 221.467 222.24 221.47Z" fill="#263238"/>
<path d="M220.026 180.814C220.033 180.813 220.046 180.954 220.063 181.223C220.08 181.512 220.103 181.904 220.132 182.397C220.186 183.44 220.262 184.911 220.356 186.719C220.542 190.368 220.803 195.408 221.118 200.973C221.435 206.54 221.745 211.577 221.973 215.222C222.085 217.028 222.175 218.498 222.24 219.54C222.267 220.033 222.289 220.425 222.304 220.715C222.317 220.983 222.32 221.125 222.314 221.125C222.307 221.126 222.29 220.986 222.265 220.718C222.241 220.43 222.207 220.039 222.164 219.548C222.085 218.506 221.973 217.039 221.836 215.236C221.573 211.593 221.24 206.558 220.924 200.99C220.608 195.423 220.369 190.38 220.219 186.727C220.151 184.918 220.096 183.446 220.057 182.401C220.043 181.907 220.033 181.514 220.024 181.225C220.019 180.956 220.019 180.814 220.026 180.814Z" fill="#263238"/>
<path d="M216.864 215.388H225.473V223.23C225.473 226.061 223.623 228.357 221.341 228.357C219.144 228.357 217.332 226.225 217.214 223.503L216.864 215.388Z" fill="#263238"/>
<path d="M173.258 112.003L193.791 126.107L193.019 127.906L172.67 113.534L173.258 112.003Z" fill="#4F48EC"/>
<path d="M172.249 110.668L173.192 108.876L173.742 109.295L172.896 111.105L172.249 110.668Z" fill="#4F48EC"/>
<path d="M191.459 123.877L192.514 124.631L189.074 151.849L187.448 151.874L191.459 123.877Z" fill="#4F48EC"/>
<path d="M182.717 154.684C182.717 154.684 185.22 151.542 188.574 151.773C191.927 152.004 193.647 154.669 193.647 154.669L182.717 154.684Z" fill="#4F48EC"/>
<path d="M172.267 123.008L164.138 117.184L166.484 112.141C167.78 109.356 170.651 108.402 172.896 110.01C175.14 111.618 175.91 115.18 174.614 117.965L172.267 123.008Z" fill="#4F48EC"/>
</svg>
