<svg width="50" height="14" viewBox="0 0 50 14" fill="none" xmlns="http://www.w3.org/2000/svg">
<g clip-path="url(#clip0_4276_22783)">
<path d="M0 0V13.6803H6.94087V9.17105L9.06457 12.1753C9.73219 13.1192 10.8161 13.6803 11.972 13.6803H16.9637V7.26989H13.3638C13.569 7.25166 15.9335 7.0109 16.7201 5.25649C16.8361 4.99751 16.9503 4.63205 16.9637 4.15819V0H10.0017V4.48625C9.25066 3.38603 8.50056 2.28485 7.74949 1.18463C7.24303 0.443157 6.40467 0 5.50781 0H0Z" fill="white"/>
<path d="M19.1777 5.91945V0.0787964H20.3086L23.1575 3.33533C23.2084 3.38617 23.2697 3.45331 23.3407 3.53484C23.4117 3.61734 23.4827 3.70079 23.5537 3.78616C23.6247 3.87153 23.6822 3.94539 23.7282 4.00678H23.7877C23.782 3.9051 23.7781 3.79096 23.7752 3.66626C23.7724 3.54156 23.7714 3.43125 23.7714 3.33437V0.0787964H24.9196V5.92041H23.8059L20.9494 2.63031C20.8525 2.52287 20.748 2.39914 20.6348 2.26005C20.5216 2.12096 20.4333 2.01449 20.371 1.94159H20.3202C20.3202 2.01545 20.3211 2.11713 20.324 2.24758C20.3269 2.37803 20.3278 2.52287 20.3278 2.68114V5.92041H19.1797L19.1777 5.91945Z" fill="white"/>
<path d="M28.0804 6.02208C27.5528 6.02208 27.1068 5.93863 26.7414 5.77173C26.3759 5.60482 26.0968 5.34775 25.904 5.00244C25.7112 4.65712 25.6152 4.2178 25.6152 3.68448C25.6152 3.15115 25.7102 2.71279 25.9001 2.36652C26.09 2.0212 26.3682 1.76317 26.7337 1.59243C27.0991 1.42265 27.5423 1.33728 28.0641 1.33728C28.5859 1.33728 29.0032 1.42073 29.3523 1.58859C29.7005 1.7555 29.9634 2.00681 30.1389 2.34062C30.3144 2.67538 30.4027 3.09456 30.4027 3.59911V3.95594H26.7634C26.7749 4.23411 26.8325 4.46144 26.938 4.64081C27.0425 4.81923 27.1931 4.94968 27.3888 5.03217C27.5845 5.11467 27.8233 5.15591 28.1073 5.15591C28.232 5.15591 28.3624 5.14056 28.4986 5.10891C28.6348 5.07822 28.7595 5.03121 28.8727 4.96886C28.9859 4.90652 29.0809 4.82402 29.1576 4.72235C29.2343 4.62067 29.2756 4.50173 29.2814 4.36552H30.3864C30.3864 4.62067 30.3326 4.84992 30.2252 5.05423C30.1178 5.25855 29.9634 5.43312 29.7619 5.57701C29.5605 5.72185 29.3188 5.83216 29.0348 5.90889C28.7509 5.98563 28.4344 6.024 28.0823 6.024L28.0804 6.02208ZM26.7711 3.19911H29.2449C29.2449 3.02358 29.2152 2.87298 29.1557 2.74828C29.0962 2.62359 29.0128 2.51999 28.9044 2.4375C28.7969 2.35501 28.6722 2.29554 28.5303 2.25908C28.3883 2.22263 28.2358 2.20345 28.0708 2.20345C27.8157 2.20345 27.5951 2.2399 27.408 2.31376C27.221 2.38762 27.0752 2.49793 26.9706 2.64565C26.8661 2.79337 26.7989 2.97754 26.7711 3.19816V3.19911Z" fill="white"/>
<path d="M31.9657 5.91915L30.3926 1.43866H31.5571L32.2717 3.75996C32.3168 3.88466 32.3551 4.00935 32.3868 4.13405C32.4175 4.25875 32.4453 4.36618 32.4674 4.45731C32.4904 4.54843 32.5067 4.61366 32.5182 4.65299H32.5777C32.5949 4.57337 32.617 4.48033 32.6458 4.3729C32.6736 4.26546 32.7043 4.15611 32.735 4.0458C32.7657 3.93549 32.7935 3.83765 32.8156 3.75228L33.4784 1.43962H34.6774L35.3488 3.75228C35.3719 3.81463 35.3958 3.9 35.4208 4.00744C35.4467 4.11487 35.4745 4.2271 35.5061 4.34316C35.5368 4.45923 35.5647 4.56282 35.5867 4.65395H35.6462C35.6692 4.57433 35.6942 4.48129 35.7229 4.37386C35.7507 4.26642 35.7805 4.15803 35.8121 4.0506C35.8428 3.94317 35.8678 3.84916 35.8841 3.76955L36.5901 1.43962H37.6788L36.1057 5.92011H34.9834L34.38 3.82039C34.3465 3.70145 34.309 3.57291 34.2697 3.43383C34.2304 3.29474 34.193 3.16045 34.1594 3.03C34.1258 2.89954 34.0971 2.78923 34.074 2.69811H34.0146C34.0031 2.76621 33.982 2.8583 33.9513 2.97436C33.9196 3.09043 33.8841 3.22088 33.8448 3.36572C33.8055 3.51056 33.7623 3.66212 33.7172 3.82039L33.1052 5.92011H31.9657V5.91915Z" fill="white"/>
<path d="M19.1777 13.7178V7.87622H20.3768V10.8009L23.4635 7.87622H24.9858L22.4688 10.2743L25.0366 13.7178H23.5489L21.6189 11.056L20.3777 12.0929V13.7169H19.1787L19.1777 13.7178Z" fill="white"/>
<path d="M25.4023 8.53137V7.56256H26.5074V8.53137H25.4023ZM25.4023 13.7178V9.23735H26.5074V13.7178H25.4023Z" fill="white"/>
<path d="M27.2383 13.7181V9.23758H28.1476L28.233 9.91767H28.3011C28.4315 9.74213 28.5841 9.59633 28.7606 9.47931C28.9361 9.36324 29.1279 9.27691 29.3342 9.22032C29.5414 9.16373 29.7524 9.13495 29.9672 9.13495C30.3183 9.13495 30.6186 9.19346 30.8689 9.30953C31.1183 9.42559 31.3092 9.60688 31.4425 9.8534C31.5758 10.0999 31.642 10.4213 31.642 10.8184V13.7181H30.537V11.014C30.537 10.8385 30.514 10.6908 30.4689 10.5719C30.4238 10.4529 30.3586 10.3579 30.2732 10.287C30.1879 10.216 30.0843 10.1651 29.9624 10.1344C29.8406 10.1038 29.7063 10.0874 29.5586 10.0874C29.3428 10.0874 29.1433 10.1354 28.9591 10.2323C28.7749 10.3292 28.6263 10.4615 28.5131 10.6323C28.3999 10.8021 28.3433 11.0006 28.3433 11.227V13.7181H27.2383Z" fill="white"/>
<path d="M34.1771 13.8205C33.7637 13.8205 33.4049 13.7371 33.1018 13.5702C32.7987 13.4033 32.5628 13.1452 32.3958 12.7961C32.2289 12.4479 32.1445 12.0066 32.1445 11.4743C32.1445 10.9419 32.228 10.5026 32.3958 10.1563C32.5628 9.811 32.7939 9.55393 33.0884 9.38703C33.3829 9.22013 33.7234 9.13572 34.109 9.13572C34.3296 9.13572 34.5368 9.1597 34.7296 9.20766C34.9224 9.25562 35.0951 9.32852 35.2485 9.42444C35.402 9.52132 35.5315 9.64026 35.6399 9.78127H35.6994V7.56165H36.8044V13.7179H35.9027L35.8087 13.0627H35.7406C35.5651 13.3294 35.3426 13.5222 35.073 13.6411C34.8035 13.7601 34.5042 13.8196 34.1761 13.8196L34.1771 13.8205ZM34.4917 12.8767C34.7584 12.8767 34.9809 12.8239 35.1593 12.7193C35.3378 12.6148 35.472 12.4632 35.5632 12.2647C35.6533 12.0661 35.6994 11.8225 35.6994 11.5338V11.4407C35.6994 11.2249 35.6735 11.033 35.6226 10.8623C35.5718 10.6925 35.4941 10.5496 35.3886 10.4326C35.284 10.3165 35.1565 10.2283 35.0059 10.1688C34.8553 10.1093 34.6817 10.0796 34.4831 10.0796C34.2107 10.0796 33.9853 10.1295 33.8069 10.2283C33.6284 10.3271 33.4951 10.4767 33.4069 10.6743C33.3186 10.8729 33.2754 11.1222 33.2754 11.4225V11.5414C33.2754 11.8359 33.3205 12.0824 33.4117 12.281C33.5018 12.4795 33.6371 12.6282 33.8155 12.727C33.9939 12.8268 34.2193 12.8757 34.4917 12.8757V12.8767Z" fill="white"/>
<path d="M37.5352 13.7178V9.23736H38.4445L38.5299 9.98554H38.5893C38.6517 9.83783 38.7323 9.6997 38.832 9.56925C38.9308 9.43879 39.0584 9.33424 39.2147 9.25462C39.3701 9.17501 39.5505 9.13568 39.7548 9.13568C39.8507 9.13568 39.9428 9.14431 40.031 9.16158C40.1193 9.17885 40.1941 9.19899 40.2564 9.22105V10.2244H39.8056C39.6013 10.2244 39.4277 10.256 39.2828 10.3174C39.138 10.3798 39.0181 10.469 38.9212 10.5851C38.8243 10.7011 38.7543 10.8364 38.7083 10.9889C38.6632 11.1424 38.6402 11.3121 38.6402 11.4992V13.7188H37.5352V13.7178Z" fill="white"/>
<path d="M42.68 13.8207C42.1525 13.8207 41.7064 13.7373 41.341 13.5704C40.9755 13.4035 40.6964 13.1464 40.5036 12.8011C40.3108 12.4558 40.2148 12.0164 40.2148 11.4831C40.2148 10.9498 40.3098 10.5114 40.4997 10.1652C40.6897 9.81985 40.9678 9.56182 41.3333 9.39108C41.6987 9.2213 42.1419 9.13593 42.6637 9.13593C43.1855 9.13593 43.6028 9.21938 43.9519 9.38724C44.3001 9.55414 44.563 9.80546 44.7385 10.1393C44.914 10.474 45.0023 10.8932 45.0023 11.3978V11.7546H41.363C41.3745 12.0328 41.4321 12.2601 41.5376 12.4395C41.6422 12.6179 41.7928 12.7483 41.9884 12.8308C42.1841 12.9133 42.423 12.9546 42.7069 12.9546C42.8316 12.9546 42.962 12.9392 43.0982 12.9076C43.2344 12.8769 43.3591 12.8299 43.4723 12.7675C43.5855 12.7052 43.6805 12.6227 43.7572 12.521C43.834 12.4193 43.8752 12.3004 43.881 12.1642H44.986C44.986 12.4193 44.9323 12.6486 44.8248 12.8529C44.7174 13.0572 44.563 13.2318 44.3615 13.3757C44.1601 13.5205 43.9184 13.6308 43.6344 13.7075C43.3505 13.7843 43.034 13.8226 42.6819 13.8226L42.68 13.8207ZM41.3707 10.9978H43.8445C43.8445 10.8222 43.8148 10.6716 43.7553 10.5469C43.6958 10.4222 43.6124 10.3186 43.504 10.2361C43.3966 10.1537 43.2719 10.0942 43.1299 10.0577C42.9879 10.0213 42.8354 10.0021 42.6704 10.0021C42.4153 10.0021 42.1947 10.0385 42.0076 10.1124C41.8206 10.1863 41.6748 10.2966 41.5702 10.4443C41.4657 10.592 41.3985 10.7762 41.3707 10.9968V10.9978Z" fill="white"/>
<path d="M47.3724 13.8205C46.959 13.8205 46.6003 13.737 46.2971 13.5701C45.994 13.4032 45.7581 13.1452 45.5912 12.796C45.4243 12.4478 45.3398 12.0066 45.3398 11.4742C45.3398 10.9419 45.4233 10.5025 45.5912 10.1563C45.7581 9.81094 45.9892 9.55387 46.2837 9.38697C46.5782 9.22007 46.9187 9.13565 47.3043 9.13565C47.5249 9.13565 47.7321 9.15963 47.9249 9.2076C48.1177 9.25556 48.2904 9.32846 48.4439 9.42438C48.5973 9.52126 48.7268 9.6402 48.8352 9.78121H48.8947V7.56158H49.9997V13.7178H49.098L49.004 13.0627H48.9359C48.7604 13.3293 48.5379 13.5221 48.2683 13.6411C47.9988 13.76 47.6995 13.8195 47.3715 13.8195L47.3724 13.8205ZM47.687 12.8766C47.9537 12.8766 48.1762 12.8238 48.3547 12.7193C48.5331 12.6147 48.6674 12.4632 48.7585 12.2646C48.8487 12.0661 48.8947 11.8224 48.8947 11.5337V11.4406C48.8947 11.2248 48.8688 11.033 48.818 10.8622C48.7671 10.6925 48.6894 10.5495 48.5839 10.4325C48.4794 10.3164 48.3518 10.2282 48.2012 10.1687C48.0506 10.1093 47.877 10.0795 47.6784 10.0795C47.406 10.0795 47.1806 10.1294 47.0022 10.2282C46.8237 10.327 46.6904 10.4766 46.6022 10.6742C46.5139 10.8728 46.4708 11.1222 46.4708 11.4224V11.5414C46.4708 11.8358 46.5158 12.0824 46.607 12.2809C46.6971 12.4795 46.8324 12.6282 47.0108 12.727C47.1892 12.8267 47.4146 12.8756 47.687 12.8756V12.8766Z" fill="white"/>
</g>
<defs>
<clipPath id="clip0_4276_22783">
<rect width="50" height="13.8204" fill="white"/>
</clipPath>
</defs>
</svg>
