<svg width="255" height="249" viewBox="0 0 255 249" fill="none" xmlns="http://www.w3.org/2000/svg">
<path d="M156.806 145.32L155.603 152.378L147.434 195.441H146.118L152.057 152.378L152.936 145.32H156.806Z" fill="#DBDBDB"/>
<path d="M152.935 145.32H156.806L155.602 152.378H152.057L152.935 145.32Z" fill="#A6A6A6"/>
<path d="M182.45 195.441H181.134L172.971 152.378L171.762 145.32H175.638L176.512 152.378L182.45 195.441Z" fill="#DBDBDB"/>
<path d="M175.638 145.32L176.512 152.378H172.971L171.762 145.32H175.638Z" fill="#A6A6A6"/>
<path d="M206.946 195.441H205.63L197.467 152.378L196.258 145.32H200.134L201.008 152.378L206.946 195.441Z" fill="#DBDBDB"/>
<path d="M201.008 152.378H197.467L196.258 145.32H200.134L201.008 152.378Z" fill="#A6A6A6"/>
<path d="M204.858 148.633H145.016V142.478H167.418L174.947 99.7078H202.577L204.858 148.633Z" fill="#DBDBDB"/>
<path d="M204.857 148.633H201.596L199.473 99.7078H202.577L204.857 148.633Z" fill="#A6A6A6"/>
<path d="M148.053 107.544L153.402 110.783L154.418 109.186C154.565 108.956 154.774 108.771 155.023 108.651C155.271 108.531 155.549 108.481 155.825 108.507C156.135 108.531 156.45 108.541 156.765 108.536C157.042 108.528 157.315 108.595 157.555 108.73C157.794 108.865 157.99 109.062 158.122 109.3L159.036 110.957L164.583 108.05L163.674 106.394C163.544 106.155 163.484 105.886 163.502 105.616C163.52 105.346 163.615 105.086 163.776 104.866C163.959 104.614 164.129 104.352 164.284 104.082C164.417 103.845 164.615 103.649 164.855 103.513C165.095 103.378 165.368 103.309 165.645 103.314L167.57 103.373L167.763 97.2276L165.833 97.1731C165.556 97.1596 165.288 97.0725 165.058 96.9213C164.828 96.7701 164.644 96.5605 164.527 96.315C164.461 96.1811 164.395 96.0472 164.319 95.9132C164.243 95.7793 164.172 95.6454 164.091 95.5214C163.946 95.2917 163.869 95.0273 163.869 94.7576C163.869 94.4879 163.946 94.2235 164.091 93.9937L165.107 92.3817L159.757 89.1428L158.741 90.7449C158.595 90.9744 158.385 91.1593 158.136 91.2785C157.888 91.3977 157.61 91.4466 157.334 91.4195C157.024 91.3947 156.709 91.3848 156.399 91.3897C156.123 91.3955 155.851 91.328 155.611 91.1943C155.371 91.0606 155.173 90.8659 155.038 90.6308L154.083 88.9692L148.536 91.8758L149.445 93.5324C149.575 93.7711 149.635 94.0405 149.617 94.3104C149.599 94.5803 149.504 94.8399 149.343 95.0601C149.165 95.3131 149.003 95.5561 148.835 95.8388C148.705 96.0781 148.509 96.2772 148.27 96.4139C148.03 96.5506 147.756 96.6194 147.479 96.6126L145.549 96.5531L145.355 102.694L147.286 102.753C147.562 102.765 147.829 102.852 148.058 103.003C148.287 103.155 148.468 103.365 148.581 103.611C148.647 103.745 148.718 103.879 148.795 104.018C148.871 104.157 148.942 104.281 149.023 104.41C149.169 104.64 149.246 104.905 149.246 105.176C149.246 105.447 149.169 105.712 149.023 105.942L148.053 107.544ZM152.051 102.341C151.57 101.464 151.366 100.466 151.466 99.4751C151.565 98.4842 151.963 97.5444 152.61 96.7744C153.256 96.0045 154.122 95.439 155.098 95.1495C156.074 94.86 157.115 94.8594 158.091 95.148C159.067 95.4365 159.934 96.0011 160.581 96.7704C161.229 97.5397 161.628 98.4791 161.728 99.4699C161.829 100.461 161.626 101.458 161.146 102.337C160.666 103.215 159.93 103.935 159.031 104.405C158.434 104.718 157.78 104.913 157.106 104.979C156.431 105.045 155.75 104.98 155.102 104.789C154.453 104.597 153.85 104.282 153.326 103.862C152.803 103.442 152.369 102.925 152.051 102.341Z" fill="#EBEBEB"/>
<path d="M195.597 91.0972L197.801 94.8271L198.97 94.1674C199.138 94.0736 199.33 94.0276 199.524 94.0346C199.718 94.0416 199.906 94.1014 200.067 94.2071C200.255 94.3212 200.443 94.4303 200.641 94.5295C200.814 94.6138 200.96 94.7433 201.062 94.9035C201.164 95.0637 201.219 95.2484 201.22 95.4372V96.7565H205.63V95.4372C205.628 95.2472 205.682 95.0606 205.785 94.8997C205.889 94.7388 206.038 94.6103 206.214 94.5295C206.407 94.4303 206.6 94.3212 206.783 94.2071C206.944 94.1014 207.132 94.0416 207.326 94.0346C207.52 94.0276 207.712 94.0736 207.88 94.1674L209.054 94.8271L211.253 91.0972L210.08 90.4375C209.914 90.3404 209.779 90.2006 209.689 90.0335C209.6 89.8664 209.559 89.6784 209.572 89.4902C209.572 89.386 209.572 89.2769 209.572 89.1727C209.572 89.0686 209.572 88.9594 209.572 88.8553C209.558 88.6669 209.598 88.4785 209.688 88.3111C209.778 88.1438 209.913 88.0042 210.08 87.9079L211.253 87.2433L209.054 83.5133L207.88 84.173C207.712 84.2715 207.519 84.3206 207.324 84.3144C207.128 84.3083 206.939 84.2471 206.778 84.1383C206.595 84.0203 206.405 83.9126 206.209 83.8159C206.036 83.7316 205.89 83.6022 205.788 83.4419C205.686 83.2817 205.631 83.097 205.63 82.9082V81.5889H201.22V82.9082C201.219 83.097 201.164 83.2817 201.062 83.4419C200.96 83.6022 200.814 83.7316 200.641 83.8159C200.446 83.9137 200.256 84.0213 200.072 84.1383C199.912 84.2461 199.723 84.3067 199.529 84.3128C199.334 84.319 199.142 84.2705 198.975 84.173L197.801 83.5133L195.597 87.2433L196.77 87.9079C196.936 88.0046 197.072 88.1443 197.161 88.3115C197.251 88.4787 197.291 88.667 197.278 88.8553C197.278 88.9594 197.278 89.0636 197.278 89.1727C197.278 89.2818 197.278 89.386 197.278 89.4902C197.291 89.6784 197.25 89.8664 197.16 90.0335C197.071 90.2006 196.936 90.3404 196.77 90.4375L195.597 91.0972ZM199.813 89.1727C199.813 88.4752 200.025 87.7934 200.422 87.2135C200.819 86.6335 201.383 86.1815 202.043 85.9146C202.703 85.6477 203.429 85.5778 204.13 85.7139C204.83 85.85 205.474 86.1859 205.979 86.6791C206.484 87.1723 206.828 87.8006 206.967 88.4847C207.107 89.1688 207.035 89.8779 206.762 90.5223C206.489 91.1667 206.026 91.7174 205.432 92.1049C204.838 92.4924 204.139 92.6993 203.425 92.6993C202.95 92.7006 202.479 92.6103 202.04 92.4337C201.6 92.257 201.201 91.9975 200.864 91.6699C200.528 91.3423 200.261 90.9531 200.079 90.5246C199.897 90.0961 199.803 89.6367 199.803 89.1727H199.813Z" fill="#EBEBEB"/>
<path d="M31.3301 130.008L33.5348 133.718L34.7032 133.064C34.8709 132.965 35.0641 132.916 35.2596 132.922C35.4552 132.929 35.6447 132.99 35.8056 133.098C35.9884 133.213 36.1764 133.322 36.3745 133.421C36.5498 133.502 36.6974 133.631 36.8001 133.792C36.9027 133.953 36.956 134.139 36.9536 134.329V135.648H41.3682V134.329C41.3658 134.139 41.4191 133.953 41.5217 133.792C41.6244 133.631 41.772 133.502 41.9473 133.421C42.1454 133.322 42.3334 133.213 42.5162 133.098C42.677 132.99 42.8666 132.929 43.0622 132.922C43.2577 132.916 43.4509 132.965 43.6186 133.064L44.787 133.718L46.9917 129.994L45.8182 129.329C45.6518 129.233 45.5161 129.093 45.4264 128.926C45.3367 128.758 45.2964 128.57 45.3102 128.382C45.3102 128.277 45.3102 128.168 45.3102 128.064C45.3102 127.96 45.3102 127.851 45.3102 127.747C45.297 127.558 45.3375 127.37 45.4272 127.203C45.5168 127.036 45.6522 126.896 45.8182 126.799L46.9968 126.135L44.7921 122.41L43.6186 123.069C43.4501 123.163 43.258 123.209 43.0642 123.202C42.8703 123.195 42.6823 123.135 42.5213 123.03C42.3375 122.913 42.1476 122.805 41.9524 122.707C41.7785 122.628 41.6314 122.501 41.528 122.343C41.4246 122.185 41.3692 122.002 41.3682 121.814V120.495H36.9536V121.814C36.956 122.004 36.9027 122.19 36.8001 122.351C36.6974 122.512 36.5498 122.641 36.3745 122.722C36.1793 122.82 35.9894 122.928 35.8056 123.045C35.6446 123.15 35.4566 123.21 35.2627 123.217C35.0688 123.224 34.8768 123.178 34.7083 123.084L33.5348 122.425L31.3301 126.15L32.5036 126.814C32.67 126.91 32.8057 127.05 32.8954 127.217C32.9851 127.385 33.0254 127.573 33.0116 127.762C33.0116 127.866 33.0116 127.97 33.0116 128.079C33.0116 128.188 33.0116 128.292 33.0116 128.396C33.0246 128.585 32.9841 128.774 32.8944 128.942C32.8048 129.11 32.6696 129.251 32.5036 129.349L31.3301 130.008ZM35.5465 128.079C35.5455 127.38 35.7569 126.697 36.1539 126.115C36.551 125.534 37.1158 125.08 37.7769 124.812C38.4381 124.544 39.1657 124.474 39.8678 124.61C40.5699 124.746 41.2149 125.083 41.721 125.577C42.2272 126.071 42.5717 126.701 42.7111 127.386C42.8505 128.072 42.7785 128.782 42.5041 129.428C42.2297 130.073 41.7653 130.625 41.1697 131.012C40.5742 131.4 39.8742 131.606 39.1584 131.606C38.2004 131.606 37.2817 131.234 36.6044 130.573C35.927 129.911 35.5465 129.014 35.5465 128.079Z" fill="#EBEBEB"/>
<path d="M102.618 124.795L91.599 195.406H89.4248L96.2269 124.795H102.618Z" fill="#EBEBEB"/>
<path d="M102.613 124.795L101.561 131.541H95.5771L96.2274 124.795H102.613Z" fill="#A6A6A6"/>
<path d="M203.517 124.795L214.535 195.406H216.709L209.907 124.795H203.517Z" fill="#EBEBEB"/>
<path d="M203.521 124.795L204.573 131.541H210.557L209.907 124.795H203.521Z" fill="#A6A6A6"/>
<path d="M220.809 117.331H85.3301V123.327H220.809V117.331Z" fill="#EBEBEB"/>
<path d="M218.747 123.327H87.3828V124.795H218.747V123.327Z" fill="#C7C7C7"/>
<path d="M127.667 222.8C184.621 222.8 230.791 217.677 230.791 211.358C230.791 205.038 184.621 199.915 127.667 199.915C70.7132 199.915 24.543 205.038 24.543 211.358C24.543 217.677 70.7132 222.8 127.667 222.8Z" fill="#EBEBEB"/>
<path d="M15.7598 195.461L43.7353 195.342L71.7109 195.297L127.667 195.213L183.623 195.297L211.599 195.337L239.574 195.461L211.599 195.58L183.623 195.624L127.667 195.709L71.7109 195.624L43.7353 195.58L15.7598 195.461Z" fill="#263238"/>
<path d="M85.8891 75.0021C96.7889 75.0021 105.625 66.3748 105.625 55.7325C105.625 45.0902 96.7889 36.4629 85.8891 36.4629C74.9893 36.4629 66.1533 45.0902 66.1533 55.7325C66.1533 66.3748 74.9893 75.0021 85.8891 75.0021Z" fill="#4F48EC"/>
<path d="M85.8893 70.4389C94.208 70.4389 100.952 63.8546 100.952 55.7325C100.952 47.6104 94.208 41.0261 85.8893 41.0261C77.5707 41.0261 70.8271 47.6104 70.8271 55.7325C70.8271 63.8546 77.5707 70.4389 85.8893 70.4389Z" fill="white"/>
<path d="M96.3682 58.1767C97.747 52.5304 94.1767 46.8617 88.3937 45.5155C82.6107 44.1693 76.8049 47.6553 75.4262 53.3017C74.0474 58.9481 77.6177 64.6167 83.4007 65.9629C89.1837 67.3091 94.9895 63.8231 96.3682 58.1767Z" fill="#4F48EC"/>
<path d="M91.6951 57.0344C92.4303 53.9052 90.4282 50.7865 87.2232 50.0687C84.0183 49.3508 80.8242 51.3057 80.089 54.4349C79.3538 57.5641 81.3559 60.6828 84.5608 61.4006C87.7658 62.1184 90.9599 60.1636 91.6951 57.0344Z" fill="white"/>
<path d="M88.5811 55.7326C88.5811 56.2525 88.4232 56.7607 88.1273 57.193C87.8315 57.6254 87.411 57.9623 86.919 58.1613C86.4271 58.3602 85.8857 58.4123 85.3634 58.3109C84.8412 58.2094 84.3614 57.9591 83.9849 57.5914C83.6083 57.2238 83.3519 56.7554 83.248 56.2454C83.1441 55.7355 83.1975 55.2069 83.4012 54.7266C83.605 54.2462 83.9501 53.8357 84.3929 53.5468C84.8356 53.2579 85.3562 53.1038 85.8887 53.1038C86.2424 53.1031 86.5929 53.1707 86.9198 53.3025C87.2468 53.4344 87.5438 53.628 87.794 53.8723C88.0441 54.1165 88.2424 54.4066 88.3775 54.7258C88.5126 55.045 88.5818 55.3872 88.5811 55.7326Z" fill="#4F48EC"/>
<path d="M112.845 28.8187L87.3408 53.7202L87.9515 54.3164L113.455 29.415L112.845 28.8187Z" fill="#455A64"/>
<path d="M89.2212 54.8594L85.8887 55.7324L86.7828 52.4736L89.2212 54.8594Z" fill="#263238"/>
<path d="M117.415 27.4952L112.635 32.1625L108.881 33.2785L110.029 29.618L114.809 24.9507L113.666 28.6112L117.415 27.4952Z" fill="#263238"/>
<path d="M54.5756 143.078C54.5756 142.741 54.54 142.403 54.54 142.086H54.921C54.921 142.408 54.921 142.736 54.9566 143.078H54.5756Z" fill="#263238"/>
<path d="M93.9351 171.91H93.8691V171.538H93.9402C94.5803 171.538 95.2407 171.538 95.896 171.489V171.861C95.2508 171.881 94.5853 171.91 93.9351 171.91ZM91.3138 171.826C90.6382 171.786 89.9524 171.727 89.2818 171.657L89.3225 171.285C89.9879 171.36 90.6687 171.414 91.3545 171.459L91.3138 171.826ZM98.4614 171.672L98.4207 171.3C99.0862 171.231 99.7619 171.142 100.427 171.042L100.483 171.409C99.8127 171.499 99.1319 171.583 98.4614 171.657V171.672ZM86.7774 171.305C86.1119 171.191 85.4413 171.062 84.7454 170.913L84.8317 170.551C85.4921 170.695 86.1576 170.824 86.818 170.938L86.7774 171.305ZM103.033 170.953L102.952 170.591C103.607 170.452 104.273 170.293 104.923 170.13L105.02 170.487C104.329 170.641 103.658 170.799 102.998 170.918L103.033 170.953ZM82.307 170.298C81.6567 170.115 81.0014 169.917 80.3563 169.703L80.4782 169.351C81.1183 169.564 81.7685 169.763 82.4137 169.941L82.307 170.298ZM107.468 169.802L107.351 169.45C107.981 169.247 108.626 169.029 109.267 168.796L109.399 169.143C108.718 169.346 108.068 169.564 107.433 169.768L107.468 169.802ZM77.9636 168.85C77.3337 168.602 76.7037 168.354 76.0891 168.061L76.2465 167.719C76.8561 167.997 77.4861 168.26 78.1058 168.508L77.9636 168.85ZM111.766 168.21L111.613 167.868C112.233 167.61 112.848 167.327 113.442 167.03L113.615 167.362C112.975 167.625 112.355 167.913 111.73 168.176L111.766 168.21ZM73.798 166.95C73.1935 166.633 72.594 166.306 72.02 165.958L72.213 165.641C72.7871 165.973 73.3814 166.301 73.9809 166.633L73.798 166.95ZM115.845 166.157L115.647 165.839C116.221 165.502 116.795 165.14 117.354 164.768L117.567 165.076C116.968 165.418 116.389 165.78 115.81 166.122L115.845 166.157ZM69.861 164.634C69.292 164.262 68.7332 163.875 68.1897 163.483L68.4182 163.186C68.9262 163.573 69.5105 163.96 70.0743 164.327L69.861 164.634ZM119.645 163.597L119.411 163.31C119.919 162.903 120.458 162.477 120.961 162.04L121.215 162.323C120.646 162.725 120.117 163.156 119.584 163.563L119.645 163.597ZM66.2135 161.936C65.7055 161.504 65.1975 161.063 64.6895 160.617L64.9486 160.344C65.4566 160.785 65.9646 161.227 66.4726 161.648L66.2135 161.936ZM123.079 160.621L122.81 160.359C123.277 159.902 123.75 159.426 124.212 158.935L124.491 159.183C123.963 159.644 123.491 160.13 123.018 160.587L123.079 160.621ZM62.7947 158.826C62.3273 158.33 61.8651 157.834 61.4231 157.338L61.7127 157.095C62.1495 157.591 62.6067 158.087 63.069 158.583L62.7947 158.826ZM126.112 157.273L125.822 157.035C126.249 156.539 126.676 156.019 127.087 155.493L127.387 155.721C126.97 156.247 126.544 156.773 126.112 157.273ZM59.8229 155.399C59.4165 154.863 59.0203 154.312 58.6494 153.762L58.9694 153.558C59.3352 154.099 59.7264 154.645 60.1328 155.175L59.8229 155.399ZM128.911 153.722L128.596 153.504C128.987 152.968 129.373 152.428 129.749 151.877L130.069 152.08C129.698 152.636 129.302 153.181 128.911 153.722ZM57.3388 151.619C57.0035 151.024 56.6987 150.419 56.4244 149.829L56.7698 149.675C57.0441 150.26 57.3439 150.855 57.669 151.441L57.3388 151.619ZM131.456 149.992L131.131 149.794C131.492 149.238 131.842 148.673 132.193 148.102L132.518 148.296C132.167 148.866 131.817 149.432 131.456 149.992ZM55.4947 147.512C55.2763 146.862 55.0934 146.213 54.9512 145.583L55.322 145.503C55.4642 146.123 55.642 146.758 55.83 147.398L55.4947 147.512ZM133.808 146.168L133.473 145.985C133.808 145.409 134.138 144.834 134.489 144.253L134.824 144.432C134.473 144.997 134.138 145.573 133.808 146.148V146.168ZM136.013 142.245L135.677 142.066C135.996 141.484 136.311 140.899 136.622 140.31L136.963 140.484C136.648 141.054 136.333 141.654 136.013 142.225V142.245ZM138.126 138.277L137.791 138.108C138.096 137.518 138.4 136.928 138.71 136.337L139.051 136.501L138.126 138.277ZM140.188 134.279L139.848 134.115L140.757 132.335L141.098 132.503L140.188 134.279ZM142.22 130.281L141.88 130.113L142.8 128.337L143.14 128.505L142.22 130.281ZM144.293 126.313L143.958 126.145L144.893 124.379L145.233 124.552L144.293 126.313ZM146.422 122.345L146.086 122.167C146.406 121.586 146.732 121.006 147.057 120.426L147.392 120.604C147.077 121.155 146.757 121.735 146.462 122.31L146.422 122.345ZM148.631 118.447L148.296 118.263C148.631 117.688 148.972 117.117 149.312 116.547L149.642 116.735C149.317 117.276 149.002 117.846 148.647 118.417L148.631 118.447ZM150.953 114.617L150.628 114.419C150.983 113.859 151.339 113.298 151.705 112.743L152.03 112.941C151.679 113.467 151.319 114.027 150.968 114.588L150.953 114.617ZM153.417 110.873L153.097 110.664C153.478 110.114 153.864 109.568 154.255 109.023L154.565 109.241C154.189 109.752 153.808 110.297 153.432 110.843L153.417 110.873ZM156.053 107.227L155.743 107.009C156.15 106.478 156.561 105.947 156.983 105.427L157.283 105.655C156.881 106.146 156.47 106.672 156.069 107.197L156.053 107.227ZM158.873 103.725L158.578 103.487C159.015 102.991 159.457 102.47 159.904 101.974L160.188 102.217C159.757 102.684 159.32 103.19 158.888 103.696L158.873 103.725ZM161.921 100.387L161.641 100.129C162.109 99.6333 162.576 99.172 163.059 98.7008L163.328 98.9637C162.84 99.4002 162.373 99.8764 161.911 100.357L161.921 100.387ZM165.152 97.2376L164.887 96.9648C165.395 96.5135 165.903 96.0671 166.411 95.6306L166.66 95.9084C166.132 96.3151 165.629 96.7615 165.141 97.2079L165.152 97.2376ZM168.586 94.3112L168.347 94.0236C168.855 93.602 169.414 93.1903 169.947 92.7935L170.181 93.0861C169.642 93.4532 169.104 93.8648 168.576 94.2815L168.586 94.3112ZM172.223 91.6279L172.005 91.3253C172.558 90.9484 173.127 90.5714 173.696 90.2093L173.904 90.5218C173.33 90.8492 172.767 91.2261 172.213 91.5981L172.223 91.6279ZM176.053 89.2074L175.855 88.8899C176.439 88.5477 177.034 88.2104 177.623 87.8979L177.806 88.2204C177.212 88.508 176.622 88.8404 176.043 89.1776L176.053 89.2074Z" fill="#263238"/>
<path d="M180.138 86.9754L179.965 86.6431L180.879 86.2017L181.047 86.534L180.138 86.9754Z" fill="#263238"/>
<path d="M175.388 83.5431L172.604 91.003L178.452 86.5489L200.793 78.6377L175.388 83.5431Z" fill="#4F48EC"/>
<path opacity="0.1" d="M175.388 83.5431L172.604 91.003L178.452 86.5489L200.793 78.6377L175.388 83.5431Z" fill="#17153E"/>
<path d="M179.198 88.2898L172.604 91.0029L178.452 86.5488L179.198 88.2898Z" fill="#263238"/>
<path d="M178.451 86.5489L200.793 78.6377L182.464 96.0969L178.451 86.5489Z" fill="#4F48EC"/>
<path d="M175.389 83.5431L166.107 77.6853L200.794 78.6376L175.389 83.5431Z" fill="#4F48EC"/>
<path d="M87.4032 191.156H34.2461V193.025H87.4032V191.156Z" fill="#455A64"/>
<path d="M87.4032 203.144H34.2461V205.014H87.4032V203.144Z" fill="#455A64"/>
<path d="M87.4032 204.359H34.2461V205.009H87.4032V204.359Z" fill="#37474F"/>
<path d="M89.166 205.014H32.4834V208.019H89.166V205.014Z" fill="#455A64"/>
<path d="M84.7765 193.025H36.8721V203.144H84.7765V193.025Z" fill="#455A64"/>
<path d="M84.7765 193.025H36.8721V195.446H84.7765V193.025Z" fill="#37474F"/>
<path d="M84.7765 200.723H36.8721V203.144H84.7765V200.723Z" fill="#37474F"/>
<path d="M49.9433 141.833C49.9433 141.833 46.6921 137.766 46.8191 137.369C46.9461 136.972 55.1807 133.277 60.2506 134.393C65.3204 135.509 79.6765 142.473 82.5061 153.608C85.3356 164.743 77.1009 180.7 76.8927 184.41C76.7865 186.721 77.1883 189.028 78.0712 191.175H73.8904C73.8904 191.175 71.6552 187.009 73.0471 180.759C74.439 174.51 78.0712 162.74 76.4659 156.307C74.8607 149.873 63.9691 141.298 60.7179 140.142C57.4667 138.986 49.9433 141.833 49.9433 141.833Z" fill="#263238"/>
<path d="M76.1764 191.155H42.0591C42.0591 191.155 42.0591 182.525 45.4373 177.084C48.8155 171.643 56.9181 166.033 58.5539 163.449C59.5297 161.903 59.968 160.09 59.8035 158.281C58.2705 160.309 56.0516 161.743 53.5399 162.328C51.148 162.9 48.6408 162.814 46.2958 162.08C46.2958 162.08 40.591 163.895 40.1998 164.277C39.8087 164.659 38.5133 165.765 37.4973 165.81C36.4813 165.855 33.291 162.487 33.291 159.511C33.291 157.031 44.1368 147.815 44.1368 147.815C44.1368 147.815 45.5999 144.403 45.9961 143.634C46.3923 142.865 56.4101 138.178 59.0568 138.356C61.7035 138.535 73.3265 144.804 77.1924 152.983C80.9059 160.845 76.8927 173.359 75.5007 178.775C73.4738 186.731 76.1764 191.155 76.1764 191.155Z" fill="#455A64"/>
<path d="M46.2959 152.209L52.0465 149.134C52.0465 149.134 49.9383 148.638 48.6479 149.214C47.3576 149.789 46.2959 152.209 46.2959 152.209Z" fill="#263238"/>
<path d="M54.7239 142.443C54.7239 142.443 50.0198 134.954 49.9436 134.115C49.8979 133.58 56.4866 134.983 58.2596 136.179C60.0325 137.374 63.4564 141.05 63.4564 141.05L54.7239 142.443Z" fill="#455A64"/>
<path d="M52.0469 135.663C52.0469 135.663 55.3235 136.615 55.9686 137.349C56.6706 138.29 57.3168 139.268 57.9041 140.281" fill="#263238"/>
<path d="M42.1561 189.048L74.79 185.724C75.0186 189.256 76.1768 191.156 76.1768 191.156H42.0596L42.1561 189.048Z" fill="#37474F"/>
<path d="M218.772 31.0068H155.582V69.8734H218.772V31.0068Z" fill="#EBEBEB"/>
<path d="M160.789 39.9051C169.557 39.8505 178.325 39.8654 187.088 39.8456C195.851 39.8257 204.624 39.8456 213.387 39.9051C204.624 39.9597 195.856 39.9448 187.088 39.9646C178.32 39.9845 169.557 39.9745 160.789 39.9051Z" fill="#A6A6A6"/>
<path d="M160.789 44.9792C169.557 44.9346 178.325 44.9346 187.103 44.9346C195.882 44.9346 204.64 44.9346 213.403 44.9941C204.64 45.0487 195.872 45.0338 187.103 45.0586C178.335 45.0834 169.557 45.0338 160.789 44.9792Z" fill="#A6A6A6"/>
<path d="M160.789 50.0533C169.557 49.9987 178.325 50.0136 187.088 49.9938C195.851 49.9739 204.624 49.9938 213.387 50.0533C204.624 50.1078 195.856 50.093 187.088 50.1178C178.32 50.1426 169.557 50.1078 160.789 50.0533Z" fill="#A6A6A6"/>
<path d="M160.789 55.1273C169.557 55.0727 178.325 55.0876 187.088 55.0677C195.851 55.0479 204.624 55.0677 213.387 55.1273C204.624 55.1818 195.856 55.1669 187.088 55.1917C178.32 55.2165 169.557 55.1818 160.789 55.1273Z" fill="#A6A6A6"/>
<path d="M160.789 60.2015C169.557 60.1469 178.325 60.1618 187.088 60.142C195.851 60.1221 204.624 60.142 213.387 60.2015C204.624 60.256 195.856 60.2412 187.088 60.266C178.32 60.2908 169.557 60.256 160.789 60.2015Z" fill="#A6A6A6"/>
<path d="M171.381 36.6067C171.457 41.3484 171.437 46.0902 171.468 50.832C171.498 55.5737 171.468 60.3105 171.381 65.0523C171.305 60.3105 171.32 55.5688 171.29 50.832C171.259 46.0952 171.305 41.3484 171.381 36.6067Z" fill="#A6A6A6"/>
<path d="M180.5 36.6067C180.581 41.3484 180.561 46.0902 180.591 50.832C180.622 55.5737 180.591 60.3105 180.5 65.0523C180.424 60.3105 180.444 55.5688 180.413 50.832C180.383 46.0952 180.398 41.3484 180.5 36.6067Z" fill="#A6A6A6"/>
<path d="M189.573 36.6067C189.649 41.3484 189.629 46.0902 189.664 50.832C189.7 55.5737 189.664 60.3105 189.573 65.0523C189.496 60.3105 189.512 55.5688 189.481 50.832C189.451 46.0952 189.496 41.3484 189.573 36.6067Z" fill="#A6A6A6"/>
<path d="M198.666 36.6067C198.747 41.3484 198.727 46.0902 198.757 50.832C198.788 55.5737 198.757 60.3105 198.666 65.0523C198.59 60.3105 198.61 55.5688 198.58 50.832C198.549 46.0952 198.59 41.3484 198.666 36.6067Z" fill="#A6A6A6"/>
<path d="M207.764 36.6067C207.84 41.3484 207.82 46.0902 207.856 50.832C207.891 55.5737 207.856 60.3105 207.764 65.0523C207.688 60.3105 207.708 55.5688 207.673 50.832C207.637 46.0952 207.688 41.3484 207.764 36.6067Z" fill="#A6A6A6"/>
<path opacity="0.5" d="M162.115 56.5212C163.721 56.5212 164.655 51.3677 166.951 51.3677C169.248 51.3677 169.466 55.1274 171.381 55.1274C173.296 55.1274 173.235 48.5207 175.811 48.5207C178.386 48.5207 177.782 51.2041 180.474 51.2041C183.167 51.2041 182.151 44.9792 184.965 44.9792C187.779 44.9792 186.641 53.5551 189.573 53.5551C191.427 53.5551 192.143 50.832 194.358 50.832C195.826 50.832 196.69 52.1911 198.605 52.1911C200.52 52.1911 200.942 46.9533 203.334 46.9533C205.727 46.9533 206.001 50.0533 207.764 50.0533C209.527 50.0533 210.157 44.9792 213.388 44.9792V65.0524H162.115V56.5212Z" fill="#4F48EC"/>
<path d="M162.115 56.7691V56.2731C162.623 56.2731 163.268 55.0678 163.761 54.1899C164.599 52.7019 165.468 51.1197 166.951 51.1197C168.435 51.1197 169.085 52.2605 169.705 53.2723C170.213 54.061 170.721 54.8794 171.381 54.8794C171.981 54.8794 172.499 53.2922 172.875 52.1365C173.5 50.2368 174.14 48.2726 175.811 48.2726C177.299 48.2726 177.884 49.0464 178.397 49.7259C178.91 50.4054 179.331 50.956 180.474 50.956C181.49 50.956 181.917 49.5027 182.308 48.0941C182.771 46.4424 183.248 44.7312 184.965 44.7312C186.682 44.7312 187.104 46.8838 187.566 49.1654C187.942 51.0106 188.404 53.307 189.573 53.307C190.269 53.307 190.843 52.7366 191.447 52.1414C192.179 51.4074 193.017 50.584 194.358 50.584C195.083 50.6278 195.784 50.857 196.39 51.2486C197.046 51.6683 197.806 51.9081 198.59 51.943C199.255 51.943 199.86 50.6981 200.347 49.6962C201.064 48.2082 201.805 46.7202 203.319 46.7202C204.833 46.7202 205.57 47.7122 206.225 48.5851C206.702 49.22 207.155 49.8202 207.749 49.8202C208.257 49.8202 208.831 48.8579 209.334 48.0048C210.197 46.5515 211.274 44.7461 213.372 44.7461V45.2421C211.757 45.2421 210.832 46.8094 209.999 48.2181C209.293 49.4035 208.739 50.341 207.749 50.341C206.758 50.341 206.169 49.6118 205.585 48.853C205.001 48.0941 204.391 47.2608 203.319 47.2608C202.303 47.2608 201.638 48.6694 201.028 49.9144C200.357 51.3032 199.773 52.4986 198.59 52.4986C197.652 52.4695 196.739 52.1936 195.948 51.7C195.471 51.381 194.918 51.188 194.343 51.1395C193.378 51.1395 192.687 51.819 192.021 52.4837C191.356 53.1483 190.629 53.8626 189.557 53.8626C187.764 53.8626 187.312 51.6405 186.84 49.2944C186.479 47.5088 186.027 45.2867 184.95 45.2867C183.873 45.2867 183.385 46.859 182.999 48.2627C182.532 49.9392 182.09 51.5264 180.459 51.5264C178.828 51.5264 178.28 50.7278 177.746 50.0384C177.213 49.349 176.847 48.853 175.796 48.853C174.744 48.853 174.068 50.7824 173.566 52.325C172.992 54.0758 172.55 55.4547 171.366 55.4547C170.182 55.4547 169.639 54.5272 169.029 53.5451C168.465 52.6374 167.886 51.695 166.936 51.695C165.986 51.695 165.097 53.2227 164.396 54.4478C163.685 55.7077 163.096 56.7691 162.115 56.7691Z" fill="#4F48EC"/>
<path d="M162.115 36.9143C162.171 41.6065 162.222 46.2937 162.227 50.9858L162.283 65.0524L162.115 64.9383L187.754 64.9681H200.571L213.387 65.0325L200.571 65.097L187.754 65.1218L162.115 65.1516H161.947V65.0325L162.003 50.966C162.008 46.2937 162.054 41.6065 162.115 36.9143Z" fill="#A6A6A6"/>
<path d="M94.185 79.0098H32.6104V112.138H94.185V79.0098Z" fill="#EBEBEB"/>
<path d="M90.6092 83.1912H41.9072V86.0531H90.6092V83.1912Z" fill="white"/>
<path d="M75.613 83.1912H41.9072V86.0531H75.613V83.1912Z" fill="#455A64"/>
<path d="M90.6092 88.667H41.9072V91.5289H90.6092V88.667Z" fill="white"/>
<path d="M85.6308 88.667H41.9072V91.5289H85.6308V88.667Z" fill="#4F48EC"/>
<path d="M90.6092 94.1428H41.9072V97.0047H90.6092V94.1428Z" fill="white"/>
<path d="M72.946 94.1428H41.9072V97.0047H72.946V94.1428Z" fill="#455A64"/>
<path d="M90.6092 99.6187H41.9072V102.481H90.6092V99.6187Z" fill="white"/>
<path d="M77.7263 99.6187H41.9072V102.481H77.7263V99.6187Z" fill="#4F48EC"/>
<path d="M90.6092 105.094H41.9072V107.956H90.6092V105.094Z" fill="white"/>
<path d="M65.2143 105.094H41.9072V107.956H65.2143V105.094Z" fill="#455A64"/>
<path d="M40.3628 93.8352H36.8018V97.3122H40.3628V93.8352Z" fill="#455A64"/>
<path d="M38.2597 95.9431H37.7822V95.4074H38.2597C38.2597 95.3677 38.2597 95.338 38.2597 95.3033C38.2597 95.1644 38.2597 95.0205 38.2597 94.8817C38.2629 94.7441 38.3155 94.6121 38.4084 94.5087C38.5013 94.4053 38.6285 94.3372 38.7677 94.3162C38.9674 94.3038 39.1676 94.3038 39.3672 94.3162V94.8122H39.1741C39.1116 94.8073 39.0487 94.8073 38.9862 94.8122C38.944 94.8171 38.9051 94.837 38.877 94.8681C38.8489 94.8992 38.8335 94.9394 38.8338 94.9809C38.8338 95.1197 38.8338 95.2537 38.8338 95.4025H39.3773C39.3773 95.5761 39.3316 95.7397 39.3062 95.8985C39.3062 95.8985 39.2605 95.9332 39.2402 95.9332H38.8338V97.3071H38.2597V95.9431Z" fill="white"/>
<path d="M40.3628 99.311H36.8018V102.788H40.3628V99.311Z" fill="#4F48EC"/>
<path d="M38.6404 101.231H38.1324V100.928H39.0062V101.107C39.0103 101.323 38.9267 101.533 38.7736 101.69C38.6205 101.847 38.4102 101.938 38.1883 101.945C37.9769 101.965 37.765 101.912 37.5891 101.796C37.4131 101.68 37.284 101.508 37.2239 101.309C37.1638 101.11 37.1765 100.897 37.2598 100.706C37.343 100.515 37.4917 100.359 37.6803 100.263C37.8473 100.177 38.0373 100.142 38.225 100.164C38.4127 100.185 38.5894 100.261 38.7318 100.382C38.6607 100.452 38.5896 100.526 38.5185 100.591C38.4474 100.655 38.4778 100.591 38.4575 100.591C38.3817 100.557 38.3036 100.529 38.2238 100.506C38.1503 100.491 38.0745 100.491 38.0008 100.505C37.9271 100.519 37.8572 100.548 37.795 100.589C37.7329 100.63 37.6799 100.683 37.6393 100.745C37.5986 100.807 37.5711 100.876 37.5584 100.948C37.5429 101.02 37.5423 101.095 37.5568 101.167C37.5712 101.24 37.6003 101.309 37.6424 101.37C37.6845 101.432 37.7388 101.485 37.802 101.525C37.8652 101.566 37.9361 101.594 38.0105 101.608C38.0773 101.625 38.147 101.629 38.2155 101.62C38.284 101.61 38.3497 101.587 38.4087 101.552C38.4677 101.516 38.5186 101.47 38.5585 101.414C38.5983 101.359 38.6262 101.297 38.6404 101.231Z" fill="white"/>
<path d="M39.9716 100.918V101.107C39.9716 101.107 39.9716 101.146 39.9716 101.176H39.7176V101.429H39.4534V101.181H39.1943V100.923H39.4534V100.67H39.7125V100.918H39.9716Z" fill="white"/>
<path d="M40.3628 104.787H36.8018V108.264H40.3628V104.787Z" fill="#455A64"/>
<path d="M37.2432 107.386C37.5274 107.397 37.8071 107.313 38.0356 107.148C37.7054 107.054 37.5734 106.954 37.5276 106.771H37.7461C37.6256 106.736 37.5194 106.665 37.4427 106.568C37.366 106.471 37.3229 106.353 37.3194 106.23L37.5429 106.285C37.3041 105.997 37.2584 105.789 37.4006 105.561C37.5433 105.728 37.7199 105.864 37.9192 105.962C38.1185 106.059 38.3363 106.115 38.5589 106.126C38.5616 106.096 38.5616 106.067 38.5589 106.037C38.5522 105.929 38.5782 105.822 38.6337 105.728C38.6891 105.634 38.7715 105.559 38.8707 105.511C38.9698 105.463 39.0813 105.444 39.1911 105.457C39.301 105.471 39.4044 105.515 39.4885 105.586C39.5055 105.6 39.5262 105.611 39.5485 105.615C39.5709 105.619 39.594 105.618 39.6155 105.61L39.8898 105.511C39.8487 105.621 39.772 105.715 39.6714 105.779L39.9457 105.71C39.8746 105.779 39.8086 105.848 39.7324 105.913C39.7144 105.927 39.7 105.945 39.6903 105.966C39.6806 105.987 39.6759 106.009 39.6765 106.032C39.6782 106.421 39.5305 106.797 39.2625 107.085C38.9945 107.374 38.6257 107.553 38.2287 107.589C37.9015 107.619 37.5726 107.554 37.2838 107.401L37.2432 107.386Z" fill="white"/>
<path d="M40.3882 82.8835H36.8271V86.3605H40.3882V82.8835Z" fill="#455A64"/>
<path d="M39.915 83.9201C39.9216 83.844 39.9115 83.7673 39.8853 83.6953C39.859 83.6233 39.8173 83.5576 39.763 83.5027C39.7086 83.4477 39.6428 83.4047 39.57 83.3766C39.4972 83.3485 39.4191 83.336 39.341 83.3398C38.833 83.3398 38.3605 83.3398 37.8728 83.3398C37.796 83.3362 37.7193 83.3484 37.6477 83.3756C37.576 83.4028 37.511 83.4444 37.4569 83.4977C37.4028 83.5511 37.3607 83.6149 37.3335 83.6851C37.3063 83.7553 37.2944 83.8303 37.2988 83.9052C37.2988 84.1433 37.2988 84.4012 37.2988 84.6195C37.2988 84.8377 37.2988 85.0857 37.2988 85.3188C37.2922 85.3963 37.3026 85.4742 37.3293 85.5474C37.3561 85.6206 37.3985 85.6874 37.4538 85.7433C37.5092 85.7991 37.5761 85.8428 37.6501 85.8714C37.7241 85.9 37.8035 85.9129 37.883 85.9091H39.3359C39.4138 85.9127 39.4916 85.9003 39.5643 85.8725C39.6369 85.8448 39.7027 85.8023 39.7574 85.748C39.8121 85.6937 39.8544 85.6287 39.8815 85.5573C39.9087 85.4859 39.9201 85.4097 39.915 85.3337C39.9184 84.8542 39.9184 84.383 39.915 83.9201ZM39.6813 85.3387C39.6869 85.3845 39.6819 85.431 39.6666 85.4746C39.6513 85.5183 39.6261 85.558 39.5929 85.5909C39.5597 85.6238 39.5194 85.6489 39.4749 85.6645C39.4304 85.6801 39.3829 85.6857 39.3359 85.6809H37.883C37.8356 85.6865 37.7875 85.6815 37.7424 85.6663C37.6972 85.6511 37.6562 85.626 37.6225 85.5931C37.5887 85.5601 37.563 85.5201 37.5475 85.476C37.5319 85.4319 37.5267 85.385 37.5325 85.3387C37.5325 84.8625 37.5325 84.3863 37.5325 83.9102C37.5269 83.8637 37.5321 83.8166 37.5477 83.7723C37.5632 83.7281 37.5888 83.6878 37.6224 83.6545C37.6561 83.6211 37.697 83.5956 37.7421 83.5798C37.7872 83.564 37.8353 83.5582 37.883 83.563H39.3308C39.378 83.5583 39.4257 83.564 39.4704 83.5796C39.5151 83.5951 39.5556 83.6202 39.5892 83.6529C39.6227 83.6857 39.6484 83.7253 39.6643 83.7689C39.6803 83.8126 39.6861 83.8591 39.6813 83.9052C39.6813 84.1433 39.6813 84.4012 39.6813 84.6244C39.6813 84.8476 39.6864 85.1105 39.6813 85.3387Z" fill="white"/>
<path d="M38.6094 83.9549C38.4725 83.9509 38.3376 83.9871 38.2219 84.0587C38.1063 84.1302 38.0152 84.234 37.9605 84.3565C37.9058 84.4791 37.8899 84.6148 37.9148 84.7462C37.9398 84.8777 38.0044 84.9988 38.1005 85.0941C38.1966 85.1893 38.3197 85.2543 38.4539 85.2807C38.5882 85.307 38.7274 85.2935 38.8537 85.2419C38.98 85.1904 39.0877 85.103 39.1627 84.9912C39.2378 84.8794 39.2768 84.7482 39.2748 84.6146C39.2736 84.4417 39.2034 84.2761 39.0791 84.153C38.9549 84.0298 38.7864 83.9587 38.6094 83.9549ZM38.6094 85.0659C38.4908 85.0634 38.3778 85.0159 38.2944 84.9335C38.211 84.8511 38.1636 84.7403 38.1623 84.6245C38.1742 84.5148 38.2272 84.4134 38.3112 84.3396C38.3951 84.2659 38.5041 84.2251 38.617 84.2251C38.7299 84.2251 38.8388 84.2659 38.9228 84.3396C39.0067 84.4134 39.0598 84.5148 39.0716 84.6245C39.071 84.684 39.0582 84.7427 39.034 84.7973C39.0097 84.8519 38.9746 84.9012 38.9306 84.9423C38.8866 84.9834 38.8346 85.0155 38.7777 85.0368C38.7208 85.058 38.6601 85.0679 38.5992 85.0659H38.6094Z" fill="white"/>
<path d="M39.4986 83.935C39.4986 83.9757 39.482 84.0148 39.4524 84.0437C39.4229 84.0725 39.3828 84.0887 39.3411 84.0887C39.2993 84.0887 39.2593 84.0725 39.2297 84.0437C39.2002 84.0148 39.1836 83.9757 39.1836 83.935C39.1849 83.9147 39.1903 83.895 39.1994 83.8768C39.2085 83.8586 39.2212 83.8424 39.2368 83.829C39.2524 83.8157 39.2705 83.8054 39.2901 83.7989C39.3098 83.7924 39.3305 83.7898 39.3512 83.7911C39.3899 83.7924 39.4266 83.8079 39.454 83.8346C39.4814 83.8613 39.4973 83.8972 39.4986 83.935Z" fill="white"/>
<path d="M40.3628 88.3098H36.8018V91.7868H40.3628V88.3098Z" fill="#4F48EC"/>
<path d="M37.2432 91.3354C37.3041 91.137 37.3549 90.9534 37.4108 90.7699C37.431 90.7154 37.431 90.6558 37.4108 90.6013C37.324 90.4264 37.2789 90.2345 37.2791 90.0401C37.2792 89.8457 37.3245 89.6539 37.4116 89.4791C37.4987 89.3043 37.6252 89.1511 37.7817 89.031C37.9383 88.9109 38.1207 88.827 38.3152 88.7857C38.5097 88.7444 38.7113 88.7467 38.9048 88.7925C39.0983 88.8383 39.2786 88.9264 39.4321 89.0501C39.5857 89.1738 39.7085 89.3299 39.7913 89.5067C39.8741 89.6834 39.9147 89.8762 39.9102 90.0705C39.8958 90.3907 39.7608 90.6944 39.5311 90.9233C39.3013 91.1521 38.9931 91.2901 38.6656 91.3105C38.4406 91.3212 38.2162 91.2804 38.0102 91.1915C37.9693 91.1767 37.9242 91.1767 37.8832 91.1915L37.2432 91.3354ZM37.5632 91.0328C37.6953 91.003 37.807 90.9683 37.9188 90.9485C37.9365 90.9411 37.9555 90.9373 37.9747 90.9373C37.9939 90.9373 38.0129 90.9411 38.0306 90.9485C38.1956 91.0321 38.3781 91.0779 38.564 91.0824C38.7248 91.0846 38.8842 91.0522 39.0308 90.9876C39.1775 90.923 39.3077 90.8276 39.4124 90.7084C39.5171 90.5891 39.5937 90.4488 39.6367 90.2975C39.6797 90.1461 39.6881 89.9874 39.6612 89.8325C39.6317 89.626 39.5362 89.434 39.3885 89.2835C39.2408 89.133 39.0483 89.0318 38.8383 88.9942C38.6296 88.9475 38.4115 88.9612 38.2106 89.0335C38.0097 89.1058 37.8348 89.2336 37.7071 89.4014C37.5794 89.5692 37.5045 89.7697 37.4916 89.9784C37.4787 90.1871 37.5283 90.3949 37.6343 90.5765C37.6495 90.6165 37.6495 90.6605 37.6343 90.7005C37.6203 90.8123 37.6 90.9232 37.5734 91.0328H37.5632Z" fill="white"/>
<path d="M38.0108 89.5249C38.1022 89.4058 38.2191 89.4257 38.2851 89.5596C38.3059 89.5993 38.3229 89.6408 38.3359 89.6836C38.358 89.7154 38.3667 89.7544 38.3601 89.7923C38.3534 89.8302 38.332 89.8641 38.3003 89.887C38.2916 89.8949 38.2846 89.9045 38.2798 89.9151C38.275 89.9258 38.2725 89.9373 38.2725 89.949C38.2725 89.9606 38.275 89.9721 38.2798 89.9828C38.2846 89.9935 38.2916 90.0031 38.3003 90.011C38.3987 90.157 38.538 90.2723 38.7017 90.3433C38.722 90.3545 38.746 90.3576 38.7687 90.3521C38.7913 90.3466 38.811 90.3328 38.8236 90.3135C38.9404 90.1796 38.9404 90.1796 39.103 90.254L39.1588 90.2838C39.1872 90.2906 39.2127 90.3055 39.2324 90.3265C39.252 90.3475 39.2648 90.3738 39.2692 90.4019C39.2735 90.4301 39.2692 90.4589 39.2568 90.4846C39.2444 90.5104 39.2245 90.532 39.1995 90.5467C39.1529 90.593 39.0941 90.6259 39.0295 90.6417C38.965 90.6574 38.8972 90.6554 38.8337 90.6359C38.4973 90.5465 38.2096 90.3331 38.0311 90.0407C37.969 89.957 37.9353 89.8564 37.9346 89.7531C37.9365 89.6713 37.963 89.592 38.0108 89.5249Z" fill="white"/>
<path d="M85.3045 216.615C86.417 216.967 118.238 216.561 119.437 215.797C119.899 215.514 120.108 210.981 120.204 205.5V205.331C120.204 204.2 120.24 203.035 120.24 201.859C120.24 201.695 120.24 201.532 120.24 201.363L118.716 185.243L97.4305 185.451L99.5285 201.418V202.053L99.6555 205.356V205.693C99.6555 205.693 87.5448 211.149 86.3154 212.141C85.0861 213.133 84.1869 216.268 85.3045 216.615Z" fill="#DD6A57"/>
<path d="M85.3046 216.615C86.4171 216.967 118.238 216.56 119.437 215.797C119.899 215.514 120.108 210.98 120.204 205.5V205.331C120.204 204.2 120.24 203.035 120.24 201.859C120.24 201.695 120.24 201.532 120.24 201.363L99.5083 201.418V202.052L99.6353 205.356V205.693C99.6353 205.693 87.5245 211.149 86.2952 212.141C85.0658 213.133 84.187 216.268 85.3046 216.615Z" fill="#EBEBEB"/>
<path d="M85.2993 216.61C85.8734 216.794 94.5195 216.774 102.968 216.61C104.669 216.58 106.356 216.541 107.966 216.496C113.991 216.337 118.975 216.094 119.437 215.802C119.899 215.509 120.102 211.114 120.194 205.733C120.194 205.658 120.194 205.584 120.194 205.505C120.194 205.425 120.194 205.386 120.194 205.331H120.168L99.6656 205.366V205.708C99.6656 205.708 87.5599 211.164 86.3306 212.156C85.1012 213.148 84.1868 216.263 85.2993 216.61Z" fill="#4F48EC"/>
<path d="M85.6501 215.405C91.0095 215.206 112.655 214.909 117.969 215.112C118.015 215.112 118.015 215.142 117.969 215.147C112.66 215.454 91.0146 215.583 85.6501 215.489C85.5333 215.489 85.5333 215.41 85.6501 215.405Z" fill="#263238"/>
<path d="M97.3895 205.45C99.4926 205.038 102.078 205.326 103.714 206.769C103.775 206.829 103.714 206.913 103.623 206.893C101.598 206.282 99.5115 205.886 97.3997 205.713C97.3681 205.708 97.3393 205.693 97.318 205.67C97.2968 205.647 97.2845 205.617 97.2833 205.586C97.2821 205.555 97.292 205.524 97.3114 205.499C97.3308 205.474 97.3584 205.457 97.3895 205.45Z" fill="#263238"/>
<path d="M95.8762 206.368C97.9844 205.956 100.57 206.239 102.201 207.687C102.262 207.742 102.201 207.831 102.114 207.811C100.089 207.203 98.0029 206.807 95.8915 206.631C95.8558 206.632 95.8207 206.621 95.7941 206.597C95.7674 206.574 95.7513 206.541 95.7492 206.507C95.7472 206.472 95.7595 206.437 95.7833 206.411C95.8071 206.385 95.8405 206.37 95.8762 206.368Z" fill="#263238"/>
<path d="M94.3673 207.285C96.4705 206.874 99.0562 207.156 100.687 208.605C100.753 208.659 100.687 208.744 100.6 208.724C98.5746 208.117 96.4887 207.721 94.3775 207.543C94.3425 207.545 94.3083 207.532 94.2826 207.509C94.2569 207.486 94.2417 207.453 94.2403 207.419C94.239 207.385 94.2516 207.352 94.2754 207.327C94.2992 207.302 94.3323 207.287 94.3673 207.285Z" fill="#263238"/>
<path d="M102.968 216.605C104.67 216.575 106.356 216.536 107.966 216.491C113.991 216.332 118.975 216.089 119.437 215.797C119.899 215.504 120.103 211.11 120.194 205.728C120.194 205.654 120.194 205.579 120.194 205.5C120.194 205.42 120.194 205.381 120.194 205.326H120.169C117.37 207.251 107.469 213.684 102.968 216.605Z" fill="#263238"/>
<path d="M98.2786 205.435H121.189C121.189 205.435 116.577 153.177 116.76 152.264C116.988 151.098 118.34 145.816 120.138 138.897C120.707 136.734 121.311 134.433 121.946 132.012C123.653 125.51 125.538 118.407 127.179 112.222C129.643 102.962 131.563 95.7646 131.563 95.7646H112.142C112.142 95.7646 109.886 102.768 107.026 111.895C102.378 126.71 96.1704 147.111 95.5557 152.071C94.5651 160.046 98.2786 205.435 98.2786 205.435Z" fill="#37474F"/>
<path d="M99.2901 201.616C102.79 201.547 101.784 201.517 105.284 201.487C107.002 201.487 118.254 201.373 119.854 201.631C119.863 201.631 119.872 201.635 119.879 201.641C119.886 201.648 119.889 201.656 119.889 201.666C119.889 201.675 119.886 201.684 119.879 201.69C119.872 201.697 119.863 201.7 119.854 201.7C118.254 201.958 107.002 201.864 105.284 201.849C101.784 201.814 102.79 201.79 99.2901 201.715C99.2766 201.715 99.2637 201.71 99.2541 201.701C99.2446 201.691 99.2393 201.679 99.2393 201.666C99.2393 201.652 99.2446 201.64 99.2541 201.631C99.2637 201.621 99.2766 201.616 99.2901 201.616Z" fill="#263238"/>
<path d="M112.427 149.094C113.179 145.861 114.302 142.691 115.277 139.517C117.262 133.069 119.26 126.621 121.271 120.173C122.287 116.949 123.303 113.728 124.319 110.511C124.831 108.884 125.339 107.259 125.843 105.635C126.351 104.048 126.936 102.475 127.393 100.873C127.581 100.219 127.682 100.576 127.444 101.404C126.936 103.076 126.484 104.742 125.986 106.409C125 109.715 124.008 113.01 123.009 116.294C121.034 122.835 119.031 129.378 116.999 135.926C115.983 139.206 114.967 142.488 113.951 145.771C113.439 147.332 113.025 148.923 112.712 150.533C112.443 152.218 112.375 153.927 112.508 155.627C112.732 159.049 113.138 162.467 113.458 165.884L114.434 176.151C115.081 182.96 115.721 189.771 116.354 196.586C116.435 197.45 116.511 198.313 116.578 199.176C116.603 199.463 116.151 199.443 116.12 199.176C115.368 192.44 114.789 185.684 114.139 178.939C113.489 172.193 112.854 165.517 112.209 158.801C112.046 157.12 111.863 155.428 111.863 153.737C111.874 152.174 112.063 150.617 112.427 149.094Z" fill="#263238"/>
<path d="M114.347 95.7646C115.698 105.948 118.268 125.029 120.138 138.917C124.522 122.132 131.563 95.7646 131.563 95.7646H114.347Z" fill="#263238"/>
<path d="M109.577 216.913C110.695 217.27 142.511 216.977 143.715 216.218C144.177 215.936 144.406 211.407 144.517 205.926C144.517 205.867 144.517 205.812 144.517 205.753C144.543 204.622 144.563 203.461 144.568 202.281C144.568 202.122 144.568 201.958 144.568 201.785C144.644 193.878 144.06 185.67 144.06 185.67L123.263 185.804L123.842 201.77V202.4L123.959 205.708V206.045C123.959 206.045 111.833 211.501 110.598 212.449C109.364 213.396 108.465 216.551 109.577 216.913Z" fill="#DD6A57"/>
<path d="M109.577 216.913C110.695 217.27 142.511 216.977 143.715 216.218C144.177 215.936 144.406 211.407 144.517 205.926C144.517 205.867 144.517 205.812 144.517 205.753C144.543 204.622 144.563 203.461 144.568 202.281C144.568 202.122 144.568 201.958 144.568 201.785H123.842V202.415L123.959 205.723V206.06C123.959 206.06 111.833 211.516 110.598 212.464C109.364 213.411 108.465 216.551 109.577 216.913Z" fill="#EBEBEB"/>
<path d="M109.577 216.913C110.695 217.27 142.511 216.977 143.715 216.218C144.177 215.936 144.406 211.407 144.517 205.926C144.517 205.867 144.517 205.812 144.517 205.753L123.984 205.718V206.055C123.984 206.055 111.858 211.511 110.624 212.459C109.389 213.406 108.465 216.551 109.577 216.913Z" fill="#4F48EC"/>
<path d="M109.928 215.707C115.292 215.529 136.938 215.306 142.252 215.529C142.292 215.529 142.292 215.559 142.252 215.564C136.938 215.851 115.292 215.901 109.928 215.792C109.816 215.787 109.816 215.707 109.928 215.707Z" fill="#263238"/>
<path d="M121.708 205.792C123.811 205.391 126.397 205.683 128.022 207.137C128.088 207.191 128.022 207.28 127.936 207.261C125.914 206.642 123.829 206.237 121.718 206.055C121.687 206.051 121.658 206.035 121.636 206.012C121.615 205.989 121.603 205.959 121.602 205.928C121.6 205.897 121.61 205.866 121.63 205.841C121.649 205.817 121.677 205.799 121.708 205.792Z" fill="#263238"/>
<path d="M120.189 206.705C122.297 206.298 124.883 206.591 126.509 208.049C126.575 208.104 126.509 208.188 126.422 208.168C124.4 207.551 122.315 207.147 120.204 206.963C120.169 206.965 120.135 206.953 120.109 206.93C120.083 206.908 120.067 206.876 120.065 206.841C120.063 206.807 120.075 206.774 120.098 206.748C120.121 206.722 120.154 206.707 120.189 206.705Z" fill="#263238"/>
<path d="M118.675 207.623C120.783 207.221 123.369 207.514 124.994 208.967C125.055 209.021 124.994 209.111 124.903 209.091C122.881 208.471 120.796 208.067 118.685 207.886C118.653 207.881 118.624 207.866 118.603 207.842C118.582 207.819 118.57 207.789 118.568 207.758C118.567 207.727 118.577 207.697 118.597 207.672C118.616 207.647 118.644 207.63 118.675 207.623Z" fill="#263238"/>
<path d="M112.772 95.7646C112.772 95.7646 113.22 104.836 115.348 112.024C115.516 112.619 115.704 113.204 115.902 113.764C117.848 114.533 119.718 115.472 121.49 116.572C121.49 116.572 121.713 123.873 121.937 132.012C122.186 141.114 122.445 151.262 122.389 153.415C122.196 161.47 123.405 205.763 123.405 205.763L146.316 205.852C146.316 205.852 142.175 156.391 142.201 153.44C142.247 148.698 141.093 127.732 140.204 112.445C139.656 103.021 139.188 95.7646 139.188 95.7646H112.772Z" fill="#37474F"/>
<path d="M124.218 201.785C127.718 201.725 126.712 201.695 130.212 201.676C131.924 201.676 143.181 201.616 144.782 201.884C144.812 201.884 144.812 201.948 144.782 201.953C143.176 202.206 131.924 202.062 130.212 202.038C126.712 201.993 127.713 201.968 124.218 201.884C124.204 201.884 124.191 201.879 124.182 201.869C124.172 201.86 124.167 201.847 124.167 201.834C124.167 201.821 124.172 201.808 124.182 201.799C124.191 201.79 124.204 201.785 124.218 201.785Z" fill="#263238"/>
<path d="M137.319 98.9985C137.74 111.478 138.187 123.957 138.761 136.432C139.335 148.906 140.108 161.465 141.179 173.949C141.779 180.928 142.343 190.739 143.115 197.698C143.112 197.705 143.107 197.712 143.1 197.716C143.093 197.721 143.085 197.723 143.077 197.723C143.068 197.723 143.06 197.721 143.054 197.716C143.047 197.712 143.042 197.705 143.039 197.698C141.372 185.298 140.443 170.011 139.62 157.556C138.797 145.102 138.243 132.622 137.811 120.148C137.562 113.09 137.374 106.032 137.161 98.9737C137.146 98.8993 137.319 98.9093 137.319 98.9985Z" fill="#263238"/>
<path d="M114.966 113.224C117.246 114.152 119.439 115.272 121.52 116.572C121.534 116.583 121.543 116.598 121.547 116.615C121.55 116.632 121.548 116.65 121.539 116.665C121.531 116.681 121.517 116.693 121.501 116.699C121.484 116.706 121.466 116.706 121.449 116.701C119.239 115.654 116.983 114.647 114.845 113.482C114.815 113.463 114.794 113.434 114.785 113.401C114.775 113.368 114.778 113.333 114.793 113.302C114.808 113.271 114.833 113.246 114.865 113.232C114.897 113.217 114.933 113.215 114.966 113.224Z" fill="#263238"/>
<path d="M114.82 105.526C114.972 106.32 115.17 107.108 115.328 107.897C115.485 108.685 115.617 109.385 115.836 110.129C116.002 110.838 116.372 111.487 116.903 111.999C117.202 112.267 117.527 112.495 117.847 112.758C118.015 112.892 118.203 113.016 118.381 113.154C118.355 113.045 118.34 112.941 118.32 112.832C118.264 112.529 118.213 112.232 118.162 111.929C118.045 111.26 117.934 110.585 117.832 109.916C117.624 108.596 117.436 107.262 117.151 105.948C117.155 105.939 117.16 105.931 117.168 105.926C117.176 105.92 117.185 105.918 117.195 105.918C117.204 105.918 117.213 105.92 117.221 105.926C117.229 105.931 117.235 105.939 117.238 105.948C117.573 107.242 117.944 108.522 118.254 109.826C118.396 110.466 118.909 113.626 118.935 113.854C118.96 114.082 118.975 114.315 118.985 114.548C119.013 114.784 119.013 115.022 118.985 115.257C118.985 115.312 118.899 115.302 118.874 115.257C118.776 115.039 118.708 114.809 118.67 114.573C118.609 114.345 118.559 114.117 118.518 113.889C118.518 113.804 118.487 113.72 118.477 113.636C118.157 113.447 117.863 113.194 117.563 112.986C117.263 112.777 116.918 112.534 116.613 112.286C116.05 111.823 115.644 111.204 115.45 110.511C115.254 109.768 115.127 109.009 115.069 108.244C114.967 107.341 114.891 106.439 114.764 105.546C114.728 105.491 114.81 105.471 114.82 105.526Z" fill="#263238"/>
<path d="M121.785 70.8655C120.921 74.3375 111.548 93.0169 111.625 94.1775C111.625 94.4553 117.294 98.1455 117.431 98.5969C117.995 100.378 108.693 107.902 106.656 108.348C100.672 109.668 95.4447 109.395 95.5514 104.599C95.719 97.0742 109.267 78.4395 116.207 71.8625C120.769 67.5225 122.638 67.463 121.785 70.8655Z" fill="#DD6A57"/>
<path d="M104.375 109.246L115.383 95.7647C115.383 95.7647 112.096 94.6041 112.025 93.8551C111.954 93.1062 119.914 77.1151 121.636 72.413C123.359 67.711 122.023 66.7388 116.861 70.7713C111.7 74.8038 92.5484 100.933 95.3881 106.751C97.3439 110.764 104.375 109.246 104.375 109.246Z" fill="#4F48EC"/>
<path d="M112.02 93.9444C111.532 94.0632 111.057 94.2293 110.603 94.4404C110.142 94.6388 109.685 94.8421 109.231 95.0505C108.332 95.4572 107.438 95.8788 106.569 96.345C105.7 96.8113 104.857 97.3073 104.029 97.833L103.44 98.1902L103.206 98.2695C102.876 98.3836 102.546 98.5076 102.231 98.6514C101.616 98.9322 101.02 99.252 100.448 99.6087C100.407 99.6335 100.448 99.693 100.488 99.6732C101.084 99.345 101.704 99.0599 102.343 98.8201L102.597 98.7308C102.261 98.949 101.936 99.1772 101.621 99.4202C100.777 100.056 99.9742 100.744 99.2184 101.479C99.1828 101.513 99.2184 101.563 99.2742 101.528C100.636 100.239 102.358 99.3061 103.999 98.3985C105.639 97.4908 107.362 96.4442 109.079 95.5167C109.587 95.2489 110.059 94.9959 110.562 94.7529C111.074 94.5358 111.575 94.2924 112.061 94.0238C112.07 94.0178 112.077 94.0086 112.08 93.998C112.083 93.9874 112.082 93.9761 112.077 93.9663C112.072 93.9565 112.063 93.9488 112.053 93.9448C112.042 93.9407 112.031 93.9406 112.02 93.9444Z" fill="#263238"/>
<path d="M141.621 109.246C141.54 109.325 107.971 107.083 107.687 106.721C107.296 106.225 117.471 71.2475 121.24 67.1009C122.043 66.2131 126.767 65.2707 129.292 67.5969C134.646 72.5569 138.4 88.4785 139.188 93.2599C140.493 101.151 141.921 108.953 141.621 109.246Z" fill="#4F48EC"/>
<path d="M117.507 74.5409C117.507 74.4863 117.431 74.4466 117.41 74.5012C116.857 75.8503 116.343 77.2143 115.841 78.5783C115.866 78.3849 115.886 78.1865 115.901 77.993C115.942 77.4722 115.937 76.9514 115.983 76.4356C115.983 76.386 115.907 76.386 115.907 76.4356C115.876 76.9713 115.774 77.497 115.693 78.0277C115.612 78.5585 115.556 78.9801 115.475 79.4562L115.429 79.7092C114.616 81.9858 113.854 84.2823 113.107 86.5788C111.787 90.6708 110.567 94.8025 109.424 98.9441C108.774 101.28 108.205 103.631 107.672 105.992C107.675 106 107.68 106.006 107.687 106.011C107.694 106.016 107.702 106.018 107.71 106.018C107.718 106.018 107.726 106.016 107.733 106.011C107.74 106.006 107.745 106 107.748 105.992C108.993 101.895 110.197 97.7834 111.436 93.6865C112.574 89.9119 113.773 86.1572 114.992 82.4025C114.998 82.4057 115.005 82.4077 115.011 82.4082C115.018 82.4087 115.025 82.4077 115.031 82.4053C115.038 82.403 115.043 82.3993 115.048 82.3945C115.053 82.3897 115.056 82.3839 115.058 82.3777L115.317 81.3857C116.059 79.1289 116.811 76.8423 117.507 74.5409Z" fill="#263238"/>
<path d="M120.377 68.5541C120.179 70.0421 119.818 73.4744 122.221 73.4248C123.194 73.3234 124.117 72.9497 124.878 72.3485C125.67 71.8061 126.398 71.1789 127.047 70.4785C127.805 69.7194 128.496 68.8998 129.115 68.0283C129.115 67.9936 129.201 68.0283 129.17 68.0729C128.541 68.9459 128.002 69.8585 127.286 70.667C126.604 71.4593 125.817 72.1584 124.944 72.7453C124.131 73.3604 123.146 73.7201 122.119 73.7769C121.674 73.7679 121.246 73.6089 120.907 73.3269C120.568 73.0449 120.34 72.6572 120.26 72.2294C120.02 71.011 120.06 69.7556 120.377 68.5541Z" fill="#263238"/>
<path d="M131.497 74.8584C139.666 80.8104 149.155 84.0195 153.077 82.5216C156.125 81.351 165.996 72.5272 167.611 65.3947C167.967 63.8224 155.587 62.4187 155.099 63.4752C153.672 66.5107 148.089 71.7832 147.52 71.7038C146.778 71.6046 138.33 69.8388 131.66 68.3062C123.603 66.4561 127.032 71.6145 131.497 74.8584Z" fill="#DD6A57"/>
<path d="M169.831 62.8452C169.186 65.3996 165.767 70.1265 164.492 70.9548C163.217 71.7832 154.804 66.3767 154.682 64.8491C154.561 63.3214 157.426 54.8745 159.61 53.2427C161.794 51.6108 170.522 60.1966 169.831 62.8452Z" fill="#DD6A57"/>
<path d="M154.931 63.3262C154.628 61.2199 154.012 59.168 153.102 57.2353C151.934 54.9686 149.938 51.7297 151.162 51.0701C153.676 49.716 158.655 57.7909 158.655 57.7909C158.655 57.7909 160.265 61.6993 157.893 63.2469C157.455 63.5255 156.946 63.6804 156.423 63.6944C155.901 63.7084 155.384 63.581 154.931 63.3262Z" fill="#DD6A57"/>
<path d="M156.785 56.417C157.801 57.3742 158.573 56.4963 158.573 56.4963C158.573 56.4963 157.049 58.7581 158.035 59.9683C159.02 61.1786 160.575 59.5616 160.697 59.4723C160.615 59.5914 159.274 61.7043 160.387 62.8203C161.499 63.9363 162.871 62.1359 162.957 62.0168C162.917 62.1557 162.449 63.971 163.465 64.6258C165.258 65.7616 166.61 61.1538 168.154 60.3949C168.154 60.3949 169.77 62.8054 169.83 62.8749C169.891 62.9443 171.207 58.515 170.044 56.536C169.879 56.2457 169.617 56.0191 169.302 55.8937C168.987 55.7683 168.638 55.7517 168.312 55.8466C168.312 55.8466 168.916 54.4875 168.068 53.5798C167.626 53.1186 166.478 53.3914 166.478 53.3914C166.598 53.0765 166.626 52.7354 166.561 52.4056C166.496 52.0758 166.338 51.7699 166.107 51.5214C165.467 50.9163 164.415 51.2834 164.415 51.2834C164.415 51.2834 168.642 45.8274 167.377 44.8354C165.192 43.0944 157.791 54.7554 156.551 54.8546C155.962 54.8794 156.333 55.9954 156.785 56.417Z" fill="#DD6A57"/>
<path d="M166.518 53.322C166.518 53.322 166.518 53.2675 166.488 53.2824C163.829 54.5829 161.735 56.77 160.585 59.4476C160.549 59.5419 160.61 59.6659 160.661 59.5617C161.53 57.7761 164.491 54.7158 166.518 53.322Z" fill="#263238"/>
<path d="M162.947 62.2151C164.101 59.6061 165.995 57.6221 168.231 55.8564C168.261 55.8564 168.231 55.7969 168.195 55.8068C166.854 56.3821 165.548 57.6519 164.639 58.7233C163.751 59.7097 163.145 60.9073 162.881 62.1953C162.846 62.225 162.922 62.2945 162.947 62.2151Z" fill="#263238"/>
<path d="M158.528 56.5012C158.477 56.5905 158.792 56.5359 158.746 56.6252C158.264 57.6172 157.492 59.4127 158.238 59.9782C158.828 60.4246 159.854 59.9782 160.179 59.6409L160.992 58.8175L160.519 59.8691C160.303 60.3402 160.167 60.8429 160.118 61.3571C160.082 61.5901 160.096 61.8279 160.16 62.0551C160.224 62.2824 160.336 62.494 160.489 62.6764C160.634 62.8448 160.833 62.9594 161.054 63.0009C161.275 63.0425 161.504 63.0084 161.703 62.9046C162.141 62.6692 162.511 62.3276 162.775 61.9126L163.547 60.7867L163.196 62.0911C163.096 62.455 163.047 62.8304 163.049 63.2071C163.039 63.5563 163.132 63.9009 163.318 64.1991C163.41 64.3316 163.537 64.4366 163.686 64.5023C163.835 64.568 164 64.5918 164.162 64.5711C164.519 64.4739 164.84 64.2775 165.086 64.0057C165.63 63.4281 166.126 62.8095 166.57 62.1556C166.808 61.8332 167.047 61.5108 167.296 61.1983C167.532 60.87 167.837 60.5944 168.19 60.3899C167.868 60.6278 167.595 60.9242 167.387 61.2628C167.164 61.5902 166.956 61.9275 166.742 62.2548C166.335 62.9572 165.862 63.6213 165.33 64.2388C165.046 64.5747 164.668 64.8229 164.243 64.9531C164.005 65.0005 163.758 64.9788 163.532 64.8907C163.306 64.8025 163.112 64.6518 162.973 64.4571C162.723 64.0864 162.594 63.6507 162.602 63.2071C162.598 62.7894 162.647 62.3728 162.749 61.9671L163.171 62.1457C162.865 62.6429 162.433 63.0546 161.916 63.3411C161.623 63.4913 161.285 63.5369 160.961 63.47C160.644 63.3903 160.361 63.217 160.148 62.974C159.952 62.7446 159.807 62.4768 159.725 62.1886C159.642 61.9003 159.624 61.5982 159.671 61.3025C159.736 60.7456 159.894 60.2027 160.138 59.6955L160.479 59.9236C160.052 60.3254 158.955 60.9603 157.964 60.37C156.765 59.4127 158.228 56.9377 158.528 56.5012Z" fill="#263238"/>
<path d="M153.331 64.9631L165.548 72.3486C165.548 72.3486 156.623 83.5483 150.776 83.6772C144.928 83.8062 131.472 77.6062 127.194 73.0033C123.496 69.0353 127.641 66.9323 131.472 68.0433C135.302 69.1543 147.296 71.4558 147.631 71.2871C147.966 71.1185 153.331 64.9631 153.331 64.9631Z" fill="#4F48EC"/>
<path d="M163.303 74.5558C162.887 74.2309 162.451 73.931 161.997 73.658L160.585 72.7106C159.681 72.1105 158.741 71.5599 157.806 71.0044C155.906 69.8735 154.012 68.7079 152.025 67.7258C151.99 67.7258 151.944 67.7606 151.98 67.7854C153.742 69.065 155.622 70.191 157.481 71.3268C158.406 71.8972 159.33 72.4725 160.275 73.0033L161.708 73.782C162.207 74.0876 162.726 74.361 163.262 74.6004C163.293 74.6202 163.333 74.5806 163.303 74.5558Z" fill="#263238"/>
<path d="M135.46 78.6129C134.057 77.8237 132.499 77.335 130.888 77.1794C130.88 77.1823 130.873 77.1873 130.869 77.194C130.864 77.2006 130.861 77.2085 130.861 77.2166C130.861 77.2247 130.864 77.2327 130.869 77.2393C130.873 77.246 130.88 77.251 130.888 77.2538C131.487 77.4225 132.061 77.6606 132.661 77.849L133.021 77.9582H132.706L131.69 77.9086C131.655 77.9086 131.65 77.9582 131.69 77.9631C132.021 78.0589 132.362 78.1172 132.706 78.1367C132.964 78.1465 133.222 78.1366 133.479 78.107H133.545C133.809 78.1764 135.191 78.6625 135.46 78.6823C135.47 78.6922 135.48 78.6625 135.46 78.6129Z" fill="#263238"/>
<path d="M122.231 71.8376C123.938 72.1154 127.006 69.189 128.012 67.0859C128.078 66.9421 127.763 65.4838 127.464 63.6982C127.281 62.617 127.113 61.4018 127.037 60.2858C127.037 60.0576 126.249 60.5288 126.249 60.5288L124.797 60.9752L119.976 62.4632C120.479 63.8341 120.81 65.2599 120.961 66.709C120.974 66.8625 120.974 67.0167 120.961 67.1702C120.961 67.1702 120.961 67.2149 120.961 67.2446C120.849 68.1077 120.58 71.5648 122.231 71.8376Z" fill="#DD6A57"/>
<path d="M120.941 67.1553C120.941 67.1553 120.941 67.2 120.941 67.2297C121.187 67.2493 121.435 67.2493 121.682 67.2297C126.503 66.8131 126.701 60.7817 126.701 60.7817L124.801 60.9851L119.98 62.4731C120.484 63.844 120.815 65.2698 120.966 66.7189C120.969 66.8648 120.961 67.0107 120.941 67.1553Z" fill="#263238"/>
<path d="M119.163 49.6267C119.163 49.6267 116.826 50.5096 116.344 52.7912C115.861 55.0728 116.344 57.4933 116.542 57.6123C116.74 57.7313 119.163 49.6267 119.163 49.6267Z" fill="#263238"/>
<path d="M128.52 53.0442C129.196 55.5589 127.565 62.6914 125.691 64.224C122.973 66.4461 118.665 66.5056 116.765 63.3461C114.926 60.2808 117.222 51.0255 119.305 49.6466C122.368 47.6179 127.519 49.3242 128.52 53.0442Z" fill="#DD6A57"/>
<path d="M121.895 57.4338C121.895 57.4338 121.931 57.4636 121.926 57.4834C121.809 57.9794 121.758 58.53 122.17 58.783C121.631 58.6242 121.707 57.8703 121.895 57.4338Z" fill="#263238"/>
<path d="M122.445 57.0171C123.252 57.1163 122.988 58.6886 122.241 58.5944C121.495 58.5001 121.769 56.9377 122.445 57.0171Z" fill="#263238"/>
<path d="M119.031 56.8982C119.031 56.8982 118.99 56.8982 118.985 56.9329C118.919 57.4289 118.762 57.9696 118.284 58.0588V58.0886C118.823 58.1035 119.031 57.3694 119.031 56.8982Z" fill="#263238"/>
<path d="M118.655 56.3426C117.863 56.1591 117.538 57.7166 118.269 57.8902C119.001 58.0638 119.316 56.4766 118.655 56.3426Z" fill="#263238"/>
<path d="M123.196 56.4022C122.996 56.3078 122.801 56.2035 122.612 56.0897C122.389 55.9657 122.196 55.8913 122.079 55.6582C122.05 55.5891 122.047 55.5126 122.069 55.4414C122.091 55.3701 122.138 55.3084 122.201 55.2664C122.336 55.1998 122.488 55.1693 122.639 55.178C122.791 55.1867 122.937 55.2343 123.064 55.316C123.346 55.447 123.568 55.6748 123.689 55.9558C123.713 56.0216 123.717 56.0928 123.7 56.1607C123.683 56.2285 123.646 56.29 123.593 56.3375C123.541 56.385 123.475 56.4165 123.405 56.428C123.334 56.4395 123.262 56.4305 123.196 56.4022Z" fill="#263238"/>
<path d="M118.162 55.43C118.385 55.4227 118.607 55.4028 118.827 55.3704C119.065 55.3816 119.3 55.3172 119.498 55.1869C119.55 55.1326 119.583 55.0629 119.592 54.9886C119.6 54.9143 119.583 54.8393 119.544 54.7752C119.447 54.6606 119.32 54.5733 119.177 54.5227C119.034 54.4721 118.88 54.46 118.731 54.4876C118.419 54.4962 118.122 54.6182 117.898 54.8298C117.849 54.8805 117.817 54.9438 117.805 55.012C117.793 55.0802 117.802 55.1503 117.83 55.2139C117.858 55.2774 117.904 55.3317 117.963 55.3701C118.022 55.4084 118.091 55.4292 118.162 55.43Z" fill="#263238"/>
<path d="M121.571 61.8532C121.429 61.9475 121.286 62.0863 121.104 62.0715C120.921 62.037 120.748 61.966 120.596 61.8631C120.596 61.8631 120.56 61.8631 120.57 61.8631C120.624 61.9702 120.707 62.0609 120.81 62.1256C120.913 62.1902 121.032 62.2264 121.154 62.2302C121.261 62.2243 121.363 62.1857 121.446 62.1198C121.529 62.0539 121.589 61.9641 121.617 61.8631C121.647 61.8532 121.612 61.8383 121.571 61.8532Z" fill="#263238"/>
<path d="M121.312 60.3107C121.153 60.4824 120.959 60.6203 120.744 60.7159C120.528 60.8115 120.294 60.8626 120.057 60.8662C119.85 60.8709 119.642 60.8458 119.442 60.7918C119.404 60.7878 119.366 60.7778 119.331 60.762L119.224 60.7273C119.198 60.7194 119.175 60.7025 119.16 60.6798C119.145 60.6571 119.139 60.63 119.143 60.6033C119.141 60.5868 119.141 60.5702 119.143 60.5537V60.5091C119.193 60.1321 119.326 59.5716 119.326 59.5716C119.178 59.6163 118.411 59.8147 118.452 59.6212C118.782 57.9429 119.284 56.3011 119.95 54.7208C119.957 54.7124 119.966 54.7063 119.976 54.7032C119.986 54.7001 119.997 54.7002 120.007 54.7035C120.017 54.7068 120.026 54.7131 120.032 54.7215C120.038 54.73 120.042 54.7401 120.042 54.7505C119.747 56.303 119.173 57.796 118.853 59.3484C119.128 59.2758 119.412 59.2391 119.696 59.2393C119.747 59.2393 119.417 60.3256 119.407 60.4942C119.716 60.5751 120.038 60.5944 120.355 60.5509C120.672 60.5075 120.977 60.4021 121.251 60.2412C121.312 60.2412 121.347 60.2809 121.312 60.3107Z" fill="#263238"/>
<path d="M119.701 60.6428C119.866 60.9439 120.107 61.1985 120.402 61.3818C120.565 61.4784 120.756 61.5218 120.946 61.5058C121.362 61.4661 121.428 61.109 121.408 60.7965C121.396 60.6276 121.362 60.461 121.306 60.3005C120.823 60.58 120.26 60.7 119.701 60.6428Z" fill="#263238"/>
<path d="M120.402 61.382C120.565 61.4786 120.756 61.522 120.946 61.506C121.362 61.4663 121.429 61.1092 121.408 60.7967C121.198 60.7706 120.984 60.814 120.802 60.9201C120.62 61.0261 120.479 61.1888 120.402 61.382Z" fill="#FF98B9"/>
<path d="M127.346 58.8226C125.822 58.8226 126.015 52.3399 126.015 52.3399C125.131 52.7414 124.189 53.009 123.221 53.1335C122.238 53.1923 121.252 53.1424 120.28 52.9847C120.072 52.9251 122.683 51.9331 122.683 51.9331C122.683 51.9331 116.135 53.1285 115.789 51.9331C115.673 51.5215 118.66 47.1368 123.181 47.4691C126.523 47.6973 128.383 51.0602 128.383 51.0602C128.383 51.0602 129.988 52.816 129.907 53.8427C129.815 55.177 128.942 58.8226 127.346 58.8226Z" fill="#263238"/>
<path d="M126.712 58.8225C126.712 58.8225 128.515 56.6004 129.561 57.2402C130.608 57.8801 129.15 61.1735 127.855 61.5604C127.692 61.6214 127.518 61.6495 127.344 61.6431C127.169 61.6367 126.998 61.5958 126.841 61.5231C126.683 61.4503 126.542 61.3471 126.427 61.2196C126.311 61.0922 126.223 60.9432 126.168 60.7817L126.712 58.8225Z" fill="#DD6A57"/>
<path d="M129.12 58.1877C129.12 58.1877 129.12 58.1877 129.12 58.2225C128.7 58.3965 128.323 58.6546 128.012 58.9802C127.701 59.3057 127.464 59.6914 127.316 60.1122C127.372 60.0281 127.447 59.9569 127.534 59.9038C127.621 59.8506 127.719 59.8167 127.821 59.8044C127.923 59.7921 128.027 59.8017 128.125 59.8326C128.223 59.8635 128.313 59.9149 128.388 59.9833C128.388 59.9833 128.388 60.0329 128.363 60.0279C128.209 59.9713 128.042 59.9619 127.883 60.0009C127.724 60.0399 127.581 60.1255 127.474 60.2461C127.299 60.4521 127.146 60.6748 127.016 60.9108C126.971 60.9901 126.828 60.9356 126.864 60.8513C126.925 59.7253 127.895 58.2274 129.12 58.1877Z" fill="#263238"/>
<path d="M120.91 67.1108L122.658 71.2276L127.865 65.9353L129.389 67.5969C129.389 67.5969 124.309 75.9694 124.309 75.5974L122.52 72.051L120.031 74.5607L120.163 68.326L120.91 67.1108Z" fill="#EBEBEB"/>
<path d="M119.89 71.4754C119.951 70.4487 119.976 69.4121 120.083 68.3853C120.083 68.3506 120.144 68.3308 120.154 68.3853C120.377 69.3773 120.154 73.3057 120.154 74.2481C120.255 74.1389 122.465 72.0359 122.485 72.0706C122.872 72.6311 124.182 75.2153 124.274 75.4484C125.071 74.1191 128.14 69.2831 129.089 68.0084C129.091 68.0038 129.094 67.9998 129.098 67.9965C129.102 67.9931 129.106 67.9906 129.111 67.9891C129.116 67.9875 129.121 67.987 129.126 67.9875C129.131 67.988 129.136 67.9896 129.14 67.992C129.144 67.9945 129.148 67.9979 129.151 68.0019C129.154 68.0059 129.156 68.0105 129.157 68.0153C129.158 68.0201 129.158 68.0251 129.157 68.0299C129.156 68.0347 129.153 68.0392 129.15 68.0431C128.449 69.4468 124.396 75.9791 124.33 75.9394C123.641 74.7218 123.017 73.4702 122.46 72.1897C122.089 72.646 119.864 75.0168 119.854 74.8631C119.805 73.734 119.817 72.6032 119.89 71.4754Z" fill="#263238"/>
<path d="M136.526 102.267H113.026V103.606H136.526V102.267Z" fill="#455A64"/>
<path d="M127.311 102.267H113.026V103.606H127.311V102.267Z" fill="#263238"/>
<path d="M124.842 103.626L95.0988 103.631L90.8418 83.8062H120.59L124.842 103.626Z" fill="#455A64"/>
<path d="M109.653 93.7161C109.685 93.9401 109.666 94.1682 109.599 94.3845C109.531 94.6009 109.417 94.8004 109.262 94.9692C109.108 95.138 108.919 95.2722 108.706 95.3624C108.494 95.4527 108.264 95.4968 108.032 95.4918C107.536 95.4798 107.061 95.2938 106.693 94.9678C106.326 94.6417 106.091 94.1975 106.031 93.7161C106 93.4923 106.019 93.2645 106.087 93.0486C106.155 92.8326 106.269 92.6335 106.423 92.4648C106.577 92.2962 106.767 92.162 106.979 92.0715C107.191 91.981 107.42 91.9363 107.651 91.9405C108.148 91.9514 108.624 92.1371 108.992 92.4633C109.36 92.7895 109.594 93.2344 109.653 93.7161Z" fill="#263238"/>
<path d="M101.067 104.807C102.901 105.799 105.131 108.095 106.655 108.353C107.029 108.432 107.42 108.39 107.768 108.235C108.115 108.079 108.403 107.818 108.586 107.49C108.586 107.49 109.272 109.028 110.699 109.038C111.436 109.038 112.091 107.907 112.091 107.907C112.265 108.246 112.531 108.533 112.861 108.734C113.191 108.935 113.571 109.044 113.96 109.047C114.976 108.998 115.484 107.862 115.484 107.862C115.484 107.862 116.617 108.76 117.633 108.358C119.665 107.594 120.143 99.1126 117.014 97.6394C115.556 96.95 115.561 99.0282 115.561 99.0282C115.561 99.0282 114.819 96.0522 113.021 95.9084C111.222 95.7646 111.41 98.5025 111.41 98.5025C111.41 98.5025 110.664 95.6158 108.794 95.6554C106.848 95.7001 107.494 98.3686 107.494 98.3686C107.494 98.3686 106.29 96.4143 104.862 96.7665C102.515 97.3468 105.182 101.776 104.628 103.616H101.52L101.067 104.807Z" fill="#DD6A57"/>
<path d="M103.71 106.463C101.891 105.695 101.017 106.959 99.1377 106.721C97.0245 106.454 97.7103 104.033 101.424 103.602H104.639L103.71 106.463Z" fill="#DD6A57"/>
<path d="M112.102 107.927C112.102 107.961 112.153 107.966 112.163 107.927C113.112 104.766 112.873 101.377 111.487 98.3737C111.436 98.2695 111.284 98.2249 111.33 98.3737C112.173 100.457 112.488 105.228 112.102 107.927Z" fill="#263238"/>
<path d="M107.306 98.1753C108.632 101.121 108.856 104.192 108.622 107.371C108.622 107.38 108.626 107.389 108.633 107.396C108.639 107.402 108.648 107.406 108.658 107.406C108.667 107.406 108.676 107.402 108.683 107.396C108.69 107.389 108.693 107.38 108.693 107.371C109.242 105.843 109.176 103.8 108.983 102.213C108.833 100.737 108.292 99.3251 107.413 98.1157C107.378 98.081 107.276 98.1108 107.306 98.1753Z" fill="#263238"/>
<path d="M197.481 152.071C197.636 149.566 197.999 147.078 198.568 144.631C199.107 142.418 199.874 140.167 201.301 138.336C202.602 136.67 204.476 135.36 206.651 135.083C208.744 134.83 210.715 135.742 212.279 137.032C214.225 138.629 215.713 140.742 217.105 142.79C218.636 145.085 220.028 147.465 221.276 149.918C221.317 149.997 221.19 150.067 221.149 149.982C220.069 147.905 218.822 145.915 217.42 144.03C216.145 142.219 214.709 140.521 213.128 138.956C211.69 137.582 209.861 136.303 207.778 136.238C205.696 136.174 203.791 137.31 202.541 138.867C201.144 140.613 200.438 142.795 199.904 144.918C199.355 147.255 198.995 149.629 198.827 152.021C198.421 156.931 198.319 161.876 198.192 166.807C198.132 169.594 198.089 172.382 198.065 175.169C198.065 176.585 198.054 177.998 198.03 179.41C198.084 180.775 198.028 182.141 197.862 183.497C197.817 183.775 197.354 183.745 197.309 183.497C197.14 182.213 197.076 180.918 197.116 179.623C197.116 178.284 197.08 176.945 197.07 175.606C197.044 173.002 197.029 170.393 197.039 167.789C197.055 162.551 197.121 157.303 197.481 152.071Z" fill="#263238"/>
<path d="M204.675 148.385C204.944 146.996 205.421 145.181 206.234 144.105C207.692 142.17 209.282 143.014 207.809 145.156C206.736 146.747 206.041 148.552 205.777 150.439C205.777 150.439 208.226 153.856 211.182 155.538C211.055 154.223 210.674 152.204 210.938 150.255C211.502 146.034 214.118 146.287 213.478 149.625C212.97 152.314 212.747 155.166 212.884 156.406C213.873 157.023 214.934 157.522 216.044 157.894C215.876 157.398 215.698 156.817 215.495 156.108C214.449 152.323 217.019 151.148 217.116 153.271C217.284 155.087 217.624 156.883 218.132 158.638C219.549 159.104 220.722 159.421 221.444 159.669C223.307 160.341 224.972 161.452 226.29 162.903C227.635 161.714 228.753 160.302 229.592 158.732C228.688 157.973 227.26 156.842 225.279 155.478C221.561 152.914 222.856 149.68 225.787 151.694C227.916 153.142 229.562 155.83 230.308 157.214C231.314 154.81 231.884 152.254 231.995 149.66C229.074 146.982 221.835 143.257 224.035 143.257C225.99 143.257 230.374 146.059 231.98 147.14C231.937 146.404 231.854 145.671 231.731 144.943C228.983 143.187 220.047 140.449 221.474 139.661C223.039 138.798 229.272 141.615 231.152 142.508C230.799 141.312 230.24 140.183 229.501 139.17C225.706 134.21 218.858 132.493 215.871 133.441C213.753 134.11 214.372 139.348 213.92 139.17C205.416 135.851 201.551 138.212 204.675 148.385ZM225.503 147.81C226.102 147.101 228.891 149.189 228.083 150.334C227.276 151.48 224.72 148.722 225.498 147.81H225.503ZM210.938 143.346C211.67 143.802 210.588 146.451 209.455 145.647C208.49 144.958 210.192 142.885 210.933 143.341L210.938 143.346Z" fill="#4F48EC"/>
<path d="M212.041 144.134C212.427 143.395 212.829 142.646 213.266 141.947C213.668 141.244 214.137 140.58 214.668 139.963L214.307 139.527C214.256 139.472 214.343 139.388 214.393 139.447C214.536 139.606 214.673 139.765 214.81 139.943C214.836 139.957 214.856 139.98 214.866 140.008C215.374 140.623 215.882 141.258 216.359 141.902C217.196 142.089 218.02 142.322 218.828 142.602C219.661 142.875 220.484 143.157 221.297 143.49C221.378 143.524 221.338 143.658 221.251 143.623C220.449 143.276 219.636 142.939 218.808 142.666C217.98 142.393 217.218 142.21 216.42 141.987C216.679 142.344 216.928 142.706 217.182 143.073C218.681 143.535 220.139 144.116 221.541 144.809C223.014 145.493 224.437 146.297 225.849 147.086C225.925 147.13 225.849 147.249 225.773 147.205C224.384 146.412 222.955 145.69 221.49 145.042C220.124 144.417 218.711 143.901 217.335 143.306C220.799 148.593 222.882 154.689 225.661 160.339C225.702 160.418 225.569 160.487 225.534 160.403C224.686 158.419 223.71 156.495 222.786 154.545C221.952 152.799 221.145 151.039 220.312 149.293C220.068 148.784 219.819 148.273 219.565 147.76C219.717 150.582 219.656 153.454 220.129 156.247C220.129 156.256 220.127 156.265 220.123 156.273C220.12 156.282 220.115 156.289 220.108 156.296C220.101 156.302 220.093 156.307 220.085 156.311C220.076 156.314 220.067 156.316 220.058 156.316C220.048 156.316 220.039 156.314 220.03 156.311C220.022 156.307 220.014 156.302 220.007 156.296C220.001 156.289 219.996 156.282 219.992 156.273C219.988 156.265 219.987 156.256 219.987 156.247C219.788 153.231 219.245 150.26 219.265 147.224C219.265 147.224 219.265 147.2 219.265 147.185C218.676 146.034 218.051 144.893 217.375 143.787C216.222 146.431 215.018 149.114 214.48 151.946C214.48 152.036 214.317 151.996 214.343 151.907C215.125 149.065 215.867 146.218 217.253 143.589C216.515 142.394 215.698 141.245 214.81 140.151C214.424 140.856 213.926 141.515 213.489 142.19C213.052 142.865 212.641 143.504 212.245 144.174C211.393 145.599 210.668 147.093 210.075 148.638C210.045 148.722 209.903 148.678 209.938 148.593C210.614 147.11 211.284 145.622 212.041 144.134Z" fill="#263238"/>
<path d="M184.7 150.582C186.93 148.405 189.516 145.543 192.955 145.548C196.272 145.548 198.716 148.167 200.123 150.86C201.591 153.673 202.12 156.862 202.531 159.962C203.019 163.676 203.313 167.413 203.41 171.157C203.471 173.235 203.466 175.318 203.41 177.396C203.409 179.504 203.239 181.609 202.902 183.69C202.841 184.028 202.292 184.038 202.272 183.69C202.17 181.94 202.241 180.184 202.272 178.433C202.302 176.682 202.272 174.961 202.191 173.255C202.059 169.783 201.8 166.286 201.378 162.839C201.012 159.813 200.723 156.698 199.793 153.777C198.955 151.138 197.385 148.122 194.647 146.962C190.913 145.379 187.261 148.266 184.812 150.706C184.751 150.731 184.639 150.642 184.7 150.582Z" fill="#263238"/>
<path d="M173.347 155.448C173.347 155.895 173.392 156.336 173.423 156.767C174.493 155.983 175.747 155.472 177.07 155.279C180.23 154.952 180.027 157.298 177.919 157.397C176.431 157.416 174.96 157.703 173.58 158.246C174.088 162.318 175.247 165.591 175.414 165.636C178.217 165.48 181.006 165.135 183.761 164.604C182.978 162.972 181.19 160.8 182.1 160.636C183.009 160.473 184.01 162.397 184.513 164.47C186.586 164.085 188.624 163.54 190.609 162.839C189.222 161.663 187.053 160.205 187.896 159.58C188.739 158.955 190.436 161.018 191.452 162.511C192.383 162.143 193.263 161.663 194.073 161.083C192.204 158.399 187.642 157.854 188.236 155.909C188.831 153.965 193.098 156.663 195.018 160.254C197.268 157.978 197.929 154.749 197.69 151.996C195.729 151.773 191.955 152.175 192.229 150.801C192.503 149.427 195.226 149.69 197.461 150.493C197.255 149.402 196.807 148.368 196.151 147.463C194.083 144.873 187.779 148.167 187.779 148.167C187.779 148.167 188.455 141.977 186.047 140.905C184.66 140.29 182.216 140.295 179.763 141.709C181.139 141.818 182.811 142.245 183.471 143.197C184.325 144.387 182.963 145.032 182.12 144.487C181.515 144.095 180.388 142.87 178.35 142.711C177.478 143.431 176.712 144.265 176.075 145.191C175.834 145.52 175.612 145.861 175.409 146.213C176.573 145.702 177.839 145.45 179.115 145.472C180.39 145.494 181.646 145.791 182.79 146.342C185.523 147.671 183.999 150.443 181.647 149.362C179.295 148.281 177.075 147.229 174.561 147.839C173.682 150.035 173.274 152.383 173.362 154.739C174.586 153.87 175.964 153.228 177.426 152.844C180.144 152.145 180.982 153.732 177.98 154.025C176.352 154.186 174.776 154.67 173.347 155.448ZM176.654 151.187C176.466 150.329 178.396 150.081 178.716 150.781C178.975 151.376 176.837 152.07 176.654 151.187ZM193.149 155.949C193.326 155.483 194.617 156.014 194.5 156.599C194.337 157.383 192.971 156.42 193.149 155.949ZM184.055 158.965C184.995 158.603 186.463 160.879 185.437 161.405C184.411 161.931 183.273 159.267 184.055 158.965Z" fill="#4F48EC"/>
<path d="M175.785 165.18C177.203 162.868 178.6 160.542 180.088 158.27C180.784 157.214 181.506 156.177 182.262 155.16C182.146 155.16 182.034 155.106 181.922 155.086L181.358 154.977C180.926 154.903 180.484 154.843 180.048 154.798C179.611 154.754 179.22 154.739 178.803 154.734C178.358 154.711 177.912 154.732 177.472 154.798C177.421 154.798 177.411 154.729 177.472 154.729C177.914 154.729 178.366 154.694 178.813 154.684C179.26 154.674 179.672 154.684 180.103 154.714C180.535 154.744 180.906 154.779 181.307 154.838C181.531 154.873 181.749 154.907 181.968 154.952C182.1 154.977 182.237 154.997 182.364 155.032C183.131 154.005 183.929 152.993 184.752 152.006C182.297 150.839 179.683 150.025 176.989 149.59C176.98 149.59 176.971 149.587 176.964 149.58C176.958 149.574 176.954 149.565 176.954 149.556C176.954 149.546 176.958 149.538 176.964 149.531C176.971 149.525 176.98 149.521 176.989 149.521C179.721 149.89 182.377 150.677 184.858 151.852C185.31 151.307 185.768 150.766 186.225 150.23C186.682 149.695 187.287 149.04 187.749 148.4C187.779 148.36 187.84 148.4 187.805 148.44C187.168 149.127 186.568 149.845 186.006 150.592C187.018 151.282 187.98 152.038 188.887 152.854C189.832 153.667 190.751 154.509 191.645 155.379C191.676 155.408 191.645 155.463 191.594 155.428C190.711 154.57 189.796 153.757 188.836 152.978C187.876 152.199 186.875 151.49 185.91 150.721L185.25 151.564L184.914 151.991C184.914 151.991 184.914 151.991 184.889 152.021L183.792 153.429C184.22 154.036 184.586 154.682 184.884 155.359C185.204 156.014 185.478 156.688 185.732 157.343C186.24 158.756 186.635 160.205 186.916 161.678C186.916 161.723 186.855 161.742 186.845 161.678C186.544 160.229 186.114 158.808 185.559 157.432C185.28 156.723 184.97 156.033 184.645 155.344C184.32 154.655 183.995 154.119 183.72 153.489C183.4 153.901 183.085 154.312 182.776 154.729C182.684 154.853 182.598 154.977 182.506 155.096C182.506 155.126 182.506 155.16 182.476 155.16C181.504 156.483 180.571 157.836 179.677 159.218C179.731 159.313 179.772 159.415 179.799 159.52C179.86 159.689 179.91 159.853 179.961 160.016C180.062 160.354 180.145 160.697 180.21 161.043C180.271 161.37 180.317 161.698 180.352 162.035C180.356 162.408 180.384 162.781 180.439 163.151C180.439 163.211 180.357 163.211 180.368 163.151C180.394 162.8 180.367 162.447 180.286 162.104C180.236 161.747 180.17 161.39 180.083 161.043C179.997 160.696 179.921 160.408 179.824 160.096C179.773 159.937 179.722 159.783 179.667 159.629C179.611 159.476 179.601 159.461 179.57 159.372C179.15 160.016 178.734 160.664 178.32 161.316C177.503 162.61 176.695 163.91 175.882 165.204C175.852 165.304 175.745 165.244 175.785 165.18Z" fill="#263238"/>
<path d="M197.634 182.937C197.669 181.627 197.883 180.308 198.025 179.003C198.167 177.699 198.325 176.384 198.467 175.075C198.741 172.555 198.894 169.971 199.483 167.501C199.932 165.345 201.033 163.371 202.643 161.832C203.475 161.019 204.566 160.51 205.736 160.388C206.914 160.354 208.071 160.703 209.023 161.38C210.112 162.159 211.049 163.122 211.792 164.222C212.592 165.31 213.312 166.452 213.946 167.64C213.971 167.689 213.9 167.714 213.875 167.675C212.678 165.689 211.092 163.955 209.206 162.571C208.37 161.896 207.349 161.478 206.27 161.37C205.205 161.357 204.178 161.756 203.415 162.481C201.85 163.811 200.946 165.765 200.407 167.685C199.767 169.961 199.559 172.352 199.239 174.683C199.051 176.072 198.868 177.461 198.68 178.845C198.492 180.228 198.381 181.642 198.076 183.001C198.054 183.045 198.019 183.081 197.975 183.104C197.93 183.127 197.88 183.136 197.83 183.128C197.781 183.121 197.735 183.099 197.7 183.064C197.664 183.03 197.641 182.985 197.634 182.937Z" fill="#263238"/>
<path d="M204.233 172.759C204.648 173.31 205.14 173.801 205.696 174.217C205.473 172.937 205.188 170.665 205.869 169.455C206.885 167.575 208.109 168.513 207.5 170.145C206.887 171.618 206.552 173.188 206.509 174.777C207.905 175.636 209.403 176.325 210.97 176.831C210.802 176.095 210.753 175.339 210.822 174.589C211.025 172.605 212.6 172.605 212.194 174.708C212.04 175.517 211.967 176.34 211.975 177.163C214.248 177.847 216.571 178.357 218.925 178.691C220.126 177.171 221.095 175.488 221.8 173.696C220.129 173.284 216.72 173.2 216.812 172.025C216.908 170.452 220.19 171.662 222.11 172.803C222.55 171.436 222.746 170.005 222.689 168.572C221.182 168.162 219.634 167.911 218.071 167.823C214.627 167.536 214.795 165.626 217.294 165.671C219.138 165.701 221.47 166.807 222.572 167.377C221.856 162.799 218.275 159.863 215.409 159.753C210.588 159.56 212.321 165.423 212.321 165.423C212.321 165.423 209.054 163.176 205.971 163.235C202.887 163.295 200.936 168.28 204.233 172.759ZM217.116 164.292C217.005 163.632 219.148 163.473 219.27 164.317C219.397 165.269 217.223 164.966 217.116 164.292ZM220.576 171.166C220.53 170.735 221.46 170.67 221.673 171.201C221.81 171.553 220.632 171.588 220.576 171.166ZM208.998 171.563C209.725 171.667 210.136 174.202 208.887 174.152C207.932 174.113 208.384 171.479 208.998 171.563Z" fill="#4F48EC"/>
<path d="M210.004 174.39C210.12 174.078 210.227 173.756 210.334 173.433C210.239 173.764 210.158 174.094 210.09 174.425C210.088 174.431 210.084 174.436 210.08 174.44C210.075 174.444 210.07 174.448 210.065 174.45C210.059 174.452 210.053 174.453 210.047 174.453C210.041 174.453 210.035 174.452 210.029 174.45C210.023 174.448 210.018 174.444 210.014 174.44C210.009 174.436 210.006 174.431 210.004 174.425C210.001 174.42 210 174.414 210 174.408C210 174.402 210.001 174.396 210.004 174.39Z" fill="#263238"/>
<path d="M211.274 170.303C211.503 169.654 211.757 169.014 212.016 168.374C212.153 168.032 212.295 167.695 212.448 167.357C212.56 167.06 212.705 166.776 212.88 166.509C212.73 166.244 212.599 165.969 212.488 165.686C212.488 165.661 212.488 165.641 212.534 165.661C212.887 166.11 213.201 166.586 213.474 167.084L213.865 167.759C214.138 167.784 214.409 167.824 214.678 167.878C214.968 167.933 215.252 167.987 215.542 168.052L216.4 168.245C216.685 168.315 216.964 168.404 217.254 168.448C217.26 168.45 217.265 168.453 217.27 168.457C217.275 168.46 217.279 168.465 217.282 168.47C217.285 168.476 217.287 168.481 217.288 168.487C217.289 168.494 217.288 168.5 217.287 168.505C217.285 168.511 217.282 168.517 217.278 168.522C217.274 168.526 217.27 168.53 217.264 168.533C217.259 168.536 217.253 168.538 217.247 168.539C217.24 168.54 217.234 168.539 217.228 168.538C216.936 168.435 216.635 168.357 216.329 168.305C216.05 168.25 215.775 168.2 215.496 168.161C215.216 168.121 214.932 168.086 214.653 168.062L214.012 168.012C214.129 168.205 214.246 168.404 214.358 168.602C214.377 168.633 214.394 168.664 214.409 168.696C214.643 168.693 214.877 168.72 215.105 168.776C215.354 168.82 215.613 168.865 215.846 168.92C216.354 169.029 216.862 169.143 217.37 169.282C218.386 169.564 219.443 169.892 220.474 170.219C220.53 170.219 220.474 170.323 220.439 170.303C219.416 169.966 218.375 169.684 217.32 169.46C216.812 169.351 216.334 169.237 215.836 169.138L215.095 168.984C214.9 168.956 214.709 168.914 214.52 168.86C215.049 169.816 215.545 170.79 216.009 171.782C217.025 173.944 217.848 176.166 218.706 178.383C218.706 178.438 218.64 178.478 218.62 178.418C217.79 176.217 216.832 174.064 215.75 171.97C215.557 171.588 215.359 171.206 215.161 170.824C215.161 170.904 215.125 170.978 215.11 171.057C215.064 171.32 215.013 171.583 214.968 171.846C214.881 172.372 214.79 172.893 214.708 173.423C214.479 174.499 214.349 175.593 214.317 176.692C214.317 176.704 214.312 176.715 214.304 176.724C214.295 176.732 214.284 176.737 214.272 176.737C214.259 176.737 214.248 176.732 214.239 176.724C214.231 176.715 214.226 176.704 214.226 176.692C214.312 176.171 214.312 175.626 214.348 175.1C214.383 174.574 214.424 173.999 214.49 173.448C214.556 172.898 214.622 172.392 214.708 171.866C214.754 171.603 214.8 171.34 214.851 171.082C214.864 170.884 214.916 170.691 215.003 170.512C214.719 169.956 214.439 169.401 214.155 168.85C213.87 168.3 213.616 167.819 213.342 167.303C213.225 167.089 213.098 166.866 212.971 166.648C212.886 166.92 212.779 167.186 212.651 167.442C212.529 167.734 212.407 168.032 212.28 168.329C212.006 168.984 211.772 169.649 211.488 170.313C211.127 171.256 210.721 172.223 210.421 173.2C210.695 172.233 210.944 171.256 211.274 170.303Z" fill="#263238"/>
<path d="M210.334 173.423C210.334 173.349 210.38 173.274 210.4 173.195L210.334 173.423Z" fill="#263238"/>
<path d="M189.567 180.387L189.908 187.401L190.781 205.46H209.867L210.741 187.401L211.081 180.387H189.567Z" fill="#37474F"/>
<path d="M189.567 180.387L189.908 187.401H210.741L211.081 180.387H189.567Z" fill="#263238"/>
<path d="M188.211 183.224H212.438V177.555H188.211V183.224Z" fill="#37474F"/>
<path d="M208.327 205.46H204.975V208.426H208.327V205.46Z" fill="#37474F"/>
<path d="M208.327 205.46H204.975V206.943H208.327V205.46Z" fill="#263238"/>
<path d="M195.673 205.46H192.325V208.426H195.673V205.46Z" fill="#37474F"/>
<path d="M195.673 205.46H192.325V206.943H195.673V205.46Z" fill="#263238"/>
</svg>
